<mxfile host="app.diagrams.net" modified="2024-05-24T11:57:12.844Z" agent="Mozilla/5.0 (Windows NT 10.0; Win64; x64) AppleWebKit/537.36 (KHTML, like Gecko) Chrome/121.0.0.0 Safari/537.36" etag="6qjsD725oT1Y7xxhHcqG" version="24.4.7" type="device">
  <diagram name="PÃ¡gina-1" id="FA_QVVhVO88l6jt6HZ5g">
    <mxGraphModel dx="1434" dy="782" grid="1" gridSize="10" guides="1" tooltips="1" connect="1" arrows="1" fold="1" page="1" pageScale="1" pageWidth="827" pageHeight="1169" math="0" shadow="0">
      <root>
        <mxCell id="0" />
        <mxCell id="1" parent="0" />
        <mxCell id="4r150Uc3It0kKa9ugfzy-1" value="" style="shape=image;html=1;verticalLabelPosition=bottom;verticalAlign=top;imageAspect=1;aspect=fixed;image=data:image/jpeg,/9j/4AAQSkZJRgABAQEASABIAAD/2wBDAAYEBQYFBAYGBQYHBwYIChAKCgkJChQODwwQFxQYGBcUFhYaHSUfGhsjHBYWICwgIyYnKSopGR8tMC0oMCUoKSj/2wBDAQcHBwoIChMKChMoGhYaKCgoKCgoKCgoKCgoKCgoKCgoKCgoKCgoKCgoKCgoKCgoKCgoKCgoKCgoKCgoKCgoKCj/wgARCAPAAtADASIAAhEBAxEB/8QAHAAAAgMBAQEBAAAAAAAAAAAAAAECAwYFBAcI/8QAGQEBAQEBAQEAAAAAAAAAAAAAAAECAwQF/9oADAMBAAIQAxAAAAH6OB4u4AAAAAAAAAAAAAAAAAAAAAAAAAAAAAAAAAAAAAAAAAAAAAAAAAAAAAAAAAAAAAAAAAAAAAAAAAAAAAAAAAAAAAAAAAAAAAAAACfFy7L5PVRhUWlVovnX0b5v2zPXZk1NPwo+aX3dHh9M0Xj6Wa531dvKaugDOgAAAAAAAAAAAAAAAAAAAAAAACtLDj8azYmChW/eK2cSAmgACISIhIiEgiSIyAAAAAAAAAAAAAAAK8d1uf4vTByPL6etRzqu/DudrJaz1edgduYAAAAKB5E9YCgAB5U9QCgAAAAAAAAAGT1nE3kt5fK1O51fnXpTY9X5N1V2HG8l0UQ1Mlx0dd7zI9jtTzeZK/2SeT1hLIiZSIgEWMQMQMQMAAFAKAKACUQJEQkRCQAEZHN4mrly3jLO/wATx+msrs83ejX5Lr+zy9TN6jMfQ8k/XH1amQ9XWLIFHQOauz4zidH1+u3g+z2+iMfd25JR6IeqXtkY89WHH41mxjhK9N/H57GthxvP1ziQ1LPmvRst6Zu69Hrxb/Lfz44m/wDm/wBQXic/uchPRPz3nE98bK4m/wCF3MsnscPrV9aFy0xRJkAmJEhMbSGIRhAmV2UNEMQMQMAAKAFAJAC0Ao4/Y8uWT6WjfHp4PeHbnJLmp73izz+jbrw+708K7PLelseTxdTYGDhpv4/Pq62PG8/XOJXqZmOhuLYyXX7VkvLn0jLxWekKrGQmEZPk635f3z9lIvjp1zqPn30X5p9J6SxHm530PzXjPPA9T43TLSi6GkTTEhiRaIskJgANDFx+zntTy6vFbTRgcwQKm6rBnDv06p4aI6VfM4eptuHw/fZoPB4vGdHj+/m6bp+Lz8ddU5PF1NgYOGm/zPAu566R5avl/RqlofX9X52R83Y92dczr9uXTHNl0nl4LvSFU5AmEAEAACkRAAAAK83xD7n8Z7Z+zz4va46Kraj5x9J+a/Sukz/E2/IOf5u/NKc3qPMZbQer0Gd23I6+KgMbQ0AKSxhoMBS4/QsvGSrP6HO7nM2uL2djA53O3dPmdJZ5adAmV9kujpwuvVzj3S4cK1BkYnc8i68cOGqkZHl/RvLy6Zvu5LYded8+k+evBd6Q8vzr6V826T6VZGXO4vv5Xa7nqAxoAzAAAKAIAAAEMEAAAAEfmf07511no3nzf6RBVbVi/NvpfzT6X0kwXKgmohDBAClABDQJkWNGowiZrhy23bOK9/e8UdnjZznWaHafJPefTF8b559f4uJ69dOFCsnFSPf183KXWTyDl2V2HI3ksCH0B/PQ+hR+fBs8WVamt7nxbtn04+dmbv8A5tfmN5+1z+cPOrN38c0Op9JPnCzfpB83I+kVfO7a38cDKNyYgNkZENZHLyNLXnrDuLiOOscwOhHyM9OT0nO3Mru8HrNT31+yvnrBbPKdXpnqx8ujxri196yM4aNRnDRi5xaQM2tKjN63z+7K0DnqYS1FGcD5/wDQfnv0Pplxmc9eXN63PbnA0HL2mpwLO2YvHn1Wct9MOaumHNOkHOOkHOOiHOfQDwHvDwP3B4T3BwcZ9Px+5pHx9Lm87599N+bbn0CXplzvzXfYb6Jued+kxfMvUHmfoDznoDzu8KC8KC8ikuRU7AqdgtZYFfk91KfOfd5zvj6HVfVw3837fC7Pox2u1Xbw2lMygSFiSREkpUpBFtACi0T1HCcE+e/RPnv0LpJCfPRntBn9Tl7TF7TUYHOgAAA0AwAAAAAABQCgCjzelJ82+k5Y6Z0vzb6T82l+ltLF+ffQ/nn0XcAMaAMgAAEAAAAAcZRAAAATBQnG355GXc7Y0ZndHyvzPTZnr986PrZjT8dCaxpoQ0wQEqGgTQARNp6jhOFnz76H87+h7kk3z0s9os7qczaYzaagBzoAAAAA0wAAAAAAUAoAoAPP8++k4TWdr832uK3PpalTy1g/onz/AOgagBz0AIAKAIAAACbIkogAAAhoaYvz7XcX2dc5vffPfoB8z0HF3upztEnx0hOUBAIVqLgIqSaSWSAsaNRwnCz5/wDQvn30DcsEc9Gf0Ge1OZtMXtNRifOgAAAASQAAAAAABaAUAAAHP6FSYHx2Q74+mc3pcLjvk7XLamwA56AAAQAAAAAcZEQAABkQYrWmRyOBrcL1z7+t78SnP1Ga0+1Wu4nX5akoLlqQkAAmIE1AANxR6WG4RlGz599D+d/RNxg+eo5/RZ3U5m0xmz1BoxpgQAINAxoAAAAAAAAUAoAoTD5x5u9ku/P65ltTiuWu33ed0ZQDNAJABQBAAABNAAADEAqApgRTgPoXzvpn6D84+k44zulx2s657XV8Xu8/QAxUACYIAE0CagTR6gNwhOFnz/6F8++gbk3E56ef0Ge1OZtMVtdRpnOgAAAAA0MTAAAAAAAAFAKAK4/yz698r64+vYLe4DN3PppuzQCADIAAAAAAEAAA00AhQbRCFXzn6Lg9zceGdub8m1GM+h+jnfoOf0PPsTMaQxBAogBBCAAA9InuEZQs+ffQ/nn0TcYznpZ7QZ7c5u0xe1sTRjTE5AAAYgAaYAAAAAAKAUAUAJ5vl31P4/0z9iwG+wMv0CyMsUAlAJAAAQwAaZEaBpiABNiTioCDM6bnWcvvYzZ18tvr8Hox9Q6XA7/l2mGdCTEmgTQAQAAmj0pm4ozgmA+g/PfoPSSaOenn9Bn9TmbTFbSwGY0mnQBIADExoAEwAAAAFAAAoAsp+Z/Tfm3SfR8D9A+fn0OSfOgGaAIAAAAANMiAA0CatkghJgkAef0VJgt3gt70nzjV5TS6nj2Xzj6Fi2oOW0AIAAAABCgAPQBuShKCfPvofzz6J0jT8mL68bzvH1nb2mK2mK2jNaHIAAAABJIGAAAAAAAAAKAFXzb6T8265+kYHeYSvoTDlQCAAAAAAAE0AAArWJwJoQAhoITR883mG2/TPzvd/PvoFlGc0uYl3a43V5bsVaysKlF552XFAXOiRaVzPUJ9IoTinz/6DlvL1k+b3+webnabg5czZ4zaAgxoYhgIAAAAAwQwAAAAAFAEACr5t9J+bdZ9AyGj5FbEDjQAAAAAEMAEAAhgKACUkIAQAAGN7FfK6ZyuwzWl3KO/yu9x18733gyNfQwOOkNCAlEwSZACOg4vtliZTD1JK7Glee0Gb3OdtsFvbGh89IaBopgSNDEAAAxMAAAAAALQCqvmv0r5tvOofi7J2QOWgBAAE0AANMQIaC1pkIAFKImIAEIuuXy4fc4LpPPscd7t50PYxm15br4egq5sRus14Os2YHDaAAAE0AiOih9soaGgJCYszp8zqcT6D8/31jkjGmRYDSDTAAGmJiGgGAAAAAAABV82+k/Nus6GwxO8PQByoAAMQIAAaYgBADAVDQgEQCicBQazavn/ANC+f9M+T10fRdzGbUOOhBi05rVUamU2OV83RswOGhCACAA9zidpMi0BggB5rSYrcq3eH3NCZzo0DE0AAAAAYmIAaAYmCYAAAFXzX6V817T1b/5/9CiwDlQAAAQAADTEmhoagmCcRoBDiKAZqTRHB7zLbmd+kfKPrGowOGkmgAKM9qKaxe34Wc65+gqq3hsGCGj3KR1kWEMTsabI/LN/887Z0e1xe0xZGe60epU2RYuH1avcSJHnmWlVR6ivk13Dyc87L8frhiIYAAAAVfNfpXzTtPV9E+d/RcvB6OP4U0XsyfYW73/P+5Zo1n/Zi9VYjr7aB53hRv8An53z2bjzZ+063pyvNr6FwerTiv2cas7keVkzfrFbXOkg51cjr+Ovk/2H5L9a65YLhpDQAAnFa+d1Unz3ZTyHbO9OH2+OgDN9ri+smgRHF5e86/k/Oa+k6/e5Xnrr7H5X3Y95zvHXR6eP9tnWsy0q2lfAqzex6sR69TtcmvxWbmjP0S6Tz86it90vnt3O7wwazd+sCG+MCG+MAG5+ae7K9M6j6J84vzfoPLyQevTY5V0evlw1HuxCienyM9NDVww7lfHDWGSUmu9WHF+jYjnxjaRxqXW+TONNF3/nizd+sIZu58mSK5H0b5Zp951ZljlrTRzsrdBXw5nYjyCOoc4Pb5G6zPe4nf3nUNPydPaprrEmGPzf0/ndscHp5rcV5OPsM/m8LWZ7apy11li8o6rOU+oVyjrI5Z1A5h02cs6qOWdQOYdQOW+mHMOmHNOkzmHTRx/mv1j491z9Wt9d3LXOOijnv3h4D3s8C96jxHuR4z3I8J7g8S9YeR+qUviXrivlPSSeZ+kPIemMvnPQHnr9lJ863+C+h9M1lxy1SXBSrSKixrWWIrx1fS7Z8+nL+dAOd9soPrJRkJFSF5mL+i8rrno8TPaKzmbTG7LNkJ4oSiCYMTQUkqaKkhyIABoY0IAGgbQeT4t9o+Hd8/d7qLuOm0oAAaYgQAWjCRKUFBMYKFGUVAIE0KLQAQU3UHz36H88+h9cyaOOnFoQEoBYsE+72zHtuzloAzQTj2Eo9Y5QZOLkkK7C3Kcfc/Oe/PQbHH7DloYs2UoSENA0xpNEBaxMaakAYmgBoABiZ4vg33b4F6MfoW+i/htpqAGIGJNABaShIimgAhqUSKalAYoyhAgBhC899B8/+hfPPonXMgOOlFoAYsT0Kes9XcLOdGGaIIQB73CXWIlEJRZJMSGR2GZ3nw7X5P8AV9Gpx56TUhpSECHKDGmICFbi0AAAVoaIGJoOV8D+7/B/Tj9Fenxezz7YnCBDaFIyQgBgCBUA4aFJFCVtNSEoQCYAojTbUfPvonzv6L1y01x0kwPF7fnu5PbU+wGPnoTiAnAAeti6ybhMSnGhxZLN6TPaz86+sYTs9M7BxfHacoEnF04tkWiHKLRDFTRUkEiaLW05EAABn/in2T5J6cfbupxO3w2OMskNKmnTQJFoVgQRaATSUJwlimhtNYxlGEwCMoQqraj579G+c/RuuRNcdABnvNxt12zcw4bGAkEAAAq6EHLpK5ISZGZAnG04Xc4Os8aNnm6438q58NziNUANxkClEHF1JAgmSqUZIlKINFsk1IArcp8y+jYP0c/pmiy2p47GniuLSAFrTQgUSAEnEJRkEXEiBLJNEYyjAxihKEFdlZ89+ifO/ofXLA46M1pcB0nc0FN+aNPFE4iYQMVBFx7J1vrLISZBoSwjIhn9Fndzl+X1Udc7mym7jpTzppolmPSd8zF5oTl8k1Dz3ms1UvPfiiZKpIBSijBWsBEiUuFymm4np56nYYfccdDj5831Lh+uugcuk7i5fKrTvke3L1PN6IcZRlJRkEJQVA8wUoCQK2iIxaCuyB88+hfPfoXTMgfLXJ4ni2XbPoYcNsAUWAwBChSTPZGyHWOdbJwmkjKLWec0ee3nlQuv6Z7/ALuB3+esV7un6N5yD13Kq3xWdJcr2fT6EfC02ejVFNvPUgZECWSTsQiVyhJBOK/P+Z0ed6efW3uA+gctGd0Pgzb+Mejc88b6j0eP3NOMdyg8XX5vTj3Jx57coSCE65Rpw4SgIAknGIoB12VHz36D8++g9MzrsyeLzN3yexQ1LnpJxAGA4gIGBHtcJdZEnAlOqYRshRw+5wdZ53S5eh1ONrMRtZZxkYsWgnFsiJkhMi0xkJiUkKcJBGUQnFhC2qvnvP8Ad4vRz6P0L559D5aEHPUk1SE4YBFMhtFKLUpOErFCcJVKModc4CaY4ShCGh1XUHz76D8++hdMz+f7bH1srU+O20IkEoxiQQAxJxPXIj1zaRmtbcUscJlef0ec1Odq8lsNTF7jC7mpzrnz0lKIThIFKIpRkOE4BOLJRaE4skmqAIcZKvnHj9fm9HP2fRfnX0TloTOdcotYpxiZGVRBI5RaxTjDlGVsYSjk3GQVzrG0whKEDjKCm6g+f/Qvnn0PrnId7Kbi2xp8NNONiByg4iYhjRFpnvrsXSQnBlkJBCdbSzOaLO7nM1+R1tmJ3eB39EoPlqxKVRAJCZFoJoZEQSBkGBIjJIgLKLK+bUX0+jn6Po/zn6Ny0gXLUnCdRTUNp1FNDacRjKI2pWwi1BJERjOA2pRGEog04VN1J8+3eE6/ox5NtzOpy0STxpRlGBjCEojBwIiEkz1zqfSShOsm6pgrIBw+3xN552qyusrC73B7rUsjZXy3KVdliUoEpQmJTrHOExRnAcoTEnEc67CKAEFfOKravRz9H0X539C56kpR5acoTIxlEcoyIxlGVzhNK4yiSaaxhKMSAIxahtMgmhgRGm2o+fX+f0evnuLU/J1bBIoJWxCABiEhgwi9Sr3LXXZUG4xYKVkOF389t4NhjNrZgdxhttqeyJLlqqcQtiwhKLJxZScWTjKANBOMohKDJRlEIOFnz2m/z+jHr+gfP97z1fFrlonXYRjKIThOIwnAlKEiEZRiUou2CcYmISCaiQ0sUIkmojVbWfKNpgPrPp5+sH5erTjSacOMoDAhxlAGME4nrg3uQnBlkZBGyqdTzekzmpzNtitnqYTZ47Zanosps5bIWQJTqnYlKMspQnZBiSbhNYAksQLEBJxYsa7KLMF5/T5u+PXucbq+eulXOHPROEwrnAc67CMJ1yynCZWnFJNMrTUSHGWABJSgJDGnGFVZ56+a/TPlP1jtmcoy8+yEohJMSCBp0otEgISaX0SgazKNkac6rKSnAlwe7w955mvyWtrG6zMaLc9kkcdWwkFc4MtrsjUbKpjhZALKphGcBzrmRUokpRZDxe7lWZbw9Tl989nt8v18ro4WQxqM4SHCcAnXNVCcIlKEytOJMTSsDKcZRWABKE4ClGUEJRDN6TCdJxfqPzv6HqWNPjqKCVsREYNNEWpQBEBxX0RshvNjrsINxLoN1Didvg7nh1uQ2VZTp+C650ULa+e3OuwgSgljhYVMRdBlQlFxOE4UTrmEZQJShMjw+5nNTwcXQcDrnTV+zl87s4sxqEoSidVldFlc5VCdZKdcyMJRiQCVtNZRlAi4yh12QgcZihKIfPd9hO2aPofz36DLaC5WIOVxlAYOBEQkMUQpxlCX2Qct5hOAW12RpWVTDPaPN6nP22I22pnvL0+PZskp89VTiyddsKjbTZK4WVE51WJAcS1KVVyiRZCyulZVYGU1mM1PVm9Xk+mdvmtZjc36CBy1W0yyq2qlZVZKV2Vw5wlZBOMs00lcouWULKyMlIUJRhtMigOF5ufqO2cT9B+ffQpZxlDjoakEXCHJOlFokBEWnRXKMvqlB6zKFkCU6rarbgXZ3Q8Hc5Wzxuxs8eY12P3NtbRbx3GNtaWOFlVNBbXZEjOuauFtQ7KrLIKUIui3VUouLMLuvn/SaPHbjDan0LEbnDx9AnXZy1UILa7K6jZXPNddlQ5xkVppJAog4zV12VinGURjKJITIJxXCbXE7frnBfQfnv0MnCUeOiSZFMGCE4yHFqAGVpqX1RnDebCM6qsiRbXNaLidnjanN1uT1dkcbscbqbeUZct21WRsVlNkpC2mrZV2pS0F1VkahbVOUhbUTlXYlYBZ88+h/O+k2eC32A1Po+E3mDl39lVvK1DiXVyiRnXOHXZUspRklaalsi4kJRkSqsrCcJxGLRJNEOd0cnuGn8nrjAfQ/nn0PcaDjtsRCUZDjKENqQosoZCIg5fXCRvMLK2ThZAlOuyquH3uBueHXY7Z2efFbXFWb2NlfPdkq7KqYRbXONisqsVRnXFjjOymcQuqsrpW1WywjOCWfPPoPz7pNpgPoHz+z6Tgd/8APl+g2028rXGcSyLRCdc5ZVW0kpwmVoUWRlAjKMgrsriTjIgJkoygLDbjB9ZuCyvlfn/0T539E6wE+OpRlEjOMyMWiTShNOnVbVKNOPRKue8kZwLEp1VbALc3pM5uc7a4na2UYjdYfU3qjPlqFtM1lCysnKu2qZJpbTbWpbTaVqcEugwrsqsiVVtdP5/v/n/Sbb5/9B+fWfSvn30H56u/v89/KxhOssEyucHLOq2qHZXYVICyDiRnCcKE4DaZBpkoSgQw2p5HWamu2rjrAfQvnv0LtltPhpwlAk06iDHCcIJJkYSirBReTr3m2LZCyqY42Vlmf73E6Tk7PH66p4PeYLU3N/l9XLVUiJdXOKK2mwUZ1rclKyqyuUTpvpWc67bKWiLqrarVgN7gd53Xzz6H881PpXz36F8+l3fo83o511W1SzcZJVOEidVtKuyuyKkBZXZWKcJwoSiTQiEozCuysyvZzWy7Zsrsr47wH0H599A65nKE+OooCSaIyjKCMojaZWmpWmj11zW8qdVglKBdAlUON2ONqc7V5TV1bg9zh9TZeryennqdV1ROVdqUziLdTdUOyq0qbiXVWQqN1NsVkoWXQaKsFu8H0m8+d/RfnSfSMDvcJLtvR5fTjU6baolOEypxlJZTbVaWV2RUJllVlYThOIRlEmpQIzhNVCdcYbcYbd9skJw46+f/AED5/wDQOuZyRy1EGOMoQ5RkRE6acIQEqAPS4S3mEiK2wkIrKbCPD72f6Tw63I7AhjdljdTXXVWYt0G5a7/PcRjOsuSaV21WK67aS0jOqrK5RKu2oscZWebCbvCbm++c/RvnOp9HxWzymb3+hyOtjU6rqMpyhOqmiS2m2pSyuwqaZOuyuFOEyMWicZQFKMyNVlK4nd4fcdMkWuWvn30D5/8AQO2bAXHUZRlBFqpARFqQQlFYsIixlkktS2uyFkpVWlc4hZndFndznbXE7WqsjsMnZprfF7812VWS1TSi2q6qpTpvKZJRdTdVTsqtSpoW6m2sLKrTy4TdYbpnf/OPo3znU+iZ3RcTFn287oZbabqc12VWlQjK2uVdOyqwrcSLK7K6JwnEEEs4TrsJwmV+L28quLr8zpdRxlHnr599A+f/AEDtm2Ljw0SjIihrKMoISTIxaUTjDaZ6Kra9SbhZZVbW5Z1212T4Pc4m5y9ljtfUsvqs3Hq7Wd0VQtpniuFtJch1VfRZBC2kuiOq7/PdChOsuiFQtpujxYvX5Xrnb/OPo3znU+ic3pePnrj6bJawuqtqzVdTZFYEWVW01Kdc4rAJ12V05RlFbTllXZXY5wkQ4fbzupb3uR1llXZXi/P/AKD8++g9czhKPHUgCLUqIyjDZEiJyiAYBelLeYWVSllCystSlZDi9jj7nO1mU1NX8Lt86Xj6zGbGyI487dVZCi2i4qklF9F1Ok5+e+KrK2W02Ul7qnVdtMo5vC6vP651Xzn6J87s+h1yOWshssRtty+ucOelZTcVpqLK7KwnCRAAnXZUScZEHGUsq5wJNBHK6nI9M93o+P2YsqrKpcD9B+e/Qu2ZRa47kmpFKMiIBKE6gacqExposnXKwJQq2DdkbKrCHE7vA1PFq8nrdH57o5ZDaYna7llVtPLVpCdV20TiUXWXU2+dfJ1OT1caiC3i2ucByrsK2mcGpejrnsfPvoPz6voDT5axO3w+36S1C5VWUzJRUS+CgTnVYQcXLZVOuybTK5RlK65xJAiOM2eK6Z1t9V2NOq6mMB9C+ffQuuQT5alCUYbTIuIpEIBoGmIAsJQ1LIyQrK7CuSRZntFnemfBscZs6rRDncjscZsuubYhy0rKrCDFLZXZXZOqcF8PU5fSxqUJ17xYCI2VWERwMv1eJoeufX8++gfPz6Aw5aw+5wu66SYLnYWVzlSaJRlEUoyiDRVlcoRKdbCVbLIJFsSI8TtcR1zsrqbeerPNfQYL6H88+hdsjjLjpxcIsRBQjKEmDTiNpiEz0VWw1CddhVZBk65QLc/3OJuczYY/X2FdlXPWP2eL2nbE5Qnx3CdciULKyaZZGLjL4+h4PbnVtdle8SnXIhOEwhOsxusx+y65eA32BPoIPjvC7nC7rrmbi+WoyhIItEk0KUZRAAlCcBtBFpqJolGUQxO2xHTOytpu56dVtJg/oHz/AH/XDlF8diAaaBpiFIEIkCBxkWilqVziDhOuWQNFxezxdznazKavSVdtXO43aYrbdsK2qfHaHAurnAc67LK4Srl8/t8Xtzq2DW8Kyqxa5IidVdlmI2uK23XMcBvsCfQ048d4bc4bcdc2OMuWoSiwjKJyfVnPb2zop5f04vcORzzTrwe/FkmpYtSEgiUZQp4jb4nrjYXUX8tlVtRg9/gN/wBcNp8doAcZIGIUkxADjJA0ybgUKUIsiFDjIXF7XD3nw6rH6jU9cfNDnrL9Lk1+vlpuvku5x31K+dDF7C46rsT4IdunkUR1vdlr10jy7udJZkxdSstVUe7hfZ3xfuflWky1uB92YPrZjVy1Ttvluh652ssTLlrYvFutnHGxj3enlR6T3enjyO1yKg73Wxkc3bGKWW0liGbQxIbdYqJt8XHkbn0P14K3N21eLUUb75t0uk3Lwxzu4eFZuVh4m7WFDdPBhuzCBvFltRz1JNZs4SiSjJA4zqE4seU1fO1MF19D0OucdZrJZfPOvoPVpl/Lts+UR7mR1OrNU0/TzfUegdcXrw9M8ft5cq6NlPd5XkPsQzedHqozXV91lcnkapHgXU88Y/Q9GWp4JeqWb4Je+UvOj0oHiXSRzZ+6RzJe6k8696k8a6CXny9Vpzz3C+Je+J46umk8E/XJfC/WzxHtiedetHlfpceQ9LPOvUjzv0I807ZFNqcNAThONDjKIyixpxLISVKcWRnFgpRJ5nTR3nPw0ctTk5vb1Vm69XM5vn7sM3ievpMzk+7Ozj9cjjVkJQynVZXXL9/E7O54rCCeryezyL6vbUYud6PN9vbMJeGqws9vC07fewW95XkWZ737dKn18zF9vP8AR4dT3HPq1F3uVST6mV0YdzEbflqUZR5aJIE0wQDTQMBNMQIkmgaYmmITJIBSiwUok4tU3GRGUZCHEnCcSWc0Wa6Z7vly3b3OrLlV5e3q4Xck4yOWlKEyEoyojKBZFxglFVTR6yvEe5V5PRbCLJV0xfPzXidHhrrR8Ej3quuLp18muu6bZZRqC5R8p7JcXppY4Es1TYWRp5lnaK4S3OlFzXHs7K5nvW0qhF7qCwo8NnWVUpZkKy6VSLHVbA0ANEoyiNxlUZwkIaiUZRqcRi8PtnZ5fL0meVeyByevOFOUZZQnCaxBE4Tgk4sF5vRKsb6Owu2OC+9FeNVoYp78xoaZrJ+/pW6zz+b3rDwcfuW1zvL36F50uv5ZONLu2lfkt9Evk8nbIyc+7VuU9Gbxed4Ol7dORPoxPNntJFJcvv8Anl7WT0nIzeD27/L0lHg6Hss8for6WXN5OivPdxPc+eq/D0vDqcj2didcvTc7p87BNc9NNDFIjKMiLESjKJOLKUoyIThIARKMokgZGcJpCSYRtrJwthSZMqnC2KmwK76iULIkWSK2SWKnEcZQJAClCQhOHFolGURgCaYgBpoaaBpkZJipuVBJRCYClGRFpgmiSnEc4ln/xAA3EAAABQMCAwcDBAIDAQADAAAAAQIDMQQFMkFCBhETEBIUFSE0NiAiNSMkJTAzQBZDUCZGYHD/2gAIAQEAAQUC/wD6zwx+im5n1rpU1SkLpavqnV1636DvtottRXm1XNmpTdZUlTJpaxa3v/0isqjZcYrWnO1aiSlJkpPZS95HDj7Rs0NwpqVNxoaakWk65BWao/G//kouZG3VJfRca7/wDMiJ25UbQd4ioEDz15weKvLwo2bj4n/wVmSUpM3FqQSg2t5gM17azubn22tfeY/8BjpOKdrHEGl187j49zw1I8VQx+r5kZkknblRtB3iKgQPPXnAdVeXgdLc3R5Iyo2rVRIDbCGx3VGOkYQ3y/8ACubn2kXIuxSSUENklVIrp1v9TDvV+p55tn/QS1UMpqX6NLT97pG6lFyqO5TuXkmU+PqbkVkZUZW2gYTR1FCtzuqMdIwx03gTRAkEO6QU+0h//wAOopUPm4w+yErSr6HsWV9Rp9zosUtPUusudSuuFvW4l+lTUPWGqXUIt1yU75k31KK425L1S8y655e/4lm0VRP0dTcaxaq20POqdpU1DtkuqDqmX+o5WUnUp636zMiJ25UbQd4hoEDz15wHVXl4XNy5U5JtNM46xQW3qNJp0JaUT6UvNeGpS/8ApEtFyudKp+nffZUVW86urpHX26q3oqnFHdDbtybwTbjie+h2maprvrrrqUkCGoL/AHH6Vp4OUzzIQrvpC1pIrUauipJKSigqu5UU1QmpoqZTJ0tC41Y6qhddsd1StV0p6aoOqt1MumDVC4mkqqFx2x3GmXUippnyqKRuoSqloXGrG7QrXbl01WoUlM6l8GZETtxo2g7xFQIHnrzgOqvLwOlubo8kZUbdqokBthDY7qjHSMcStfs7QnxFOTSjbWXeRQErxbRONsWUjTekxVoeWh47hVMvUrrDtK0+5UsN1tGCty/L+pcHVOmpLVQq4u1jC3FsnJzrrrrppppoYMH/ALFze6bDXeUSKF1YapGWvoUpKQSiUXYptCl/UZkRO3GjaDvENAgeevOA6q8vA6W5ujyRpRt2qiQG2ENjuqMdIwTIJoh3CHd9ddb+33qHhJ7nTa66qFIf/wBOmCBAoKCjTbt2nBwcHBgwYMHJzrru111NRJJtaXEguwv9FbDa3CLl9NdUdBHT759w2jo3+uyF1DTau+nuu3KiaDvENAgeevODxV6eB0t0dHkjSjbtVEgNsIbHdUCaMdEE0Q7hDl/RrXo77PC7vTuOuurgpfkqQUtvNLcW820ZBl5t0KqGW1XSpVSW9S0toZcQ6go0LHbt27SkpIECBAoKCi6q5W7htX8Rppppp9Sj7qWHUvMhdyYbrkPNuOnXJ6LNZUPs1VZUUaC9fruXuuxNa9Sq8VengakoCLaxWk3aqJAbYQ2O6owTRgmQTRDuEO7/AEn2GDBgw+X2kfhbqkHOrkUvyRIvqnE0q6GsQdZSmqvddS5bUU9KxXESHCWs18H3HpKq7WakXkpKSCQQIFGmmmm3Q4ODF69hw1+NB9ilJSHFpQhCiWgVNZ3aiprWmHaSqbqkXGpOlYZOtbqOs+7YaunS3b3UIbvTZ9K/UhpeuNu6j3D7bS3LdS95ukRXMKW7cqNoO8RUKB5684PFXp4HSXN0M2zpDqKQOt1FU7Job6Ri+tpRbLM2XlvcId3+4wYMGDBgw5jd2v5G0vde3mDD0UvyQg+0h5CLY0h2roW6h3wLBU1NQt07vljKXvLGfLqyiRUrp6Bpiq3bt27du3HJycnOuuuut69jwz+O111uzREmtUVQpqs6lwvyjTQXmmYp2HlLXdbWfTvF1p1v05VVRUPsUa0oRSn5Y/RtOU1Su19E75bKceevODxV6eBU9yUdZVEyKW329TbbCGx3VGOkYJkE0QWgu7S/I0wOKVcrZbk92k/0DBwcGDg4XjeEEV44WcMqc4MO4U3yTaqFAwYMKCgoGFScnKpOTk5KSkpIVVwpqR1h1t5JAgQvHsOGfxxAgQdYZeOiZPqN251t59lFQwdqJxqqo6Z4eLt1KHeIqFA89ecHir08DpLm6PJGlG1aqJAbYQ2O6ox0jHRD7BKS5SP25y2V7Nez9DmNL8lTA4tP9nTlyR/XpoNNNNNNNNDjicu4KE/DcQbdHcKX5GWB4njtPE8TxPE8TxPE4ODxODxONu3btqHaapqnLO0Sieu9GVPf6ZRtPNvN3n2HDX43TQzJKXbjRtB3iGhQPPXnAdVenQdJc3R5Iyo27VRIDbCGx3VAmjHRHSIEghy+gyDjYuFEtt21XBFex2uY0vyRMDib7nmsfp6iB1EA3miHiGR4hkeMph4ymB1tKReYUY8wox5lRDzOhB3ShIvNqAebUAO828edW/kd6t/dvtwo6uiqK1rrefW8i8/t/Jd+oDQxcGEXguIKEknxFQ8v+R0XL/kdFy/5LR8v+S0fL/klMZf8iZ5f8iZ5f8gLl5/6efGZeeO8vPHeVI8dRS7SxOTk5UKf5SpsjCmjFQwh0nLO0S61VzZprTXVbNI7crwoOu3lweCq3DapnUBt2ubHXvA614HfvBjv3kdS8jvXod+9jne1D+cH82O5ex3L2OleTHQu46F3HhbmPCXMHRV4qqSpohTU9XUMeW1Y8tqwu21PJqkUq5lanR5QZitounXFZyMvI2R5GyPIqUx5BRjyGjHkVEPI6IFZKIh5LQjySiHk1CPJqEFZ6Eh5RQDyigHldDy8rogVsoh5dRjy6jBUFJy8BSgqGlFwpGfCIZS7Y7U2y9QeGZ5HTNd1okpvFYkqlhFNXdckAkAu8C7wLvAiUCJYIlgiUCSoElQSlXNoJkpKSkpMUnyhM693mZtkZ3dvlSWFJqoTYUZlTGPDgmPXomOkY6RjpGOkY6JjojpDojojojojojojojojojog2Q/TFyov425dEh0SDjRd2mT/APQpaLkbRCtT3uI0tFy6RDpEOkQ6RDpEOkQ6ZDpkOmQ6ZDpkOmQ6Zcu4Q7hcu4XIkFyJBciQXIkFyJJciSQJJcnkEaOH0kqk4XPupSRBRfbSfJG1NVTzb7rLpF6pL1IvUi9SL7iL7iL7uX3buX3bt2/fu2liUHjSfJ04lBQUXj2HDP44gQIF/qKLmLzReJprFW+Mow5jS/JEwcH9/FKY/vKCguwgQIEFxav07wwfheJSC4ZT3+IKeyfa0jpo3bt+/ceR5HkeRycqlUqCgoGFByKX5RocHBxevYcNfjdNNNNP9N5Po4ryu8EHMaX5ImFRR/fxIUf3ECBAgQIECBAx/i4n4hI2VtKJROBpfTv9MVwqW7bUrqGtx5HKpUFBQVCgqFQeJ4nieJTu3Kml+UlOpyc3v2PDX44GDBg+zTT/AEbvSeJpeHqvxNC5jS/JUwuLL913L+8gQIECBDXXU5vH6V3vDPXoeHX+tbXQ0Rq4gSw9TFTUNXTqOVBQVCoVieJ47Nm0sSxTimChMJjbR/J0AgUlN59jwz+O11111/1HU+jZ+X39zGl+SphyOGvud/t0BAuwgQ111114pTyp+ZLasJ+HuLsJ7/ntAi3HQWXveCVB4njt2bSxLFMJhISEymSyVBwcLwpfk5Y6FBRePx/DP44gQIFOuuuv+iccR0/fo6Go8VQUvyVMPnyRwmX7P+4gQLsIa6666nPEbfettqX1bZcP2l7dwpvka6SncPZt27SxTimEhITJSWRH927ceW7ccrFN8oCgcHF69hw1+N00KCggQLt11/vqUEtHDizbTS/JURcVd2i4XTytv9xAgXZrrrrqcmLkjqUvDC+9a+Iqfq0FBUeJtqF9O+suXV5i0eY9QsUwR+iTCTBSU7uf3HkcnKpUFQkJCZMUnygp11Ob17Hhr8cYMHGmmmhAv9JZfav9txHSfJERe1d22cPJ7ts/uLt11111MGDD+PDX6a6lJKb4fWbJskar+VLce5aXHF0yTBApKd27ceRyYUFQcHjtPGEwnZR/J0QkENbz7Hhn8frqcmDBg4Gmn+gccSF03KL5GmOJFcrTZ092g/s0IF26666mDBhUO4W/9LiBRc0V/wCzu7S+ne6WkcqmLU8t1lMllu3HkqVBQODjbtLEoTByqVBzGm+T7dCgovH4/hn8cQKdddde0/8AS4kb79usi+pdkxxWrlbqFPdp/wCzQECGuuupyYMKg4VhUfpcSJwvtP1qGyvdS5pRREKHoJa3bjyVKgqDg8du0oTCQmSlMlluXNL8oCgqDi8+w4a/GlBQQIENddf9O5N9Sm4a/IJjiv1YZx/s0BdmuuupgwcHGm2/fp1TWNQXNFvJuluhVlkFkI00x5KlQVCoPHaWJQkJBTu3HlCUwmNKT5Qmd245vXsOG/xpwcaFBQQLs111/wBCp/x2ZPTvKceIvurGsf7CgF2a66gwqDjbtLHiZHet9CvqU7kV6lM3Zior300dT4ltUqCoPHaWKYSEyU7jyPJUqCgcHifoik+ToxSCBTevY8M/j9QYONNCggXZrr/e/hSn3OIk43b7743j/YQLs1111MGDBxtTCBekd+38Pr79tcBtk7e7LXopW6JltmnXB47SxTCQmSnceSslSqFRt3HkqXIpvk+2ElBRePYcM/jinXU5MHGmmhAv9F7BwzTxEjCp+7idEf2F2666mDBwcbUwkJmqR32+FF/s3R3VKvnVRRVNnSpNGrHYWKYQEzuPJWSpVCsTxLFMJCZLJU0vygKCoOLz+P4Z/GpghrrrqYMadhf6DuFP8iTgj7+KEx/YQIa66nIVBxtLFEJBZOzYf07i9FP8iuNMVRTcPVJqp9qYQEyWW88lSoKxPHaUICZhMJTGlJ8oTO45MXr2HDf43QoKCBTrrqYP/Scxpfkmy3ffxAX9pAhrrqYMKg4KEwkJne5LP6PEz2FP8jrlK8wuJKoa5laXGkhMlkeSslBUHjtLFATJZb1SqFQr0RR/J0QQKd3EFYy0xw1+OMHGhQUENddQYP8A0HMaX5LssX3XEo/sIENddVBUHG0oRCZ3Hkubl+lfXP8AHTfI10yHXqthLzPD76qd5M7zyUfqowZ+nP7dqT9Egstx5Kkstxy5FN8n2l6JffapWnLjV3BTtuapqThn2GpyYONCgoIa66/6DmNL8lPDhf7k/wBpAhrqYUFQcaJhILLerJY4n+wjPmylzpXu21KaukVUkmqu9KpQtdcmtpjP7jP1MHGhAgQKdTP1MwqEwkFKppvlBn6V17T327at9bbXJF1R3bfwz+OKddTBg40KC7NdQf8Ac5jS/JX1d1jhRP7D+0gQ11OVBWOhYoCZ3HkuVxxKjvW2gX1La5+To0KZpXahFfVOp9Xu9aq5C0uIMHGhAgU6nJgwcA/RMJTGjFH3btc6SorKqlpW6dJNAy9L17Dhr8amEgp11MHGmhAhrr/c5jS/Jbkru27hlPK2f0mDgECBTu3GFQcFCYSCy3qlYVjdkdS32BzvWlhRIvzR1lW0l2opXzmqZStNI8q1VMp0IECnU5MHGmhBUqCsdpI9Cb5hCfXcc3v2PDR/xuhQmCGupgwY0IENddf7HMKX5LfFd21WFPdtv166mDGhAgU6nkYVGhQmEzvPJQXB4verfDZ91hlJLv1uQ+yVQw7UVhhZcyraZD7Nsq10bxAhrqYMHGhQQKU5b1SsHEJKEgpvfs+Fz/ZmDjQoIa66mDgEC7Nf7HMKX5LxIrlabUXdovr11MGNCBAhqcqCo0TCQWW9UrCsdqsbX+nd2S719WlhKmKKs8QYOFFzTX0aKpm1Vy2XddTBg40IENdUQkFlvVKgcaJi9ey4V9rqYVGhQUENdTBwNC7Nf63MKX5LxSr+OpU91v69dTBjQgQKdTlUHGiYSCy3KC4PHTRf6XETZoK+FUW5k2LyRvnGhQaeYuNEmpRa69aXjBg40IENTkweMJTCQWR5KlUHjevYcLe0TO45UDjQoIa6g+zQuzX+pzCl+S8TfclnH6S7NdTBjQgQ13HKoOChEJnccrCsdCgXn9O50vyHQ40KCBS4nmLlRJqUW64rS5oUECnU5MHCpXB+iS9EoCZ3nkoX0+VDwyX7FMJBZamDjQoIa6g47C7Nf6XcaX5LfPuuLWP166mDGhdm7cYVGiYSCyPNYVB4lCRrxOn9vRH3r7t0KCBTuMOJ5lX0SKpqhuDlI4n1BDU5MaaF6qP1UuVRCUwkFkeXFDndoeHPYbUwkFOpg40KCGupg+wgXZr/AEO40vySv+6/ox+vXUwY0IENdxhUaFCRuPJwKx2phM7uIUd6gsiu/ctmhQU6nJg4UnmmqpkPtsVD9pcacQ6k5MaFBBEIErVksKxL0SmEzxI54iu4b9iqDgoKCnU5ONCghrqYOAX9bmNN8kX9/E6Iq6pqlbYcJ5lh9LyhW1KKOl7NdTBwCioqUUw16v7mnqUVINxHf0XcmkOUlS3VI3KlwHiUJBSeVzR36fh33xYFBDU5MHGhDlzDrRGS23rW5SVjVYzoUECk/RKfRKAWR5qlUQm4VaKGkYYX4Dhn2BzX1jzL9W+mmp6fqdDmSUuVv7515ppUhZklKXm1pStClNuIcCahlTri0NpKrNV067QVUOopKNw3qQa/W7jTfI6X7uJkxeXe5S09S4VrdqDoTulR4SgvNI6zaKtTj9wpOpT11zqPCUNxaqaG3Vri03Y3F+f1TzSXE1zq7LX0y6dVT1nL2g1t3u3LcbY8TW+dUq3HGC6NGxb2lE9cnF+Ipqd2mXTlUO2KqU+i2phI3HNVhZU9y6owSCnUwcaECGqi9XECponGHbZcW61BDXVcqxhCISNysrlXsUTbTL1yfuKeVv4Z/HFNzpq+pfW933Kas716uhE5VPU7TF6oGG6t+0fam6l1aupYaYvVD+apFNpoLkSmqOqQmovLLLbPEVop2nHqf8ba/wAaXZr9TuNP8jtP3XkoDTCvG1FkMydpku0VZRXCqoqymdU9R0zpPVTCamnvLdam03GmceWxSVCblTUdZTFT25ZWd2jrahfh1eb+GV5vQUy6YeGR4woTS3TxFF4vvV9Op46Zh5LtPRuNWSoo3HbIkEtPeNxHeW4gVD7Rt0akIvaalgklV048XT81VtKSjrqQeOpORXGjBXGjHmNGQO6UXM7pRBd1oeSrlQiuVSOqs92TVDUxK1ZLg/RNTdKSkU/fqZgqm/VNQqmdt7SyvtGLhe6V+ltF4p6OjLiWjB8SUhhu80Sacrhb01dXeqSqaarWUVD9e087T3lDLVXdDqm0VK26yprF1D7NStmmWpxxmsq6msFM9U09TS11ZTBLtclhivuTLHmd0HmF4HmF3HjryY8Zex4y+DxN8MeIvg8Rewpy9cmjrfNE+cD+bH82OV7UO5ex3L2OjeDHQu46F2HhLmHKCvdT4O4mDoK8eArwVurFDy2qHltVzO1Og7U6PKnB5OQKzjyZBmdlZB2RkeR03LyKkBWKkHklHzOy0fPyWjILtFGSWqNpVxRaKMeU0Q8pouflVEQ8roh5XRArbRjy2jHl1JzOgpB4CkBUNKPBUwuCqdpVtp+mgGEAvVR5uCtoac3nmlUztGTVS0inTz7n3XVP7SxF+w+7kXfBd7nyVzMlgyWO6oElQJKh3Vc+6oGlQ7igSFcu4odNQ6ah01DpGOmY6Rjpnz6RjpGOkYJox0Q61yTSH/PJa+3ojojojojojojojogmR0fU2QbPp0fQmQTJDpF3lNEFNFy6Rd1LRcktFz6Zd5TRc1NFy6Rd1LZBLZc+mXeNsgpsuS2y7lKX8+hBDuF3jQQNBcu4XIkkCSQ7pczSQNJcu6XIkkLhXqU7b6BNMEp5A40hKITMrdQRm+xyDzTlvfoX2qqnSXrefZ8OetuMvTl6JL0IvXl9xg4BRrqYONCGup9pDXX6KjCjP+ebw7dQfYUDU5ONEwU7lSqNqITkeSwrEsUgpPJQPFeFJ8hSDlQOCghqcmNCitrnKx2ho0UyCTyBjQguD9EpxQJWv1Oob5Bzv2qopnEus3j2PDXsDCsdEwU7lA4KExrqY0KCGpg+woGo0BCowoz/AJxvDsIa6n2ECGphUaJgp3rCsSxQCyPNYPEoQNypVG1WFL8iIKk40IFJyY00rKty4PUdKinQSeQMaFCQfqtYV6IT6JQCyWXM6pou7QuqtdZdvx/DH4/coKgoTBTqoHBQQ11OAUDUwfYQ11PtqP8AHRn/ACreJ9hdmpg4IENTCoCYTJ5LCsSxQCyVkuNqYTO5QONDxpfkRBUHBQQ1OTjSuq3K92ipkMNknkDBxoQLJMytYViXolALJwu8d0pCqGUVZ1Fm4Z/HJneoHBQmCk5VGhQNTGgKNdT7CBDXtqP8dGf75rE+wgQ1MGCBDccqjRMJk8lhWJYoG9crjakFkeSgeKYVjTfIgcaJBScqGl0rF1DtDSop20p5AwcFBDU5TiiZWuVYl6JRBZVCe8d1QdPVcOl3bemCncoHBQkbjlUaFBTqY0IENTB9hDUHArD5MU58nmcT7NCGpg4CY3HKo2phMnksHimEDeuV4likFkqVRtTChTfItNCghuUDi81507Vro/DtILkDkxoQ1OTCvRKfRKBK1SvEvRKIlV5Z6jNheJyk2phMnkoHBQkbjBwUENTk4BDXU4BAhqfZcT5UafQMYmDgENTBwEgsjlUaJhOR5rG1MJk81g8Uwkb1SeJQkLFP8i26JBScmKyoRTU1rZW+60nkNTGhQU6mNFyrEvRLYL1WqVYl6JbF5L9rZnjbrjx0QCyPJUaJgp3KGhQQ3GDggQ1Ps0IamDF3Plb9lIfNowfYQ1OVQEgsjlUaJhOSsljaiE5HksHimEyeaweKYTLop/kRYFCRuUDirUd0uDCBqcnBQQ1MHGkrXKsS9EtgvVapViWN39glJ+UU7pPMqgoTBZHKo0TBScqjRManJwCjXU4BRrqcXw+VtIv07afOk1OAmCk8lQEwUnkqNEwWSslxtQCyVkuNqILI8lxtTBS6Kf5CnBIKTlQvVZ4Wis9J4emT6A5ONCGpyY0SGxK1yrEvRKBvXKsbx+OtTXVs/DTnfoFA4TCRuUDgoIblA4KCGpg4IENT7CBDUxxCfK1kX2WY+dv1VGhQUnkqAmCk8lRomCyVkuNqBuVkuCxQCyVKoKEjc9FP8hRikblBWLR+ZXRkuQ3KBwUENTGhBMl6JbBeq1yrFPolA3rF69hw/wDi7H+ncNygcJhMnkqNEwUnKo0TBScn2FGoPsIamOJT/iiIWA+ds3KBgoIblRomCk8lRogFkqVwWKBvXK8SxQN6weJQmTyexpvkLeJSeShfqrw9Daabw9MQOTGiRqcnBQQLJeJeiWxK1yr0SnFA33v2PD34pn9LiJsHkqNEwWRyqChI3GDgoIamNCgp1OAUanPFJ/xqS/X4bPnatTBwQIblA4TBSeSo0RBZKleJYoG9cnimEyeaweKYKTyewpfkLcblSqFH4+9MlyLVQ0IFOpjQgUnK8l4p9EtiVrCsUQib17Ph78XcP07yziWSpVBQkblA4TBDVQ0TBScnAIamDgoIbuLD/j0l/IcLn/GFkcqjRI3KBwmCk8lRoiCzVK8SxQN6weKYTKslxtSNypdwpfkKI3KF0qPC0Nhp+nSJByY0SNTBwUENTErXKsU4omVrB+iURd/ZcOfjuIPsdZ/xoFXXPN1/jKom2q+ucaduSW7YVZcRV3Hw9wr6nwpVtxq6RKKyrS01X17qEGpSDgoSNyoCYKTlUFCRrxd7Noud64TP+PKTmpeRTstXNlTlTWNUpUlc1UO1Vxbad8a2ujK8o6h1yW6Nl5DzK7uwEmSm0As1yvFOKJPJY2oBZKlUFikblB3Ck+QoByqLyrxdwp08i1UNCBDU40IamDhsStcn6JRiiT9VriE3b8fw17Dicv2VOrvMpipbedv77NQ3b2nLo1argylnhulpqxDriEu8QVS1EXEn4W5fi7XTVvh9yoCY1MHBQQ3K7ExrxV6pp/z3CXpSpG65/dcKhDS2qX77xdPtqejVUj1G8hTpfI7nWMNXG1OsVTaCraSnt7jTlIiCzXKsUQmVZORtQNy5PFMJk8lQvCk+QpCg8okNWRJvvN+gOVDRI1UNCgpOTGheiWxK3AfolEJyVkvG8fjuGPx9/T3qC1q71BtTS/yNQ112GGujTu27vWkqO4hNN/JV9AmqqbnTeMoqlvrUrNBXttNEokqBwUFJ5KjRI3GDCYKeJfWpp/z/AAx6KSN1dT+Ia8LWVCqqldU9T0z66ldPWMKpqVxL5Uy/NaRhSKiqpOtVm3cmyoabwzCAWa5ViiEyrJcFigb1g8UwUqlUKwpfkJBQ4ifNuhtrBM0+pycECGqo0IamDggvFPoluT9VuRCW4LNc3r8fwz+Nuie/R2BXetyo0QNyhomCyVKoKCk8lRomNygcJgpOTgoIcQetzp/kHD3pXIjcYOEwUqlWJQkHkuNqI3rk8UQnJWS8SxQDyWNqRuVJ4qwpfkQVDx+MvrJci3KGiRqYOCBScmNEheSvRKMUSrNeJeiWxvvfseGvxlSnvMcMHzoVScJhMnkqChI3LjRMblA4TBScqgoSDyVGhRefW9U/yGy/beEQWSgcJhMnkuNEjeuNqI3rB4IhOS8lYphMnkuCxSNyhtPGl+RCrcJmm4ebM2Ug5OCghqoaJGqhoQ1lbkn6IbhPqteSsU4om9+z4c/GO4cM+jW9caIG9QOEwWSpOEwmTlUFCRuVATG5Q0KLl68RU/yG3fbxCnEpVKsShIPJUFCBvXG1A3rB4oBZLlWKYTKslwUJB5KgoPGm+RacSOn4ahaJpnVQOEgpMHBAgcmNCGrYlbghLYlbgP0S3F49nw5+Of8A8di9KtEqyVCYTJ5KgoSDyXGiI3qjREblAwmNygcbav14mpvkVP8AbxMjFMnkrEoSDyVBQgb1xtQN6weKAWaweKILJUqxTBSqVQUKin+Q7V/u7+0XItyhokblDRI1UNCGphPoluT9VuYl6JbB+q3IhN29hw17Coxtf23ZqN6xoiN6homNywcJgslScJgpVKoTBScqjav14lpvkePEycUg8lQUJG9caIG9cbWxvcG1A3rB4oBZLB4pgslA8UhQp/kT7hNU3DzZqaSDk4IEDk4KCBycFBDUwr0SiE+ql5KxRijJeSsbt+P4Z9g6Kb7b83giVZKgoTKslQUIk8lQUJB5LgoSDyXBQkblQeLfrxLS/I6n7eJE4pG9UaIjeuNEDeuNqBvcG1A3uDagbljakblDakLFP8i4ie7lvt7PRp9VDRI1UNEjUxoQKTGjgP0S3ErcEJbBeq1i8fj+Gfxx+p48RF/jbgs1jaiCzWNERvUNERvUNExvXGiY3qCsaP14hpfkly+2+pxTG9caIjesaIjesbWxvcjagb1jagbljakHkuNEhwMfIaw/FXtkvTcoaJB5KgoSNVAoIamND9VuAvRKAea4Ti3J53v2PDX40hUenEWxOKJVkvFMJlWS4TCZVKoTCZVKoTCclScJgslBzG2et5pfkl59LonBMFmsHiiN6xtRG9wbWxvcG1APNcbUA8lwUJB5KgoSHQz8gsZdepQDk4KCk5OCBScnBApMHCQmVZKxTCZXkrFEJyvfs+HPxica30vmh4NxvWNrY3rjREblwUJB5qgoSDyVBQmVS7hZvW40nyTiD0qU4Jgslg4RBZuDaiN7g2oG9wbUA8lwWKZPJUFCZVJwmCl6Kx3pXGxNdOhKVA4SNVDRI1UNEjVQ0SEgslzCW4L1U4IS2Lz7Ph38bsunpc2/ULhOKJVkvFOKclycJgslg4RG9Q0SN64KEA83sLB6v0nyTib0QnBMJlUqhMFmsbURvcG1sb3ILFAPJeJQmVZKxTBSqTxSNz2NxR1LxSlyRuUNEg8lAoIHJwUFJjQhqfoSBKlwWKJVkvFON29lw7+PVhe/SoYDkni3G9Y2oG9cFCJVkqEwnJUnCYLNY0RG9/Hhv1bo/knFPsmz5tFCZVKsUwnJcniiN7g2tg81wWKArJWKYKVSeKQWSxtSNz+LZE7fmMTyOCggcnBQUqGiRqoaENXAmESrJWKITkudt1/H8NewcjiP0bpgea8U4olWSsUQnJY2oG9cFCAeSoTCclScIgsqjHhf2FH8j4nL9hSnzpChAVkrFMJyXJ4oje4NrYPJcFCZVkrFMFksbUDcsaJB5VaiQzYzNy4Ng5OEjVQ0SNVAoIHJwQ1OV5HigFksbWwfqtcXf8dwz7BeXE/sqXEs3J2tje5BYolWS8UQnJYOERvXBQgHkqEwnKtPkzw0XK2UfyPiMv4y3Hzt+iAea4TCZXKsUQWbg2oB5rgsUyqTxSCyWNqRuVBQmVTxC707bZUdO5IChokblQUEDk4IaqGiRqYlSxtbB5rhOKclzefx/DP4/dxOX8fRn+3bB5rxRCclyeKI3rBQgHkvFMFksHCBvXBQibmfKl4dLlaaP5HfS52yznztmiIPNcJhEryViiCzcG1APJcJhMrk8UDcsaJB5KhMFKhxCfVfovzxBQ0SDk4KNVDRI1VGhA5MIk8lYphOS5PBsb717Hhr8aieI/W329XOibgs3BtbCs14pxTkuTxRG9cFCJVkqEwWaxogXj2NhL+Go/kd3LnbrCfO1nCI3rgsUSrJWKILNwbUA81wmEyudqBuWChMqk8UxuWPcX+j/PhUFBSoaJGqoKCk50Iaq7ChOS5PFsH6qXCcUTevZ8OfjG4vhc6C1Hzt5YtyrJWLcFm4NrYVmvFMFksaIB5rgoTK5OERfD5W+zFytFJ8juBc6Dhs/wCMPFEb3AWKJVkrFEFk4NrYPNeKYLJY2oG5cJgpVJwkbn1ElFhSa0UnyEHCRqoaEDk4IaqGhA5OAfoSBKlwnFErk8G4vPs+HvxqcboXOhsh87eeDY3uQnFEryVi3G9wFiiV5KxRG9YKGwrJWKI4hP8AjbWXK1UvySoLnS8Ln+wViiCzcG1sKyXiiE5ODagHmqEwWSxtQDyVCYKVjakHlfXelbbQ107dS/IRokaqgoKVDRI1MFBSY0IOAoRK5PFsb3ITjdvY8O/jjxrS50fDx86ByE4oyck8W43uQnFGS5PFsb1wmE5Lk4QDzXimOJD/AIyhLlbqX5GZc2uFPaLxRinJwbWwea8UQnJwbUBWSsUQWSxtQDyVCYLJY0SDniRXUDZcmqb5DpoQOThI1UCggc6JGquwgvI8UDcsFiiVyeN19hw37BcVBfocNetCudrYPNeKITk4NrYVkvFEFm4CxQF5KxRG9yCjiY/46nLlSU3yP/r4Y9AuE4oyck8Wwea8UQnJwbUBWSsUQWSwWKQqTxSNygUFKw/+44hLCm+Q7SgpUNEg5OCgpUNCBycdm5YLFEqyVi3G5yLt+P4a9guXv8fDHtTyXiiE5OAsW5VkrFuN7kFiiVztbg814pgsnBt4pP8AYILk1TfIy/x8PelY5BYolcni2DzXCYTk4NqArJWKI3LBQmVTtQDyVBQUuRZf1qzbT/IdqRqoFBSc6JGpgoKVDQuxAPJWKI3OQWKJXN4/H8NfjzyqMOHfQk5OAsW5XkrFuN7kJxTk4NrYVkrFEb3ILFErk8eKPWl0p/kZf47J6XdcbUSvI8WxvXCYTk4NqArJWKI3LCYKVjRAPJUJG65u9Gi4ea7lAcU/yEsUjU4IFKhoQOThI1UNNTCYLJY2oCsjxbjdevY8Nfjk5VEWP0qGwvJWLY3uQjFObg2thWSsW43uQnFOTg2thWSseJPUaU/yMv8AFa/TiBY2thWSsWxvchMJycG1AVkrFEblwmClY0SDk4SN3E7ndoKBvp06gx8hTikHJwkaqBQUqGiQcnBDUwcIB5KxQNywnFOV69nw5+NbD3qLX6XFqN7kJxTk4NrcryVi3G9eKILNwFiiVyeLcHmvG/etZpT/ACMv8dH6cTLna2FZqxbje5CcU5OTtQFZHiiNy4TBZLBQkKk4SDm9n1rmzisMfIUYlKhokHJwkaqBApUNO1wJgslgsUBc7WxefacPfjG4VNF6XlGKcnJ2tyrJWLYPNeKILNwFiiXJ2thWSsW43uY3n1uhQx8j/wCtv7eJ1SeDYPNeKI3OQWKcljagKyPFAPJUJgslgoTKhokKlH6/ELcLFP8AIEYlKhoUqnRI1OEjVQKAfY5ltQDyViiNy4TF29lw9+OLEM+nEBYNhWSsW43uQjEsnAWKJcna2FZKxbje5CILJ0XP1vqcWPkf/Wv7eJzlWLcHmvFEbnILFOTk7USuTxQDyVCY3LBQUrGiZcFh/VcQHBT/ACBGOqgUFKhoQMaJBycF2kD9VLhMFksFiiVztuvseHfx54liXpxCeCILJyEYpycG1uXJ2NhWSsW43rxRBZuBOKcnRW+vEicaf5H/ANdZ9vEGqsW43uQiCycBYplc7UBUnigHkqEDcqCgpWNCm6OdOi4fb7tuSHRTfIG41OEjVUEClQKCChoQPsIJlU7UA8jxQDyXjdfx/DnsFwWK/kR4pxRLk7WwvI8WweS8W43uYogs3AnFGTgLFEuy968TFhT/ACT/AK7p9t3KV4ojc5CYLJwFimVjagKk8UA8lQgblQkblAoKeJXO7b7e306VIeim+QNwc6JBycJGqgQ1UCjU+wgkblwmCyWEwnJYu/sOG/YLk8Kn0voPFsKyVi3G9eLcb3IRiWTgLFGTg2olc7Ww5M8TFhTfJD/x3z0rUS5CI3OQnEsnAWKZWNqAuTxQDyOEA8lQmNyoTGvEf3us4lL2NL8hQFDRIOThIOThI1OCGvbomVztQFSeKArK8ew4a/HnkvG4fbdm5XCILJyE4lk4CxTk4CxRLk7W5XltbCs1YtheTHrxL/103yQ8OI/QNy5CILJwFinJYLFMrnagLk8UBWRwgHkqEjcqEjWv/U4gbx1expfkCAoFBBQ0IGNEg50IHIIarhEblQiNy4TBZXr2PDf44snBd/SuYDgLFEuTtRK52NyvI8WwrI8WwrJWLcHmvFuFTRet/wD+ul+Rqw4o9KNkOBMJycBYplwFimVztQFztQFTtQDyOEg8jhIOWf1OIURq7jSfIEhQKClQKClQ0IKGhA+wuxyShMrBYplc7UTefZ8OfjWwub96OU2KsjxbCsjxbB5Kxbg814twea8W43rhEb3IRBza/W7/APXS/I1Y8UF/HUZ823AWKcnAWKZWNqZXO1IXOiQqTxQFScJBycJCxZ/vr0DV3Ck+QEDhI1VBDVQIaqBRqfaYVkeKAeR4oB5KxQLx7Ph78a3G7iT0Zpo3LhEblwiNzkIgsnIRBZOQiCychOKcnAnExZfW4H/jpPkao4kL+LtZ86RwbUy4NqJXO1ErnakLnRAVO1IVOiQqThIdHDX3MpBy5hSfICBwkanCRqcJGpwkHPZqCyWCgslgoLJYTF29lw9+OTiU8TeypsE5OAsU5OBOKcnAWKMnAWKMnAWKJcBYolySxHD/AKvL/wAdJ8iMcQFztVlPnQOTtRK52olc7UBc7UBc7UhU6JChokKnRIrT7rHDaf49IOXMKT5ANEgxokHOiQc6ED7CB9iQqThAVJ4oCp23X2PD34/agcR+woz/AGzYXltbC8trYXltbC8trYXO1sOTtblc7Tjhr1bc/wAdH8iMXsudssB87cudqJXO1AXO1AWNqZXO1MrGiZUNEhQ0SLqfKh4fL+MIKC8KX5BpoQUNCChoUqGhSfafYQ3KhMblwgblxdfYcO+xViiL8XOgtx86JAPJWLYPJWLcHkrFuDyVi2FZKxbCslYthWSsVnyRwuX7N3/HR/Ihdi52/ho/4xc7UBc7UBc7UBc6Jlc6JlY0SFAoKVAoKb2fK32QuVuKVBWFN8g0IaqBDVQIaqBdh9moIHCQoaJlYLFMrF29hw57FYKLwXOgtJ/x6YLJwJgsnITBZOQiNy4RG5cNg8l4tg8lY1J8qbhkv2Lv+Oj+Ra3AudJwuf8AHqyPFAVkeKAudqJXOiQsaJlY0KVgoKVAoKeIT/jbSX7ApUFY03yDaQ1MENTBDUwQPsLtILCQeRwgHkeKAeV39jw37BU7biXOish87ftRKxtRLklinJwJxTk4EwWTkIjc5CI3LivPlQcNl/Hvf46P5FrVFzZ4UP8AZHkeKArI8UBU7UBc6JlYKEysaFKwUFKgUa8SH/HW32eqgeNN8g2kNTCRqcJBzoQPsIH2EHJKClYKClYTG68+x4c/H7lRVFzpeHz/AGB4tg8jxbCsjxbC52olSiUNqJWCxTksJgslxdT5W3h4v45/Cj+RJl/Dhb0ZPJWKAeR4oCp2oC50SFgoKVgoKVAoKVBI14nP9hRejGphWNP8g2kDnRIOdCChoD7T7CCsjhIOdEBU6Jm8+z4d/HJlYdL9Lhv2S4TG5cIG5UICslRz5FTmNqAqdEysaJlYvZ8rZYy5UD2NJ8hTL2PDno9uVCAeRn6ICsjxQFztSFgoKVgoKVAhqoJGvFHsqf0RqcHjT/ICxIHOhSoFBSrtPs17NdygmNyoSDyOEC8ez4e/HICpcw4c/wAKxtTKwUFKoTG5UKxYk8UA8tEBU6JCxxAf8VZy/YvY0vyFAexsfpcdVQkanCQcnCQY0SFDQpWEwUqCRqcJBzxR7RmDnQ8af5AnEpUNNVAo1Ps1BdpdiQoaJCgUFKwmLt7Th78ciNz2Fh9FnJwkKnRIUCgpWF4MZKhI3HCAeRwgKniM/wCLthcqR6KX5CgO42r0vJSoJGpwkHJwQMaEDGgMFGqgkanCQqeJ/bswoaKhj5AjEpUCGqgQ1MF2kD7CBghqcJBycICp0uvsuH/xyYKXsbP6VpSqEjU4SFTokKDmFPksFG5UJjccICp4nP8AjqEuTD0U3yFAdii9OIilQSNThIOTggY0IH2FJghqYIHOhAxxL/hahXYqKf5AjHU4Ian9BA+0/pKVAo1UEg8ji6ex4f8Ax+iQ7Fu9LokKBRqoJB5HCQcu4U8qGhSsFG5UJBzxSf7KmL7HYpvkLYcDX28SJCgQ1UCBzoQMaEDBdhgu0gfYQMcS+3bg+xcU/wAgRAMED7CB9hA/rUEg50SFAoKVC6+x4e9gcJCxS+l7bChoQUCjVUJG57Cnk50SFAoKVBI14n/xMYuim+Qtw4F/bxIgKBDU4SDnQgY0IH2mC7SBjQgY4l9s3B9i4p/kCY7CB9hA/rLtcBDVUJjUJBi7ex4e9gYKDCPS/txqcJChoUqBRq/jTzqcJCp0TKgUa8R+rrOLgp/kLcLFX6cQoCgQ1UCGtRc6SndpKpmpI50IH2mC7SBjQgY4m9q3HY5FP8gTB9hA/rIGNAfYvLQgoaamCGt29lw9+PMaBXpf28dVBIOThIVOhS/jTjVUJBzokKDLyHiKb9617WLgp/kLcKFz9Ly2FAoKVAhqTr7d2oj71wbcq6xCq4zt9MmrbeqHKnvW5/xVGDBdpA+0xxN7NuAQcin+QJB9hduoIH2ED+ghuMENdCBggQu3suHvx+p9lR6X6oXUc7XUHUsqBDU4SDnRIfhgFKgkanCQqaFFSs7c+p9m8et2bxWKf5A3Bi9elwbChoUqBDVRVdPcGW336tpuro0qoTK30/inKhujdQdnZXT28GCB9hA+0xxL7NjAEHIpvz6YPtP6CB9p9moLsPtMF2kLuf7OwOITQk+0FVDPIqqn5VTiDu6lNoqbQ6xTtqrqQeY0fIrhR813OjBXSiHmlFzO70IK70Idu9CG7tQpBXmgCr5Qgr5Q8jvlEDv1ECv1EDv9HzprymlOgvFNTsVdyaeuSeIaUiO/MqDVehN0Tfm+Xngulf4hxN5WDvLg86dHm9UDu9UPNaweaVo80rQVwuIO4XEePuZjxt0HjboPFXceKu4Opu5jr3cde7jqXcx37uO9dzH8uP5cd27mLgxcXGW0XTu9G6Do3QKp7iYTQVRP+FuA8FWjwVaPA1Zjy+pHl9SPLXB5a4PLFGPKh5UPKGx5O0KC3Ip6jsLsPsIH2mCF9aS9T263sPU3lFIPKaQeU0fKopmmqkrXRcitdEEUVAqo8towVtox5fSEPAUg8HRE4dFTAqKmHg6fn4SnBUlOHSp0P+HaCWGyM2kAmUDuA0eiU8g7TkqoLvcjJQKn5VCSVy5KF4pnXkNkrkaVDuqBJVzNKgSVDuK5mgwSDHTMdwwSDBtmOmfLpmOmYJsx0h0wTQNodIdIG0DZBMjpAmgbQ6JDpDpjpjpjpjpg2h0yHTIG2QJsh0yHTIJTy+nUEDGhAwQqG++lhgkJJBA0Fz7hcukXe7hAkEKNP8tXEaadupZaq6hLjl3eNPiWSI2K1a08P1/U8fVpJhu11CFVlcpXVcYNm61620vWZ7xFOogRDl6mXokgZevL0IgaSBQhaHAtHMIIOrQ2SFocQQMFBGRg4IH2uvNNhPIy7CHMjPQgYIaggY0IH2amCB9p9moL6D7NTBAwQ1BAxoQMENTBAxopitbrXaerqGV0tZUDoK80qnOpXUtSby36CscoX6dTlbVU7yqlqlfTcKunU8RU1Uuu8NVMvWymXTJUCgpUFko2mmCKpfSTgqG+4qsaNw+j+1bbUyZpJx4hRNt1qfAoQ+qoqHH/ABijpH3a1610Tz7FuVUVbJkKl97r0r7inK9/w1G1b2Eop6ZNKtNTWOIerv0m3awjs3iurbKhVVQpuDvgFOVSGmaioRVaggfaf0ED+gvoPs17VAgY0IH2amCB9hAwQ1MEDBApeZadDTaG0nOhBQKNTBAxoUqC+8TSV9Rx4uTqnG301qjJdN3gh83kJT3EMrS4hp5NuJFWdU6y8i3v90106EmuxK6dZaiZtjiiFfTUya+1NU3VrGfEUxXJttKDcrE09ehim6CKe12/ueMtzyGqq21KaWlp/wAVdlqQTZM+ZdhA+zUF2kD7NQX0H9JhUjUED7TBDUwQMFGphNclmtbebeQ1X0rrr9Q1TobqGnmmrlSLd1BA+zUwQ10IKBB1snAa3miKspwdYyYInXQhtCVmCByCBgoBggY0IH9Bf0ED7NQX0H9BA+zUF9Bg5BA+zUED7NTBA+wgYo+551U97oXXp+Wq/MVDtMTF2VVpodTBdmhSYIamCBhSkoSaiSHXENo7ySQtSUklSVISpJp7xKT12SSt1tKjPkTTjbgZqFuVtRUpbYp3u/SocQ4k3mkrP0FVWdxK3W2xJJdbNbi0NkSiUnxTBFbq1NYwTrZrUokklaXE9VslqMkkl5pTdDXN1K0rS4gnmu4lxCktutukQpqzvlcahVNQrWhsuog1E811FrSlbbjbhKdbQq51ZUlM04h1K1EkkLS4jqtk4taUBDjag24hzs1BAxoQMF2kD7NQQMO0dO8TTSGm26ClZdfp2qltNO0hkrZRkggYIaggYIamCBzVsk/SuKVcEpcK4mRm5TNrN9hSzYY5m3Td0kpttMy8dKw05YHDN9uqabpaiqcU09WUNM3bjUtR0jb6a4mFMErpvIuVMyy5zceqj8RTW0rdTdPpoqbrTpJi6WOmZXbaXkxw6undUwpPiK9bCKRujoadygSl6rt1L0Tq7Oy137D+JbLvWetRTNoT9l2IW6mZedrP06IkJqboTCUXg2yYp65CH6yqabpai2MM1NNUkSrM02hpNSkn7qphFIijoqdyhWs6i2VNMyi5NIQzetAfZqCB9pggfYQMF2aEDBDUwQMENTBAxoUmCByKalSw/TUiKdxulSmtbpUorXKVK606VKq4krJ6jp/Dhmi6VuXRpVRsUa+sVInrqt7imlUPNqnpFNu+CdSaqJvwyqBxw3aNZut0aEsJoFmKmlNx2lpuidBT+EpKegNlHl7hpqaXqnTU3TV5eskvUiVNMUiydZpFs1SKBTZt27u0lZTdc00KuuhKyeKgcbNy3pXQ1im/GUSEu3HwDndr2UnXs0iidVRLStdC2dA0zUJbq6brHTU3TV4BZE/RpW27T9SqOn/fgu0gYLtIH9BAwQ1BA+0wQPsKTBA50KTBA5BBQIamCB/QQMaA/oIGC7SB9moIH2aggf0EHW0OElJJSFISavoP6CBgvoIH9BA/oIGNCBggY0IGCGoIKBDXRIUCjU4SFAo1MJBjQgYIH9BA+wuwu0gf0ED7NQQP6C+kvpLs0KVBI//EACkRAAIBBAIDAAIBBAMAAAAAAAABEQIQMDEgIRJAQQNRBBMUUGEiQnH/2gAIAQMBAT8B/wA2lJDV3wYvRkkXo/x6Po6Uz+h2flp8X6DJsnaCCPTo/I6Sj86fTt/IS2O0cYvJJJ2RZElI7oXpoq/M2f8Aou3B/buDXREEokk7III4vd6cr0LhJJJN4JRJ+OqGeagr/wCVRV+Ty6Ixu9I0QQQLrlNmLXCOEEFNTpXB2+5KhWpxrsj9DYmSS+EkkkkjEyRskTJJJZ2dnZ2dnZ2djkR3ZSQyGQQQxTwVmLI0Jjsvaps9Cyrodqcy7ssSsxZXenWX6L9CQsVNnoWdi1l+mmIWKmzFrM9j1mY0IWsVNnoWZ7Hmd1iVmLWZ52LVlrErPQszHnVlips3ItZmPOhDF2QQQQRwXRAxZmfc/wBEI08bFmZ9zsRSQJx08T0LMxbz1CUiUWakTjp4XoWZiz1aKeDRrA+xaJtONiJJJJJJJJJtJInN6OWhOeDZJInym8kkkkjYnBOF98JZLESyWdnZ2di3waEMWZ+jTybkSji0T0LNV6NPFuehKObFrNV6NPBuekJYGJ5qvRpu2JRhYsz2L0KbrvE87Fr0FZsSxM+WklEkk4HsVpJJJJxU228bPgiLxipHxWKkbEsbPgs1PoUj76yM+FOZehSLvvIxCzL0EU5GLQsy9D/WVi0U5lv0FlYtC3mW/QpysWhbzfc9WinKynR9yO33PV+inKxH/bI9W+5/pTlYtD3kYx7zr9lOVi0fcj0MeZi0U5WLQ8j0P4PM7U5WIqyMY8321OVi0VZKioesy3anKynRVrI9jHrMrU5WU6KtZHsqHoWWnVqcr0U6KhY3sqHopyMp1anKxaHoWsb2MehayMWrU5WU6GLWP6VWpyVCtTlZToZTyr3x+lVqclWhWpysp1anlXvitjtTkq1enK9FNqOVe+TsslWr05XoptTyr3wQtlXyy4Jkki741avTlqKSSSl/slEokkqqTZKJR5ITExs8kJnkjyPLgmSeR5HkNySSJweR5MlkslksT5NSKk8RUjQ44KCRQyCCCLJWjDBF49FqTxGiCCDxEowTZMlyP/dpYnAmJ+rUSSJzzfGSbPrgmrzeSbzlaIIEo5MghkDRDIPFkDRDtBBBAkQyBqSIIIIPloEo/wAd/8QALBEAAgECBQQCAwADAAMAAAAAAAECAxESMDEyQRAgIVETIkBCYQQUgVBSkf/aAAgBAgEBPwH/AM25YRO/WGhZMSV/BYirskrfg4WfG+Rq34P+VPgjNx0P9m6sUpYo3/AiWHBDiuSyMSXBjaHJs8/hTpKZP/Ha0Gj/ABm9CL8DasYkeLF0XRdWMSG10ws+N8mBcs+qMSXBfxcfksVPBFniw2uSf8J6Lpcv+BJeCNCKErDdj/ZV7Cdy9/Aos+N8mBcs+qMSXB8g5suX6x8x61BdLMs7XyY6k9ezCyzvYURRRhRZDdnYUWfG+SrTvHUVKV7FP6xtYhTwfccmy5fJpehqz6VOCM0kYkKSQpIm03dd1nr0jqT16J+DwmXPLd0WZ45Z4MSWiJJSldjvqXLkNH0e3MpalTXpU6PJf10Lp6ojFX8EoXZ8a5Zgiiy4Lvgs3yYTCYf6YP6YF7ErcjhyYF7IpIwr2NK1jCvZhXswx9mGJhj7MMS0T6n1PqWiLCtCSXJ9RpPUaij6+i8fR9fRePovH0Saei6on0jqSdmYi5cuXLly5cuXIS4Y/DsQ0ZclxmIfoQ7cjeVPpDUnrmy+yuU9H0nm+hqzsMla/jKnx0jqieubB8MirX6T1zf1RP2SdiTu8qpx0hqT1zUf0jqT1zV5iaxPBN+cqfHSOqJ650dpHUeubAg/JIlrlVOOkNSeudDRlPXOp6mjJeyWuVPjpDUnrnUyGrzo+GTXktfwT1yUVOOkNSe7Op6Mhzn1Nbj1RUX7LKqcCRGNtSe7Op6Mjo8+XlJk09SOlmS+vhly5cuX6olaTHJLQi/JPdnU9GLbn/oS0J+LWGvkX9y4ak9c6noz9c+HmLGr+CouLkW0SWNXWVHUqa51PRktqz6XolJR1JtPTpGWHySji8xyaepPXOp6Mnos+m/sVteyMrDSn5WRTXJPUwssWfSxYwtiizTtp6MmKN1ccfRhVi3mxgFAUPZhMHkVr+TD5sjBfklG3ReGVte1Ox4n4ZKLj4fZgYqfstK5ODb8FnyYfJYwu9zCWEujh5PjZgZgZgIRsSVxRsO75P8Apbze/T/p/wBPHsdtbisjxrcuvY7Pkwx9mGPsmovUtAtAtAtAtASgTth89kahL2Rfkk/JcuXLly5cuXLly5choy5cuXLly5cuXLly5cuXKvHW/VLD5ZKV+2MvZhtJWJ651LT8Grx2xSgrslK/fTd/BPdnUtB/gVeyKwrEyUr5EH5Ki83zqWg89FXjrCN2TlfJjqiflZ1LQlr+BV6y+scOVDU9rOp6E9fwKvSmru7JSu8qGp+4zAzAzAxQbMDyI7Se7phZhegotlmNNa5VXjo/rG2XHVF/uPUx6Ixov/TEvDIvxbIjoVNxF+RWXgutC6uXVrErZVXggsTKkrvxlw3D3k9c1aFTX8CrwQ8JseXDVEtxU1zeCf4FXgn9YpZkdyJ6lTXOl+BJXkio7vMhuKm4nnT0X4D/APYeZDVE9xPRZ0tq/Aqv62zYaonqyW1ZiOWS2Z6K3CzYbipqPbmI5Y9mfSX2K+ubDUqbj9MyOqFqz9M+n4TZV4zYaoqbhbDnLjqhci2Z78QSKubDcVNzI7cynuIckdrz6mqRV4zae4qakdrOMrghuIckNHnQV2Td5FXjNhqipuKe19eMmnuIckOe/jvpcvpV4zYbkT3Mp6M5yOesNWU9GQ1689nHfHxBvpV4zYbipuKfTjs57OOkOSnoynuzWS8QEVuM2nuKm4pbh9eOvHbDRlPRlPdnVOEIq8ZsNUVNxS3Ejnrz1568kNrKfJT3EuvGSituEVeM2G5FTcylqS1EcdEcdeOsdjKfJDcT1fRHGTFXZVf2EVc2G5FTcyGqJ7uvPdz0WxlPkhqVNevHe+lPUqbmIq5tPcVNxHcT3M468dL9een6FPkTKuvXjsfbS3E9elXNp6oq7iOpV17qenb+hT5EVtel+19tLcPpV4zYbkVNzEVte6G3tewp8iKmuRfspbh9KvGSxdYbkVNz6VdV3Q2j7JbUUuelXjMo7h9KvGbT3FXd0q8C7Y7V0XR+PDJ7UU+elTRdjpqx8bFC/i5JWdu2juH0rcZtPciqvsWZa9icHfwjBL0YJejBL0fHIjSna1j45ej45+j4p+icGycJNKxTpyVz4pEoNxR8Uj4ZHxSLSPsK60JQcndnxf0+L+nxf0+L+kIYXe46f9PjXsqRUuT417Pjj7MEfZgj7MEfZgj7JJLTo+yDsyVZ38HysdZ28Cm2mRvI+3s8+zz7HiUrFr6Em4uxiMRiFIxDqXVi71MRiMRiE29C5cuXLly5cuXLly5cvlxlhPlZGr7PltofI0Y3e58rJSxeX0QxdXfjQwo8NWKiStYcY4bkb4frqW/+mGNvBNYhxV7FVJafiw5ufGjAipFJXXchX6O5Z9LMwu1yzIxb6WZZscWnZ9LGGT8lmWYotq6MLtcsyzFFvwWZZlnlJtaCk/Zieg5N69ydncc1wY4mOJGVk/JjRjSFNLU+RXFOJ8kTF/RzXBjiOSaMaHNaClFPUU1byQaSauYsXhDkl4ZiSFNJiaT1MXFz5ETeJ59ixbrb8K4+/wD/xABSEAABAgMBCQsKBAUBBgYDAQABAgMABBESEBMgITFRcrHRBSIwMjRAQWFxgZEUIzNCUmJzksHwNaHS4SRDUGOCohVTYJPC4kR0g4SjsmRwpPH/2gAIAQEABj8C/wD2y2n1ZlBUNJKqH8qQw76rMy2yntyn6Re5dlT7tKlIIFO+FoebUy6gVKTm7YmVJlHBLKbVZdqM2aNyb61fKqaCd9SyaZY8mSwXF3q+Chy46UhBWmwojGmtaQjeqWtZohCcpi8zUuZd0iqQVWge/wD4JShsWjlMUJsKzG6SrIIBGQ3ZWZbFVy6i52i0axuWF+kVNoWvtNTDr26La1sLSLKxWiKdkTPkDC20LbsB0lW+rmBhcqUOCZQwUKRYyYqVrkjcT4rOqP8A2n/Vck5uilIZKgsJFcRGWJZctVTLNpSnCkgZKU/oNSaCN/MtfNWN6pbminbH8Lue8vrMb1llkZzCHJqcSpIyoT0/0Ik5IU6rKqMYjzarSfZMUc82rrhLSTx8vZBQcqDT+grvhnCsurTvS7Z4xpkxRMEMgtMcdRVlFkHEIcboi8hCTxsfrdXVDbymmWkOAEF1+z9PvqhLiadIxGoxGkItr3qm10QMmIp/OKk0Eb+Za+asb1S3NFO2P4Xc95fWY3rLLIzmPP7o2Ph/Yisw++6e2MUuDpGseaaQjRTT+ipZTlXl7IpdxiKx1OYuDc3jiLCynfilesdWEi+KpbUEJ7TzBVmYZDdpSt+0cVTX2uuJxC5xoX+vXZ3oT9IvrLqlVASsXuuIVyYxnMS3kUm4pTTd7tLTiIxbB0xYShtAqTaXSuM1hTD06UONo4yO7sisw++6e2LamU0HSsxYlSyFZgml1d7VWwooV1HAQyVi+r4qen+iVOJecRkvierBqMqccJWOkQ44ciElUMzYm3L6sBRQfR0PRSJiXD7rLTATW9mhJOPLExLPLLhaoUrOUgwJozj4WhKlChy0rlzw3ul5Q5bolV6HEoaYo3PbacUi3fK07IZYVMOPNvhVL5jIIiaK5h0IamlUAVl6uyN11XxVpDjwSa8XF0QzP+VulxKEGx6prSJV7ylxy+vBtaDxceaHJZInLDYFryVNTU9cLZWibvQTVKphFD2VgThnXw42lak0VixVy543MfLrqC6toWUqxCvT2w1ue2+62lLNtawd8roywZVx1TyC3bQpfGHVwFSaCN/MtfNWN6pbminbH8Lue8vrMb1llkZzDZmJ00WaebxUgpem3HnRjKbWOChtDa3E5QV1PhCiyllIRiUU03sVacStOSqTWGXXnENX1NoBSomR/b/TcTegCpKwuyciqdEIE7LPS9khQcpUA9ohEpKrShZRfFLIrQZIMrNKDirFtDgTSo7InhLvIZSJpeOxaJhTr1gPJcvKs1r7xwlRn0TAJFW7yUU7DCk1ItClQccbmhlNK30k5Sd7/Rt8nfZxFU+cR+cVub4wUkGgOIwQrIYblnHm/JGyKUG/IHRCpiRU0FrAC0uDEadOKHXHlhb7pqogUHZBk1FN8KFpqMmOsCTSU3wIQmpyYqRuaG12F+coae7AmJxbZUhJShLYxDriatkG+PqdFMxjdBolNqYW4pOPOOmBJpKb4EITU5MVIlrBAvT6XTXMIMxJLQlxQsqS4N6qFOTTwUtXqIxJTBk1FF8sLTUZMdYlWgpIel7CgeiqYamAphE6lJQrEbChXxhUxNrQp8ps7wYki5UmgjfzLXzVjeqW5op2x/C7nur6zG9YZZGcx5/dGx8P7EVmH33T2xiYB0jWPNNIRoppdr7KgYl7K3yQQqlkBIz76n3XtgsS9+4pSm+opecWKiqd3TFWZYosAJNU5MYyDppjOqsTCyX1JKEAKdRZrjV1CJdJvzfmEDzbYJJzGoxfllMKChQiXTiPYm4ky67LiDWhyK6jDjBlW2gsWS4Xa/lDL8okOqbavJQpVLQ7YM1NJDarFhDYNaCJgtsodDryl0t2SnHFkqR5TffKK9FusBBYbYSDjct2q9ghRQm2oDEmtKxKv/7OpebWK/Jx1EJU81enOlFqtP6NZHGXiiyy2VR55yyMyYxIqc5wN8QO2N6QbqVKQCpPFNMYw6k0Eb+Za+asb1S3NFO2P4Xc91fWY3rDLIzmPP7o2Ph/Yisw+86e2MUva0iTHmmkI0U04F7srDjfsKwDE18P9PDiBA4IlRoB0mLSFBSc4PNQtabR64xYO946skWnSVKMW2TRQivT03LK1gGLVoWc8b+Za7lVjelbminbH8Lue6vrMb1llkZzHn90bHw/sRWYfedPbGKXtaRJjzTSEaKacOpOcUiwfXTTAMTOhsuGFIbdQpQygKyQA64hFclo0rBzQq9OIXTLZNYsuOtoUehSqQ682ElSaUrkywS4pKUjpJira0rTnSa8xmetpWqGB26zwhJ6IS43xVZK3DLuLQmia2rXTXJDjaVVW3xhmibWlCiZaoUD00h19uXBap5oVxrOyA67OsLcBFqXAEdWG1mpdUJaWU+Vno6I3rLLIzmHDMHfdJgPOLXToCTijFL2tIkx5ppCNFNObFfQ29+UDAmND9NxCWqVccSg1yUhKr3uYyUkG2iqT4w85eGZsKSAUKO+R2Qw02HL3fksOBZxpFcYMN3tIadKTRKBS0IWqX3N8sQpR886tIJ7IqrMB/rhtF4VNPBBKWaiz2msONmVTK2mbRbSoHpy4rh4d/4Z1Q1368AWiBU0FYUtZolIqTCVDIRW5KhpSFNrcsLpjpixRe6LcdpWw2mphRbtApNlSVChBhJQm06tQQgHOYSl+w62v1kJpYMTJLir+2VArGI4jAn0FRm0hLl8tZc/dEm4hKRfkLBoMvTD6TivzSVeGKN1Gk40OAU68VDCAybLt7KU9uSDKMyS2XVJotawAPHphq/YlJQLUWbVOsxv5lruVWN6VuaKdsfwu57q+sxvWWWRnMef3RsfD+xCleUOuLPtZIo6k1i9t8aKC4+qgrT6xL6A5xNDOi2PvxiXX7uO4LkxobIEFDgtIV0QlSnH3QDVKXF1CYvlt1pylLbS7Jgy9mrSstTjrni+W3HHCKWnFWiBmioW8GzjvVs2PCPIbTl6z9OWsJUVuNuAUttqoYvyCsrsWDaVWuOvMZj4Z1Q1368BMySbTSkEZhvscMyyCFBw2l09kZfoIWwE+bCTRecildcUyJUtKVnqrDL7TaGyy6k70U6YUxLWGVFAW45ZqoxOt31TpKUqtHpIxQks43WlhxIzkQyllh1lINXFOJpizCJ9tVLD61FPeIEo6r+Ve6jshpDy1C9UsuA0IhDc2+27Y6VrtKjzKSaCyLCKYo/hdz3V9ZjesssjOYtTM4FD2E9MNoU2bPSqAtloODOTWPNNIRopphTGhsuqGdQhkZkDnEsTkWko+/GHmFcZpeBM6H6YFwQIECBAgQIECBAgQIGClEwuyVdUWmlpWM6TXAmNBWqGu/XgAvNIXZyWhWkTL1m9Wt42LORI/eJUiYJQ1UHEB944W06KoUMcXuZmHnmxxUmmKErmEA2fWOKB52XRZFN7TFG9U45op2x/Dbnur6zG9ZZZGcx5/dGx8P7EVmH3nT2xil7Wkax5ppCNFNMApUkKSegwX9ziVN+syccWm8SxxkHKMKZ0Nl1pOdyBziVe9hf3qh1HqvJqPvxwJnQ/TzZyUcbC3ECptJ+88W5V12XX1GMYRNN9WWLEwlcuv3hFppxKxnSaw/8ADOqGu/Xdqo0Eb6Za7lVjelbminbH8Nue6vrMb1llkZzHn90bHw/sRWYffdPbGKXtH3iTHmmkI0U04PFHlkjvJhOMgetFRvXE8dObBmdD9N2SR7TmHx0+McdPjGNxA749M380emb+aOUM/OI5Qz84jHMsj/MRyuX/AOYI5XL/APMEcqZ+aOVNfNHKmvmjlTccqbjlKfAxykeBjlI8DBSy7aXUECyYkH2179ul8xffXHpj8hj0qvkMekVXQMPTCrV7UmgxdkUq58sfzT/jGR75YyPfLHo5jwG2PRzHgNsUQy+e4bY5M/4RyZ/wjkb8cifiiZF8mPw5/wC+6Pw5/wC+6EuKQUFQ4puiBAuTfwx/03MUWXm0rHWItSrrsuvqMOIeKH2rJFrpEIQxKFwD1o3sslH+Mb5bw0cWqKuNOL0lx+GtHSUT9Y8zuewg9QpHJmvH945Kz4/vHJ2B3/vHoWPH949FL/ffH/h4/wDDx6RhMenY++6PTseH7Ry1jw/7Y5ax4f8AbG+nmh2D9o/EEeH7R+II8P2j8Rj8RjfT/gIVMNTCir1inEYQ43uo5ZV27Yx7rP8A57Y/Fpj89sb7dR8jNj2w415Q4CBx+k5I/EZj774309MExLNX9xdo5T0Rjm36Ryh/xjlD/jG/dfPeNkcd/wARsjjv+I2R/O+aP5vzRkcP+UcVfzRxV/NHolfMY9EfmMegJ/zMcn/1q2xyf/UrbHJh4mOTDxMcmT+cclRHJURyVr5Y5K18scla+WHbEu0k2TQhAi0G020+tTHiMNKvDVaY94Mscna+QR6Br5BExvKgIrZA7IlzJNoUoPJrvcmlDa1Ik0hJx2Aa0jijwjijw4QwcAxNfD/TgvaBhunXr5xkxR5M5yd7iHMbpiYT7my7KozIrr5yREwyv1VkGJmWVxml3DExobIdNlUs6hwtJeSeNTPAbm28poHW8h7c0GDB5jNfD/Tgv6CtUNd+vnKkjjpxpgW/St71dwxM6H6bug396+cmN0Gs5t/fjBHqvp+9UGDE2mpTVulU5Rkh9L01MWVrJohzjDrxZYSipVZFKqyngRAgQIECBAgXZr4f6YGA/wDDOqGu/XzpL2RiYxL7bhiZ0P03ZtWZNNXODBgf3W/vVEtNJytLgEZCIMTazkS3XVDb/lTbQWLQbDdrF2wq+pAdbWW10yVFwXBcECBA4Oa+H+nBf+GdUM9+vnS0etlT2wEr9K1vFQYmNDZd3RVmXT8zzYwbhiQd96yfvvh1PTZqIZzo3h7rk2Emyot4jStMkJZ/2y23mSW07Yb/AI+rYNSm8jfd8CBA5gYmvh/puGDcmPhnVDXfr53mZmdf3ruTOhsuzi/ac5ocJtwZULhKh0iJuU6K2k/fhcnL3x71ve2ghsuply4E+cLlLVemsK/3V8VedDo4UwcKb+H+nBf0Faoa79fOytPGbNoQ270qTj7YmdDZcJzQtWdznTvVjiXPuARKTPqr3irkzobIvi2G1L9opx8Ebh4Ga+H+mBgP/DOqGu/Xzsg5DE1KKytKiY0P03HjmQqEdZPOBAhxOdJEJHsKIhZGVG+hpzpKcfbE44ciWq6oQ42JIIWm0Aq1WHvKbF6vqq2rVf8AH3cM4QgQLpgxNfD/AE4L/wAM6oZ79fPEn1X0feqJjQ/TcmNAwx2c3EC7Osew596oNchibk1ZW1Wk9kTYQqyot4jmyRi3T/8AgTDl+evq0uFJ3oFKdHBDgpr4f6cAxMfDOqGu/XzyVmPYX96omNDZce7tcS/wxzYYBibb6FptXGJn1HN4uJxdK2Wq08IbfcnZkLUAqjaqJHdDgc3ym3FN2vap0wYOAIEDgBAgXJv4f6cF/QVqhrv188c93HBVnZH0uUzrENjMkc1EDBlldC0U13HM6d8IcdcNPNYye6CG90b02fUQ+KQEyikKbTi3prgCBA4I4E18P9MDAf8AhnVDXfr544j2kkQdD6i4wj2nObDCkXvZXjuGJhDtL3YOXNl1RjSx/wAj9oX5u9oLir2LNDZ6K3BAgcOYmvh/pwX9A6oa79fPX05q67m56M7mzmow6+ysGG1+0kGDDjqMrZB1Qh1hqWDShWi1Gpi1ZsrSooWnMRAgcIIGDNfD/TdMGJj4Z1Q1364HOzDg9obLkgjNj5oOAmB7tYY6hSDE22rIpGyHpaZfsFJog0qBAvK74Fm2V+0T08AcAQMEXJr4f6cGY0Faoa79fPQR7Q1XJf3W9vNBhmFpzikKQfVWRcnAg0UWsR7hEq4kWVpTYebMKURZQtxS20+yk8EIGEbs18P9MDAf+GdUNd+u6edTGjsuO+43s28zGGbhieZ9+ouTGh+mFIPrCFyr3pWMXdwAgcHNfD/TgCH9A6oa79fPDExofpuTys2LnRuuD/eI+9VyZ0NkbnoCiEqvlRXLihqebG94rggLQapUKg4IgYZuDAmvh/puGDccaUvzikkWRDXfr54YmNDZc3RX/c+p5mMI4Ei57W9+/G5M6H6YYeUTbZrZ74UhY3qhSHNz3zvk40HOIOAOBEG4Lk38P9N2+PrCE9cFG5yC010uqh9Z867YO/VDffruDnRiY0NlyZX7TnMhhGDdESz3sOfeq5OuUrYZtU7hCXE4s6c0BhxChb4i+g9UB9jE+1jFIDmRWRQzHmU18P8ATHVF43PT5Q9nGSL9um4XXOhFcQgBIokdAh/4Z1Q136+eGJjQ2Qo5hB61nmQwjdFxZ9kgwyrOgRul/wCXOoRLTDIKvNJDiB6wpriWRL2ze3L4tVkizToueUtj+Hc9InNCVoNUqyHmBh2bt8dNmzTs2RYU/YlKcVOWLDCLI6c8C4/8M6oa79d085MTGhsiYOZs6oa666+HN0YJg3BAuPJ9wwgezURNKUaJDdT+UBxt5EshWNO8tGkNom1ocbcNhLgFk2usXClQqk5RHk75rKrO8Vm4UYRuCH9A6ob79fPZjQ2RMaMS+jw5uDCNwQMCYa6ULiaQriqbofyi8u2FNoFELGU90NW7Il2lW+tRulDgxH8o8inDi/lr4Q3Bhv6B1QkdZgYJ5vM6GyHOumuGBmQNXDm4OFnm/a3334xNJqU1bpUZeiLKJ+fdc9lpy0YbXfpltoKBIdetFXcMCwvL6qs0eRT2JwcRZ9bhxgv6Bj/I3BzuZ0NkJGdYhIzDhzcGCYMDCH9xH3qibLvEve+7MUEyc4uXJ6AklPhSG2lFt62qyFIBH5HBsqxKHFVmjyOexPDiq9rhTdF17QMd8G4OdTOhsiUR7TnMDcGGMExJOe9Qw/obOAod6scVUeST+9eHFX7XAgYJuC49omEd+vnszofpjc1Hv1/McyGCbgwkLGVK4dV0FsfTgbK8SvVVmgSu6P8Ai7wBuUwTcI9o0hvv14BuDm8zofpiSRmTXXzA4RuCBhO9QrFf7Q+nBFDoqNUBt+rkoeKrNAW2oKSekcCIGAYDCMjSCpUNd+vBNwc1MTOhshv3G/vXcKnDjoSEjKaQ24mtFpChWHAgGiFWbXQTcW+4CUJ9ngWrYUb44GxTObl5sOcS1bpveyueHbAUL24WzXOIvdoXylbNcdLhQ228+QaKvSLVmCtk1ANDnBuDDcHtJIg6H1HBlKk2knKDF+k6rY9dsxbZPaOkcAbguqdcy9AzmJmZf9K8knuhvv1wIYSloWFPJbKldNc0LcVjpkA6TmhF+s3ym+s5Iqo0ESTbJbW2/bqoY8ggX1xCK5LRpWBBKjQQkocQoK4tDlhSErBUnjCuMQqwsKoaGhyGC2l5sueyFY4tOKCUjpJgS6bJaLF9tDPWkelRxrHG9bN2xOOFTKlNW7Ng1yDIeuGHFUqtAUfDg5nQ/TEx7qNlxaEsPOrdQpIvaK0xdMMMttONzJAZSHE06MauyJSXlUAt31LS1q6/rDzwypGLth5a5p10mzbC8mUZM0Ikm3VspvV9WpGU46QZVbq3kFu2hS+MOqH3hlSMXbDr4nHluUAVayY8WLNG5qAohKr5aFcuKL3bNjyatmuKtqFeV7quNvVNEMHep7cUSq0qsvvrDQVTprSv5RI/xDrqTNI9JjxxeG3ltoMtU2dKEMXxxSBK+srKbWXtjdEstX1wTa6ItUrki35B53yel7vwyWstYSp5q9OHKi1WkE4m0V/OJmYUCgvkEJzACJaWbcLanyaqGUACClT63WfVvhqoGEzRnH7aEqUMeWlcueEboeUOW6JVexxKGmE8nMCPz4Xync/er6UdCopxXhxkYAGH51W+6EDKYE1OijQ9G1D/AMM6oa79dxF6MsGm1pcRarWozxfZlSQzK8amRTv7Rv5pCkLZxJDm9CrWTtiRYcFWFrJV10GIRubeUJRavlQnF6sTzk20hxwPFAtitEjJEw2DVtp4oR2RIMOCrK1kq66DEI3ODCUthV8qlOIcXNG6n/pf/WN1S8tSWvKXKqRl6IK29yky4QUlL1pNoY80NNPoCmkslYByFVYKWUhKfJq0HRvonXHEBSkza7NRxY3a+K9qiU+EnVwczofpifVmxXXX3SCeK2B0JhkNTcyQlwKNtzIM4xZYMspSiCmxaOM9sLl3H2KdBAItdsImJVSEvpTY34xKEKmJtaFPlNneZEiHGV8VYpDwmXmihFniDGvGMsMPS6kJfZJs28hrBmn3EKq1YonFTH0dUFlp1jyepNopNvLDcqtYDqDaStOOhrURLqfdY808ldlFRUD6x5VUWLxe6dNbVY8qqL3eb3TprarEzbKTfX1OimYx5VU3y93qnRStbl+UZJxfq27W97IX5bePdvVfrDS2VhDzRqkkYoW/NrQp1QCaI4qRBlFFN8sKTUZMdYEokpvlhKanJipc4yfGOMnxittPjHpUfND2+FkjL4Rvnmx/lHp2vnEena+cRyln5xHKmP8AmCOVMf8AMEcpa+aOUtfNHKW/GOUIjlCI5QmMT48DAel3w3MJyEVxwGnt6/8AkrAF2w87vswx0jiOqJyYoo2Uy6M+UxfHluvu+0sRjDvyw422HKqSRjEIbcS4VCvFHXHo5jwG2DvJgVzAbYSwmVecaHtpBr2wH0yLgITZshCaZcvbFh2WmMRqCMRBhl/yadW43XfLVW1XPBcEtOtLPGvS7NrtgNsyD4AyCLDu5sxiNQQSCD4RLPiTmlKatWi4oqUqoz0i+p3PnErpRV7WU2h14ofYG5EwWnVFRSScX+mFtuyG6DgOS06TZ7N7CSdzH0KTxVpUQpP5Rf0bnPlwosG0omvXkh2xua75xwuGp6T3RNN+QKszClKVjyVhttO5+JCQnGYoNzx3mOQt+P7xyFvx/eN7JM95/eOSS/j/AN0ckl/H/uj0EuOqv7x6KX+++PRS/wB98YyxDpTe/KLO+zdEYlMp649Ox990enY++6OVsJ7v2jlrHh/2xy1jw/7Yxz7fh+0fiCPD9o5ejw/aPxKChyfC0HoUKxvt0j3R+KOfnH4o5+cb7dV4dldsfi0x+e2PxWY/PbGPdJ+vftj8RmPvvjHuhMU++uOWvxyx+KLmnzHKH/GOUP8AjFVOPk9o2Rx3/EbI47/iNkfzfmj+b80fzfmjElfzQ4yQbAGeMaFH/KPRK+Yx6I/MY9B/qMeg/wBRj0H+oxyceJjk48THJ0+McnRHJ0RydvwjkzfyxeWJdtT56AnJDRdQi+pFKgYBuCC8WauE1rUwX2EWm8rjZ1iL42lBT2RW9p8I4o8Id3o4hhsp69fPDDvfwg4I3BwL49zZwpldz9870r9mPbdPGVhG7UR5VKjefzW4DrRqD+UGJj4Z1Qz368A3BgHmRhWkrhBgG4MA3BwMxobOEMruecXruRYby9Ks/AG4BGKPKZfk6j5xvNCXGzVKumJjQVqhrv1wMA83MA++r6wODGAbgwhwMxobODMrJmjPruRYaGLPnwwMECMlQeiPJln+Fd4h9kw/8NWqG+/XcGAcMcOYbP8AcgcGMA3BgjCGBMaGzgjJyZ83/McgNtjFrwzcAwDFILeQ+qcxiYQ76ZpBSrwhrv1wbgwDA5oYYP8AcGuBwYwDcGCMIYExo7IHAeQyZ3x9IrNAbbHac/BgYBuFwcR9JbX2wgHKK67hwxgHh1Hqhk+8IHBjAOCbgwRgGJjR2QMMMs45lzEnqihxuKxqPCjAMLRnEAZFpNFDrunBNwcyd0TCT1wMIYIwRhDBGDMaOzDW65kH5wqdmPSL4vUOCAwRgPH3DDZVxZlP+off54IwDgnhpj4Z1XEnqwhgjBGAeEmNDZh3lPJmeN1nhAMEXZjQOqGX0cZlVr84bWnIoVwDAwRgjhJjQMOaI1iGtAYJgYBgc1mNDZhGz6Ve9RCUnjnGrhRgi4/8M6oCfaChrhAOVBKYGCLp5k/2Q98JP/TEv8MasEwMA8GODmNDZhKe/kM4kcOBgiH/AIZ1Q3364nmei3aGCcEwMAwMEYT3drh//wAuNSYY0cE4J4MYIwpjQ2YJSj0jm9EIR05T28wF03H9A6ob79cK/utferCMDBHAHCEK6yImh/8AjfQQz36+DGAcIcHMaGzBztS2v71cKMEXTD/wzqhrv1xIrz1T9+NwwMEXTgmBwBuDTETaf7H0EI6idcGBwB4McG/obMBxz1qb3tgFXGc3x4amCLsxoK1Qz364k3PZduiWl5W/qvd89JZ6aQ6uYkb0lDZXW+g1p0QhxO5u8ULQN/Tkhc2lsqsGhQcRBrSPwv8A+dMNsKaqgptqcrxcdIY3lq+uhrLkrDi1yHmUHj34Y+6HnJiRvSENldb6DWnRCXEbmVSoVHnxCCtNhRGNNa0unBMDBbH9z6GJof29kHqWYMCFOOqsoEBC232So2Ul1FkKhN8tFauKhIqTBbo426BWw4myYLaUPPLTxg0i1ZhT7KXHQMVlCd94Re/I56+UtWb1jp4x5S428kZLBTv8tMkNvJ4ik2scVvb5a/3wbNiApJqCLo5hMaGzAl5NPFG+X9/eXmAw5jQVqhrv1xX2VAwDnFyku/eF+Tcaxa9aJ3ymav8AVpVPNhNMRhpaBKFpLQIG+tUpD5Su2XSHFL9olQhKnp6+o6UXkCvfC0OCqVSdCP8AKJOWeJLrM22K+0noMTH+P/2ETXwlaolV+X+aspN7vIyZq4QunBMSyc7kTGhsh1OZz6CDc3OQoVbtqJ7QMUefpYqDjicKhjQhAR2GtYkVoHnL+E9xBrDypZLbrTq75ZUaEGHkXlTExxlpPT1x/wC0/wCuJVEyuyhFXTiJx5B9Ym5ZldpkKNmmLeq/esIZUw3MNIFmqFUNOwwm8JKEJ3tk+r1XRdPCzGhsuqUrEAKmH5teVxVB2c0MC4/8M6ob79cP6MMaAueV2/5V7s066w81WltBTXNDLNbVhATWFyV93td6qzkFqtI/FP8A+dMeV2v5V6s066xLO2rK2VBWTL1Q4xasW6Y6V6YdarS2gprmhCEbp0SkUAvAhIcVbUBjVkrAumBwBiRTnXsiY0NkTaczl1ISqw4lVpCsxhInnGbyhVqy0Dvs1YTMSjiUPgWSFDerHXCX51xClo4qGxvR1wryJ1ooUa2HgcXeIXMTK0reUmxvRQJEeVVF7vF6p01rWJl5ylpxWKnQkZISv1FNltzHQ9UBCHpdaPbWk2oKbVpaiVrVnJui6eFmNDZdDaeO6bMIR7I5sIf+GdUNd+uJjQMS/Z9eBF0wOAMC6Y3OHv8A1ETGhsjdFP8Ac+pwjAungTwhiY0Nl0D+XLj8/vVw44F/QOqG+/XChnEJ6iRAumBdOELpgXTAwJERMaGyN0E9dboumBdPNpjR2XHHDkSKwt9fGdVXmAGGYf8AhnVDXfruPI9l04QumBdMC6eBlR7u2JjQ2ROJ92uq4cAwOFHBmJjR2XG2Ecd5VISgZEinMQMAXZjQVqhnv13J9P8AdgwLpgXTwQumBda6m9sTGhsh73m9mEeCGAOEmNHZc9yXH5/ernMx8NWqGu/Xc3QHWDdGAMAYZgXTAunqbiY0NkJ95uBB5kMAYZiY0dkKWrIkVhx9fGdVXm4uP/DOqGu/XcmxnQPpcOAcA8AeAmOpvZExobIletvb/QJjR2QG08Zw2YQj2RTmAHAv6B1Q3364MK95rAGAMAcNOn3dkTGhsiRPd/QJjQ2Qw16rItH78OdPaB1Q3364MMdbZ+sDgjAumBdMC6bs+YmdDZG5p9+n5jAHPJnQ2RNTJ9ZVB9+HOntA6ob79dyTPURAwBwxgXTAubpH3/qYmNDZEgrM5swBgDnE8f7dNUN5zvubi6/8M6oa79dzc8++fpgGBgDAHCz6s7m2JjQ2RLKzOXTgjnCkD1iB+Q53MaCtUM9+u5InM7whwRgDBmlZ3ImNDZCOpY+sA4Y5w4fZ/wD85yLj+grVDXfruS6szowTgjgxgun+4dQiY0NkHqUIaOdIuGBztSjkArC1HKoE/nzYYL/wzqhrv13EnMscCcEYRwVnqhXWsxMaGyHeqmuJf4adXPnM6t7BT/b2c7f0Dqhvv13F9REJOcYJgYRwRhGHtAwOsmJjQ/TD/ZEtojDHN5SWzqtH78Ye0NnO3tA6ob79dx7sGuGdAauBMDhpj4Z1Q1364mND9MTOgYl+z64Y5u6r1WU0+/zh/Q2c7f0Dqhvv13JjRiX0BhjDGGLsxoQx2RMaGyJj4Z1Qz1V189KjkETD6sri4f0NnO39A6oa79dyY0DEvo4RwzhnAmOz6xL6AiZ0P0w4M6TA6lHnruciz4w0PdrExobOdzGgdUNd+u49oGGe/XwR4AYT3XTXEv8ADTqiZ0P0wYWMzh+mAOcysuP5i/vXcmNHZA51MfDOqGu/XcUOqEdRMDDHAnDV1qEND3BEzofpuTKczmAOcpHQyn713JjR2c7f+GdUNd+u6oZnDwx4IdbghI6omdD9NyfTmc289nJj2lUFyY0dnO39A6ob79d2YTmdNwcCYHAmBcZTncuTOhsuboJ96v5mBzt5eZMI97fXJjR2c7e0Dqhvv13Z8f3eBF0YRwBclE53LkzobLk6OqvPLPtqAhCPZTSDExo7OdvaB1Q3367u6A9/bzMYO5yc7n1FyZ0NlyZ629kDnckx/mfvuuGJjR2c7f0Dqhrv13Z4dh5gOA3OHvV/MQYmdHZc0kQOduq6Gk0uzGjs52/oHVDXfruzIzoH04UcHIjvgxMaOy4x7yNvPJqY9tf3ruzGhs52/wDDOqGu/XdX1tc4lB/b2wYmNHZckz1U187eVmSYb96puzGhs52/8M6oa79d1rraP1gc3b6m9tyY0dlzc9XvU52R7ZAhtPspAuzGhs52/wDDOqG+/XdlDnSfrA5uvqbuTGjsubnKzOfUc7k2faXgTGhs52/oHVDffruyBzkjnE11I2XJjR2XJRWZzncsnoSmuvAmNDZzt7QOqG+/Xd3PV/c2c4nT1UuTGjsgQ0czn0PO5hXQhNNWBMaGznb+gdUN9+u7JHM8OcboH3qXJjR2QIHUsQg9XOp9z36a8B/Q2c7f0Dqhrv13WTmdHON0T/c+pgxMaGy4vqI1wwfcGrnTy/acwH9DZzt/QOqGu/Xd7Fjm5icVncgxMaGy493a4Y0Bzlw5kmB1qOA/obOdv6B1Q1367rndrhBzpHN31Z3IMTGhsgQ/owx2c5f0DDXfrwH9DZzt/wCGdUNd+u6/2fWGdAaubEwr4h+lyY0NkCJj4Z1Q136+cv6MMdmA/o7Odv6B1Q1367sxomJfQHNnT7pgaRuTGhsgQ6PdMJ6lHnLvdrhjQF0xMaOznb+gdUN9+u6/oHVDHZ9ebPn+2dUN9p13JjQ2XCOqFdSzzlXaIZ0BgTGhs529oHVDffruujOkw136+E3p4KY+GYZ79dyY0Nl19OZznP8AkIR2YExobOdvaB1Q3367pgdSjwlOCf0YY0bkxobLs6nMvnKNMfWBdMTGjs529oHVDffrwHBmcPNnu7XDGgLkxobLu6A9/wCp5y38T6HAMTGhs52/oHVDXfrwJtOZ482X2jXDI9wXJjQ2XZ0d/OWfiYMxobOdv6B1Q1368CfH9zbzb/IQgdVyY0Nl2aHubOcs/EwZjQ2c7f0Dqhrv14E8OsHmyPiDUYpcmNDZdX7yOctaeAYmNDZzt/QOqGu/XgTY90fTmzCc7l2Y0Nl1vrRt5y18TAMTGhs52/oHVDffrwHutofTm0mnOu7MaGy7Kn3Ka+AU067ZWnKLJirDgXTmDWngzGhs529oHVDffrwNJrmi72a2FFCu25uePf8AqLhiY0Nl2RPdwE/5PLX+tiu/CaYoUuYbLL5RQJygjt6Y8oYeQ23jsIKK2u2G3UJAdcUGwk9Cq0ijziXmz61mzZirk4xK4962oA174aeOVQ4NHxPocGY0NnO3tA6ob79eAx1tn6wqs01Jtg0TaoSrxhRUUqUhZRVOQ8ynQw8lpImV47NomDfKBxCihdM4iRHXdmNDZd3PPv8A1HATTjUrfkO2aG+BOQQ0/MNBkNA2U2rRqY8nYYQ41U2FldLPbDbSFAutqDgJ6VVrAW8kMoSCLAXW0c8FtyTYdJJPlCyDXuhpt1NlYrUd/Bp0xAwH9DZzt7QOqGwpaRlynrj0iPmj0rfzR6dr5xEotK0lNFAkGHbSJOZviqhbjqd6M0Ppcfl01dKk0cFKRyln5xHKWvmjlLXzRyhvxjlCI5QiOUDwMcoHgY9P/pMen/0mPT/6FR6RXymPSK+Uxx1H/GMq/ljKv5Y/m/LExYRbDrql0OKkG2HC4tRWuynpMMPhK7CM4xx6N/wG2N6y8e6HZi9rooUp09EUEu9WOSPRLrvK0WFVx9Mb2SeVHIHvvuj8Pe++6Pwx789kfhj357I3u5rnfXZH4cqPw9cchjkMb2ST3xyNH33xyNHj+8clY8f3jkrPj+8cnYHf+8eiZ+++PRs/ffH8kR/JjjMiPTM/fdHpmfD9o5SyO79oo86h0VyJH7QKTTQHZ+0ctR990ctR990b6dHdBcEz5w+tHLo/EVx+Irjfbou91dsfib/57Y/E3/z2xy9/7745e9998b6deMcrejlT0Y33o9M9AdS64ojoPCm1XeAkQlbgVaPXHFX80cVfzR6I/MYlG0J3ilKBFc9I9DX/ACMeg/1GHWxLm03Su+PT3xyceJjk48THJ0xydEBBZatHII5M18scmb+WOTNfJHJmfkEcmZ+QQ015Oi05Wm8HRHoGvkEYmW/lj0SPlj0aPljijwjijwjEMcJdKd+nIbpcs785TdbvYqQqv9axCgwMl3dD/wBPVBsOJazrV0CGBLzjr5W4EKQvGNUXlDqkJLFTTShUs/Nrl220Jsm0AV9dYn1g30tJN7mOni54S4FqDl7QbVcfREi20sot26+EIQ7OKbZoaqr5xRhbLMw5MM2LYUvKDWJeXaXe1PKO+HQAMcbnpLq3U7+lvLxYV5VPqZHqoZOOnXCyVW7LhSF+0ODq2oKHUbtXFJSM5MVbUlQzg1wKjGDheccQivtGkVGBiOT+nzD0qZey7Z9JXoEUmlS4UlSVosVpizxLl5bPm3UrsoBpQR5RVNi9XvrrWsTBDkpQURYmujsjyN3ydaXEqxy6sSY8lLzNhNAmgOOmeJR5JFlq1XvEJfli3fAmxRytI8peWhVWrG9FOmG1srsOtqqknJEs++40b3aqlGTGOiHTLLZsOqtkuAlQh4OKCit0rrgqDZoumIxfBvcXFs4+89MIQa5a4jSFzNrEgFXFx+MG1SzZoKptAHrEXsK6/wA8nZDSlGqjvVmvhsgr6E4hQ5bhmphIctqNkKyJTWEOy9GfaCRiUIcbk0NUbxKU4TlzRMqKAl5kGqcorSFuWZdKFNVNa1pTHDanw2oWUBpKMp7YCpptm8k0q2o1TcLMqhBWBVRWcQhbMwgIdSK701BGeHnRlSMXbHnG0uuHjLWKkmHFIVRgit79kxf22GrzlCSrfERL3hIKn+LaNAIvbzbdtSSULRWzXriYtXm939Vula2urqht5wAKVXJ2xKv2EFbrtgjvOyEBTSFPqV6tbI7TDbE2lqrgNhTdej+n+dbQvSTWKNoSkdQpwqr3jXTF2w6hpzzlMQtE0PtdUIcx0SCk99NkFptQctYlUx0HTG+UEoxUJWUY+3wgm1VNAO09JhW8xHiY8sBOaLSDVJhTL6VJaCiULCaikN+S2r0Ma1lNBTMImUzFpKHHL4ldmoNeiN05kpUkPJ3oVixBMBKRUmXp/phpCApxUvYK0UIyZRARLSq3HK4xVQs9txx6ebUppwCi8e9I7IW5KSykIpQOKJ33cYdZ9oQlM2FtO5CCkmvZExiKGFIsIqKE9cIZcQ55QhNm92DjpEuzMsXxv1/chv8A2et1UtQ27VbIzUrEzLuVDq3lLSKZRCZRxK/KUV3gSceONy//ADI/+xhnfLQwT5xaMoiSclw6WzaBcXXfGnX/AEudEy6EtIsWO8RfG1hSM4i9NvJK80W31hAi+NLCkZ4vaX0lfDY6gjIoZRHnEXxPtN7I3zlk+8KRvFFw+4kmN/5pv2a74wpSUJClZSBl/wCAp6tLdEU8I3W8npe7SeL/AKo83TovVM/RSGb5Sl5NnSrjidN7JAxOU9YwS4JVDWKyE1tDs4Wq1BI64qogdsWnFJQnOo0i2VAJy1i0pQCR0mApCgUnpEWgoFOWsApIKTkIgkut0Bs8bpzQkKWkFWSpyx1R5taVdhrE0yoCy1Zp3iHyhaC4hBVZrDbzhSm0gKOaKtqSpOcGsBCnEBR6CccdUMFhTawt5LZx1jzi0p0jSKjJFhLiSsdFccVWpKU5yYqkgjqit/aoem2ISqqA4a1QDjGOLAcRb9muOKqIA64tNqCk5wYsFaLfs1xxVRoIK0uIKRlUDih1NpuocKUAKyjPFptQUk9INYSq+IsqNEm1lMWkrSU5wY804heia3Hy8pCAh5TY6IcebskpplyZYq4pKU5yYshaSqlqleiLF8Rb9muOEpUoBRyAx5taVUzGAFuJST0Ewpze2/VSTlirS0rGdJrFVEAdcWm1BSc4MWC4i37NccC0oJqaCpymFBK0mzlockVbWlQ6jXma760FWjU6ovbaQlGaL42ylK88WH0BYi8obSG/ZhaQwmi8uXhXGj6yaQywklKr3fF6WQfnqiUSoYgkuODrybYYkPWtFtein9qeMMSi8a0uWHOxOPZD0ojEtTllvsVjrr8IfkBW1bvaNFX7V8ICU5BE6Xm0rPlCxvsdIU64gKcvat8copWkbltO40Oi0vromsSjku2lClOhshOKoMbsLb41G9UO2GkJKWzRQGPJniRZTLeUJEuF2Cqgr964SsSIlmikhdlYIObFCkzEgJkVJvycajG5zCSpyWcrjV1DIfvoiSU0hLZ8oQN6KViZV5AJmi7AK1gUA6jE7VgsJ/lpC60rlhAQgIUmhC08bxiYD6AoMpSEhWTHlhxloUaU0HKDIDWkNKcaQoqrW0K9MX9pAD1CLQGPjRZb3KShfquX1NQc8S7U0jElm+FJyWskPvS6bJscROSohsrbSVrRaUvpqeuJN6wHSitptZ4/RCULlVSrqkkWMVhwfWJpQbRaTMLCTZyCGO/WY3NByGYGswylTZs2t6y2njnsiUsSvkwUFg5N9i6rk6t1CVnyhYAVjpG6bCRRptSCnvpih8PoCktJTYCsmPphxtneWpY0p6uOLE3IYkj07VCe2NzU1KkKCsdeNiiUcl20oUXL2bIpUGC/MNJW64o2rQr0xNBSa3h0oQo4zS0Io0hKBmSKQ008m00louUOQmtImHpdNk2OInJUQ2VtpK1otKX01PXG5pdrVT6QfziSQhtKUuWwsJFLWKFIZSEILFopSKY7X9GfcSfSmvZ944fUk+kVXshczXfKTSn33Q7MdKxSmb7xQ3M1xoFKZ/vHCJmu+SmlPvvhwqctINLKacWHt9avjhcyZKwZS3XeqTapnhlkrIU0BZWnLUQlyYmFPKTxcQAETS1m0mYABTmoKQppU24WbNAkgYu/phgJdUh1lNlLiYvsw+p92lASKAd0Ul5pTTRNbFkHwhtlFUXvGhQygw0p6aU4ttwLG9zdEKclphTC18begiHG1lTl846lZVQEPTS3GE0oggfmemA6y8pl2lKgVr3QtalqddXxlKhDNq1ZrjpSFtF23KkEBspyd8Xtc46qXyWKCp74QptZadRxVJ2QpbzhedUKFRFMUXtubcRL+xQa4bS2S2WuIpPRCXZh8vuJBCd6ABC1tvkNLUVqbs9PbBQ3MrTLH+WB9YlWb76By+Vs5fusNqQstut8VQFaQy84+px1vpIxUpmhwqctINLKacWHVMzSm1OOFZ3te6HJcOG04aqcOMkwqj5lXwnjqpZWIdWlwvoDVhS/aNYvXlbnk1LN7sitO2NzmxVKRbpZ6MUByYfU8tPFqAAIV5PMraQs1UmzXwzQZXHYPT09sJCpq0oLqVWBjTmhC23C06jiqEKW64XnVChURTFBbbmnEMH1KDXEuhBsJZWlY7ol3rVL1axZ6iPKbX8u92e+v/BtHEJWPeFYokADquJUUgqTkNMn/E3/xAAsEAACAgECBgIDAQEBAQEBAQAAAREhMRBBUWFxgaGxwfAgkdHh8TBQQGBw/9oACAEBAAE/If8A/WXb50O3uEL9nYdNPlZufXsRuuMVLiW43CGIFr9O26SmqYmhM2yWt5xix8QnzY+eLoU2pg7bjP3JGGR5jGJOaFkP8JWKKCKzCb8v/wCJXZhhfD7Ix4Qw6sahEt9DG2Jp9dUgU8uQo+UOSeGxuMz3A84LciQ08lNErX0VR2HMmeyFj0hCb0XjSvJM4JQxcXAAbgWf/gxpcR0YKPgpPEn2KeweCHY9D77YpXWW/ROosoV+iSE5X/wWtwibfIyuFLlshXCup9angIHSMCW3WZD6rj6v/gwKUslhInwYGGRwLwGTlw942vg4tiZJJhMeCduwmpwWEtYfouCvYUpm8gNjQ1lVngSiIHOCpt8bPp5cYXEdGDj4KTxLPsU9g8EOdHhHdtildZb9Hpxa9BcyBcJ/cmVni/8AweIYCzJE7JKkShf/AAXzF08n18lA2UaoIU+pGj2iGQyeL9thf+Tf0UVj8gk4KiZwKv8A8Eq2uhy4zBdQ90bTnwRZ3fZK6nh5MZWgfU2Ild7HAnS58pzEjd7y3s33eyEboDjiE8VHR+jmIFwn2NcBy3WjbGKlX044kWZJNkfl7hqHK9chIQ2EgVKSbrVM8lmzfRPSaJlE1I/w3/8A0XyggrXq8u5Wp3wf4I1u6DQnjCj4FZHTsmMmHv8AFfo3ybBCSfbdC4GzGTZYfOnYiLf0S79iPsj8CZqUzvkiHY5uW4w49kgFy7nu+EPAtD1txq+/Tix9lssraKqtQ6daWqgh7t8XxGApWt+02j6yZAtt1FOxRGCGwFvZvYe3PIuhFSNLd3R2UDUl2DHbjw2pmQgFFTHke7Y2WlpgcNnvlOf/AAjS4jowUfBSeJPuU9g8EO14R3b4p7y36L6AJ+hIVg2h/ZWxHYCBXvLYc8ZoEplPg9yOTPApquuCkCUNbS4xxROzsj8aISUmrhLW/wByY21lZ1E0L4Hgt5r4QuP3cgIxkWhzhP8ARvoHJaq8LF9SZpUE1vPGIwQpudVE2/JfAmGUUSVErnzLnOycnc22OuomICoKhsDXBahWE5ZuFuJ1IsSJ1JhGEYRhf+O//nYIXRMXyxXGAuBxiHpBkYiB5a3JRK5CnpVDXaxhhyBs5T7cLHufpcNK0iEiMMFScsjNOaDs8NsXwEKc0HZ5dq4GZ8XyhwzyHM+DKbNt6xg8QqshPn4JPNuUJRLkEaM0HZ5bYrgeU0WSlz8CTNWlwYdWmJIYkkdlx6jNB5g7PDbF8CffxXGj9ZHsMAMskvB/sVEUqiVcwpzdzpG1xGY/PgpPEn2KeweKXY9HcpildZb9DfwMeguYEuE+zOrxZ/g8QwE5ciZkd9AtfJYb40cdt3ek23luEII0ssppszobXMwnMzOmwtVVjdYHaniMhSMY0JUkvIp7QIpfHajpy9qRVmG5waGX2iGuvoLLeQH/AEGj6wDDy0imYLE5Ucqa4pIjt5HpbbxOMbCxO/zCCfNNXxQxwIqcbP1tIkBocWLdQeWThleQRifkcXm+xu0EywmpyrWdh4kNEhuJDcGYMwVU+JMHBdF0KLUeUPKN0bo3Nzc3N/8Aw2/OxPgbsZCF1OF3LhBGMuofgknromnMU51kGXLk5g3/ACjWRuzHR8FJ4k+5T2DxS7XhHdpildZb9Gzjlj0FzY1wn9yXqG4/4h4pgbyRMyQZEGQMghEBrwOl/FZNOZOzX+MXobhBoQsOT0HkbzBozFnLRE5ORMhuRaY8zHy0noPEh7Ys4LQLdI7jwHceBnoM9Ir6RW3IUMSbdEcSQbYkLNwK29CLKRCxIsCwKkbGxtpt+caIULJL4EJCJLkbm+vGToUnkYdC1KGM9hCqqcLwenLhrZBJQmToxGfCR4k+4z2DwS7HhD/U2Sust+jZRytegubGuE/uTHjcf8QuujATlcjCuRUsSQlLBFKoGoQ8D26j26j26jyPIxLG/wCEE9idDmr/AKL0PgY7Si6DxHo8PIYsaDSbE3AwiehzY8ScbpEFpxBhy6im6EJBn9orrCXaVXXczVUhLuZXoqAsFcS0DIyG5DsWkWkXcnGcZjOhSXEpI6FPmc8IyoYGBgOg8DwPAx6LxpJcdCRaCWSNEiJM2dDjs9yc8UotylDrMFSomVmuZcSHcyJ5eX7HAoFKptK5kdJKyUyuGu5vrR74K/f/ADWWbDOOuh/qbJXWW/QkojcnscWtSJN9sxo3H/APFMBZkjWTiCyEpYEiQlCEqNh4HgeB4HgwHg+R8jLuZLqTB+Nuvmf8GlNqvUeG9CjXQthlPCM942wuMNilosSs5x1YEhQE6o97YqM6NEDsu43FTwCiZJ+QXYF5PbnyJIS12KRL0TIwEQqmOc2EWOEC2q7CyVFUFWcBwmMF4GDjnMc7HUR0HRpE2FuYFCVk8/ePC56HsPVzoIl7Jc+RIwBzZRbJ04SSoqN+Y3xwS76c1mDrkSOFgS48kdgJImaFhsWh4u2WRH428bTGbW08RzLuHc9sUN5BZM2odm3AmwAsiFN8+Yp4pM7ufcP1TGyxb1rMyj2ISU6FxOvxu90sL+IRFBYvhxZAzdgmYrPhI8SfaZ7B1UXO/g/1NkrrLfo2McjXoSmrUS1r3JMBhKHxaUw3fXoJHWbE7I4LIlMchYeIJGwkQlCEjY2NjY2NjYeB4HgeDAwMDAwMO5h3FkQJrF2IkTK5bRNzVP5M+5m3M3Twno4sKLoQ2J7WnvbNIWUvmQLh7EzXYmQ2ytx3HNOzFgLhRJVSz5DR+wl48ZGFNJT90SOyZzAc3OB0MHAVBUFUBVAtDgWgW6SxdxHfSO48B3HgO+guC+jzivoRnoPQdEohuiEusb8ibmcab6d3+wdviFmoi+sMeUbRJs9iXeSTJbH7GjvopFpJL5ESMZDuGP11FMph3Y+RSQMae1cWRHnFM7THlBuy7glG8wQ8lmTIJ2sgzMX2IBcLDSxcVI8Eud/B/qbJXWW/RCx7dK5MJHBj+EPyVU7+3PkeKYCzJE7MnGFhR44C18norBijkMfMnK0+FrsbG2uxsPBsbDwPA8DwYahg9QSRkfz3lMZCyo4T/qZ7jCeZvHiPQWQ3OZh1GLc9a3DIZDNigVYVYUYVYVYVZxLyLyLyLuSNz5TskpixoPQu2y7fMsXCed7TFvRxD1nsOx/gwpcmQ2risyf6K/2R2H2bcpc9ipLSfK4MRlniCxhNwrfqyTLWEyS6uv0QosQU7NJmKvNxxPpwdg8Gu16H+psldZb9Gxjka9Bc2NpP7kw43FvgXXRgLMkTsipYiEENGepLUE7R8+z7Q0Oa5kQJa5+h4j1p9iRTKvT/AMIUtklptrtrsbDwPGo8aGGHfYMP0GX6F+0oP1sfMLnmS3PYOzZ+h4H0L9hcXkO5FpFpcDcLC4vIvItMtMvItMsLKYGBgOhBE3IpQsPiOCk3Ov6Vqe/8bn9myHWpkn78aQVLGE8fbmY7DAjQgy6F9R8JHiRd9Y6CDVdj0Je26V1lv0bGORr0FzImk/uRbRxP8Q/dMgTK5GFYqWJSEthKlREI2NiRWQ2LWMbNx9+W/Up9CXFcVy/DP0PCeh6TY8De6/pX8Gw3CllQKAKf3Cop+CU/BGjKORVhcvdZ0fR/ZR9H9jVnsKVfCJS+wKvkf8Kvp6EK2dmGBs/ejKYNn/BEcIg+0MsjUiSxUrAoZayvkWgBhS5QGBW8rfUMnIq0F2kr0Yvif0VV/qf0xSuDpUTzF8IxfCJIJy4m34BfdS6GP3LE0PYJhGNxXHIVwLwLoLoLoHj2PMm/qNIhRwOS0p/1ud8Z6XyOTphMERyfskTtDYdsRxzFW8s9TQnO7C3TPH+BO8ET8hu/nLZ/Cc7gYiYv4hPUHdCP/gi38D1lC/jPpSE/5Q/5sf8ANjZt9ca9JJ7fPhj3n/Q+r+NhMsHndzuMz0TyPdCW1XwWnW064nCm83x+R8jSn2B3OMvrIhtUsvmRctuUn/BH/BG8PWHr3M/R/Dnfq/hlOq/wVaJVIVB2S5B/AygigxdI7v8Akp+t+xTHdYTF8IovhEoruBMXwhL5VG4guRHMchujdtonEeCaK0WyJUiYAUkusgeTXNjtiuJEU+LhvZaXEejQHTadrh05kyNXBq9xXUWLHcxbOeOeMcm7kyBYI1TKIKo5l5l5lpF/At0XoWlwEpdjRklIJPw9Z92baNYdyJ5GCBimLi4me5ZuSncnJkZaOr8HHWSxp00bJpp31QznLJd9OT7CZoJdIm4D4aUhCU+Pkfy0oo0KhxFRUVCgOAQosbC2gtobAcAOAGwLRI2NIaRKIagQNMA5NR8M+uTK9ryQo5i4hKfqjcMvKTY4ujJg0a6XN0ky3gWgSlcxKJCdCkyFJkQFQKURFAxBiDgOg6KoUkUmUnyHjo/QqK3K9Vm89zPJ5XtFqTDQgrsWWxW2xZYsiyyJZubm5Fm/57kCGQB3vnw+8uBet0D8P9eUbnjHhPWrrH0oU/HtpsbGw8CwLBsLAsahgLBh3MO58zd1FlR+szuZgry4/vkPY8U467EUYse9pyJsRe3GRBGZ00K2YODjqQ67B0aTKmsuRVhUqsMgowyY3CzQ2kYRxNk8F6DpXEr4lIroUh2KIE0fZmY7THYYCoKgqQqQsCwLAhCEL/w30lkj0OpSt/P7LKjxjwnrV3Sz9+wkf+DYeB4FgWBYFgwMDAw7nyPkfIyfUyCykO2+ArJoTG+9/oa2mg010or2CVxujW8JxJ6ZSlhOWYgYXEQOtrlgdS5FWFVZRhkjJjcMjmYtzNzmX7y8i8+Bc26S0xXIV9BfoRfovQt0IdryLQ4WW8iwK6uftH7PZmCRhHEwjiPA6DoYRhGEYQsCwIQvz3GpQqNwk++3Qe3WWeGeMeK9aehT7p/w/MxjwPA8CwLAsCwYGGj5HyMmIFpMDiheeTOUoRipoOav/CyOp+h4gouwsLAtsReNxCdhLFwifSuAsEtb/KXxXxPMPcYNzPeWNkLTLF2M9gr7S3aW7C4tArNlJMpJjyPc8N6FlJdsWZ2LS7F2C+jzivoRnpQ76TYOw8oeRjGPA8DwPBhabG3/AISGGfBvlP8AoaX6HiPWmaD5Wfv+m34b6MeDYeB4FgWBBYMDBi36mXcyCCC9NL9B2D1z2/4PBBD8E30kLl/x6PyedCLTAiRR3LyeQyd/F3N43i0x2chX2l48i8C5vAxgq45lEcyiuZVlzKQRVUVr0KQ5Feh9CvaKu0p5lPIzSfc5zFvRZlghkemjc3HlDyhjGPH57a2DFLOvf97CU8WEXBT+TxHrT8HkksWXX2Qvw31Y8DwPAsCwLBgYHyFv1MmILLoL0PiP1MJFVsS9nfyTHzHSisUyTxL7NfoaZnhPRQKVcF0wNRBVWEO+0z2ivtLv0LMNgx6hjQ4GgHh0NAQFuC3BrPkZLuBaPAvXcWeg9DZDCOLNorDsUQL6POKu0VGgoMJ4mE8TcLIsiy0bm5ub6P8AHb8NhZ6aGmn0sYjda5rD9eTxXoYTnWvBIOO8x+ewx4HgeBYFgWDA+R8hZEEfifEeOgy6j6nCPrK38kQJr9s+GTe8DpUxa43Kpck4lrxpAmt+ZL9+jPiiB57RjiG0ROBoZFCVBQDF4mVFGDWw1nAwll7LMLSLdF6FuhGekdx4Fod9Mrdb2mEcTHroOhgYCoYGEiFuLLN2LJubm5v+O34TCkVAfWP6hbp/Qwkx5H7Oomfl/hvqxjwPA8CwLAsGAt+osvqII/E+A8TIZdRj3Fkt9SyvgLZE0NNDA/2Dc+mP2VRJhTlF4H/Gap7ikY87m+RT49yiB/ZWHMpEVQ0uhQVQW2MEJkWnwLSHYrDjQwXgHUuQ0T8PobrLSy7b5itnYuwVvtzMryQ7gWgZHBxZhGg6RgKgsCwLAhZZubm5v/4JIhucb9/IaWLhvtp+tY+P+kS5vifw31Yx4HgeBYEMNCFkQ39NDxMhl3Me+jYP+mCn8s/UlMpMniX2h9iHWxbeE5G82GZcUGttsRizD7sUQYAqLo1kUcZMYNpXmO5GRaHIsbQLq7lkG0bBVXIvAVdpjtKdpTy0M872l2WkK+gz0Idl7B5HsPBgOkYQqQsCFrv+bNjnuC/u/kni2g3zien0FPbORI8L8NzfVjwPA8CwILB8jJiCy6HxH6aDPqMe+jnL9h1Sr7J/Bp7CrL47PiRaATO1SVt+ybG5Erxjh2EdArZ2c8dxUXRoKOM20l5lhkqxeJbRpDmU7yzCwV8qLdhbpPQzA4OZscSsO2mVftzKdhWRj3PZmQrHoj0HkeUMeB4NjYWBYFpv/wCH2RZH/bQesflr6f8ASmrc3NzcYx4HgeBYEFg+QsiHxHh0GMuox76WUd9o77Tl2Nu6f9HkWkp4aUmawjfI/pAwojRYt7m8le0oWWgWNjk2hyLxMSjKlUXRoVkKX6m8zLOI8t5PQtIz0DuBZP3pN53tKw4lDjtKaTCeOhZFoMPIx4HgeDYWNFrv+KS3Q21gq/UwdDl+eO5SNW5ubm4xjwPBsLGgsHyFk3HxGHnqPnq73chOewvAnF+yvk+8ChZ6ZfG3/r+iB8BFW2FC6CnPaAnfL/SoYixuXZt2loGMFYFY8xbSnWVFQ3BqhFVRSB4hXovQpJ9Syniy7bmW/QWBW+/MyjuO33MYKB12irsKDDQsmdDdDyhjwM2Nvx313F/UJ5Er9N8DeI/NHv8A4JH4tzfRjwPDNhYMD5Cy+oh8R4dBht6mJiN4ivsLuYQct2/Wyef8baPUbQFf6uMJueMiYrjd0XaA254x92R7C8h2bdpaJjBTuKkqNDSRRhkFpjs5NhZA9EY/IvAxHkegqa26lnE+xzluijPSh30Fh8tDAwFQwOIVtm5ubj2HpsbaL8dxJboIeeOuaL5LS5Fdm6OxSPx7m48oY8DwzYWDAXyLIh8RjLqMe+n6xX2FjieYSDveAx5DxH/Sv6MUkcBimeKlkPg3zlfA0gzFZVL3+yxyLdhccBR+oqNDSRTQlpFjbtLDGS7C8i/aW6b0MtO5sXMpTcpEWAVGc/ebnEtfFithnsM9A9mjDqYGEKkYC3Flm5uPI/8Ax3LN0ElHK/BWO07WegT8CNzceUMY8M2FgwPkILLobemgfzoZx32F9BmKsJIcPRD5S/8AD0HjvQgvVCfBldTqPeceMfoz2ljhBTuKsYFTQMWLyLFX2lzhBTuGKychIt1Iu2P+l6FpGehFo9y7TmOGePtzMdpQ73EtfFlpHqZ6R3oYDpGELAhbm7Nzc3Nvz3PGPDehjsOhSn+v4YL8Nzc3HlDyh4HhmwsIwPkIfEZyKruZS3aW7dP5lFCoJPYPwepdk/loeI9FRamHSCxK3HMJOFuv+ekLUQA35mMFIcykShqwzFpFzntLwMIKCoOg8oNrmUj2PAKdP6CRNl5cy7uxmQmo1yxqVl8vqLL5+8xgqHXYUO8fMVj0Qw8owgwMIVIWBHE3NzcY9Nvw8Y8V6LrsOvIL69PwNtNzc3HlDwPDHgWEYHyFoPE9h7D1ivs/DAsyhULw3L3gWnyL9D6CUlESw4w53JDkh/Vz3LSy2upC9/soUwHg0TMQtloynPZoHuB47hUazKMLE7N1GJFFci8DHaeANKE33clvPIneGKT7cPfQkIa12XGUfX5x32FkGEcWUGO0povkLcZ7Bh7DwPBhCwI3NzfR/l4x4r0Xg9Qt9v8ARY1QsCNzceUPA8MeBYRgfIWlkMO+jbtFfbpZJzKhgUQ3hIXP+ws1wmTeMNiYaLSm6du+wRVFOR8X1chTKbnyaTmBA4wP6czbE0h6GkRIsjCDJjQG8yGhPkaTWbFm2Xdl+wv0noKVmlCZfAQkWVkX+irkBPZ16IxVISKXJCOqQv7vaXkK+0dx4GSRjHEocdmhh1FkzoPOh4NhYFgRub67fh4x4r0edq/BE7ivCWjwbCFgW5uzceUMeGPAsIwMu4i8DzDHvoZ7S4wfU8gWlyDcPrAuCVOK/V6Z5qp00LXJfYiSlsUR2mMyTyREtNsI+uwvupKNzCSwyMIEKQMFBkJRYJ0P6BeErN9RW4y0XIFWkUJqPAz4f665C4huN3VkTkQU3owhV+nM8ha+ZZhnpQ7PzPMOgqQwPkLQeUMeNFgQss3N9NjbTY8Y8V6POFihb38tHg2ELAsm7Nx5R8tB4MFrC9BjPq0PWW7dPPqMAdDKMOovMgreD9Sjid7M/wAENJI4UVdCjUvmmpKTiyGzqCyImRgJ2pJpmxRiZQrGBlBQOjTRsHYV6NlGMLiNHgNR2ilLuSpfEUmIV9hb92i0i+aeY67Sg3OJd9xXPgO+gszEwZgYHyFoMMeDYWBC3030Y9M3Q8V6PWUPKIBxno8D0WBCyz4DHyMGP0MEY99B8dBt66D9dP3HmCoULMYR5KJ6e6aglX/h/wAFoTBuxS1SEoRsnxERlpXMwarYz0ydZcmt3EVOEvw1w6cC6MoFQdHKTEsMi2hSHMswd9BZXcakh48T0Cx5l1PFl3fYb9WJOE9xihQY7BYGPVithnsHY9noYRsMJFnQ8j2Hg2FgWNNx6M2M3Q8R6MT4l8Gcl3qeDYWBCyz4DHyMT4GCMO5lqrBdfwb8zMP0MJh3Gk57BZLfdbKWmZOEq6I/N/zChDlUNdJqsC33MZLHLcBooTuP4cGgwE2XXhxFQdHKTEsFYwMjAdFIm+os3zLsx3AsjuPUcyviKulCRLuWd9Y0TMeCLsbHEddhTsN7iXfcyXZ+Wg6QqGAsvRuMeDYWBCyzc3GbGboeI9GLgt4ZBvA8G5uPAxYELLPiMfIxGMEY99E/XQezQXrpZ9WidFmtNpCs5dFnte+wUImrtGpwnQyIUtmPm3oRtwZu3CbT6ZY5NhAg+nMP0cPAb+vfg/kzMSwVjEozBoMh4h2F4RYn3LtuZaY0xLo5jxDsNHYfQ8CnfLMFfSi5WUcygVdCKj5CsPxHmOZh1HSFgYCzoeUMeNFgRubjGZuh4j0fAT71KDceUPA8GxgLcRY+Rgz4GCMe4gfoeZo+k9R7DIfHTYFwr0yVBYnnuUr+j/peisHpOzbR2CUetreT5GZwhmOCefMdmwxKDBoOMsLd4NEOehzORRSyzBWLoMY5iOiu8ETOLYUNnPMtId9KOHiypddhUfIVh+g8rQdIVIwFnQ8jwPAsCwLJubjMp4j0O6LL68yg3HkY8aLAtzcM/IxPgYi+RB+hn1aLvtMBh30noKMOWkX0EH7AnPZ/4JXZDwdg7NtGodDOdMiDBMGf8EoCWHWmufFcxoSo6oygwaDEdhWHlHYlkDxFD8JSZx8y7C0eAvfV/M9J5GOwoce5Z3Yd9KLNOek6CDjFY28kZGBhFEYCzoY8aLAhZZuMynhfQ6+I/t8FQsm49h4NhYQhDb0PkYnwMT5iJ4G3qZT46WXUI10iwV9mpYEE3R+j/wCkhy36SisK9NSBjTYyWKS3canv0E4aQnP3wMLAwoMR2baKRYs5F+gsowRcSkOx4Av7FmDnDGXGJ/n7Enre3Qr2lTvcWWDPSi3UPMOhTRQz2ny0MIwELLHlD2HjRC3Nx5Wk8X6P0HZhIL2W4FSXHbfHMSWiwySalTG5YYq3UJDwRAJlWduPkWELAht6GXcym3bT5wi7mPkLPoP/AKpUA5Aj/iQfM91mOHPAvQnyXnpxTsOkwG1HANHxKA1FxY8JTS/TQk80F+wuMxUaadirOMDWjFqkIA3SG7ULj/oozYp/6P8Adx2baFO7QpY+AtSXYWF0DxHseghoeHjl9wWMbvO0PnPQWfuzLKFJl7Nct9PHjsSFw8QzCeBpkVyYHwJlRClt7dTcqSbNqHg2FVBk/pOCIzK4CQCrbdfsbEBpkuUYXkjIXDKXE7mYH3nETF8plDwXYeF8uEl8FXfGR8ViCtxTiT6uAwZrKxEpl7aIy0eKFLkLOjceB4FgWDc30fA+habJXj/emxu59207F/CURASmlg5MlwCkZziOpvm0Nge/XZpKVwwWaaZN+FE7CqBVCT2vcfIY0QOGz32cjYE88ps0lXDAw0ZluKR1E7MFBWpP+heWOm/AjocwNSdJFZ9eYvK2WUM7Q7mSBPZOmUnafDNdDc7zYxlLCe08CIs7iTAn8jAEFM27yNk3trfFBYAlDlXvsM4Xb6tw3nlkYTCPAE3wYxxEkDOOY6wkpcYL4CcRaqSk3L4OEQQzEfiTMSI7566GUcxVp1mZ9xpS/YYFQ6Oclxk3RlBgyWI7RMiO19yF8DDjbPLX2jGBbDBsB4CychIN22Ky0oiVrkp+ig7XLEfzrknzFmc/aXmIPNdNGIbZ7FNpU9sUxywXN8impIzoEuzh3vgQqQs007OU7ciKhlQScDjjzMMEaQUFPKS60pdq12cpCYl6uk0zOXLkMQmykjVHzZseOj7CHYhjDg25EQSqTYZS7LXzHxCtdPZymPto4W3EyhPVkrXPF8j6fhPo+EwFnQ9h4NhYFubnoPGegre7l5/5pIlmKmJ/2b9IRWAOsQ9kUT6zZYw3FzY0mgk5Itc6XGtxvZkGObMOLzYhopUkTZhTm7N4wWtuHmBIJoN6os6XGuQ+cFA2pIacCw/PQ5bpJ7TlsQEPIi8r2fUwvfwW7r/Ri1JEMW3M/DPI+80D4R5kcP8ApYOEeZFHHBeCE/sD+wpH3bQqlXZorwWl3ycUa9uf0LKldNUNMXiMJaQcwp5yxuGyTHlhtzWwtjVpjyy25MxE2TVeGEDE7dRlkjDsgxHKWpVuP3MlQqzITlgTyNxUC6IMC/0hDP6BM9MywRsEhF9lNjyHNKtKSd9Z5/sYQ8Ca+k8v0OhkL9BZQ0QH/SJ6FbT2HGGSp3pYL9z9Q1vKoLym+43uenHm/Ag5kfXERdqvRi7LdmoOJ8ULKwqbFImnzCaHQ7LlvmmxV5yIlyUf1kmJJEYiw05EZgZTKJGSwlsuI4JqmzgJUuhK8o8zms8xCbKDAsNMbMbDCLgJXsJUWncmIHMFswRS4FBlgmzScoITMtueauGLb4LS6cnZvbhAwkLnPocArNr9mWHBImWHZCUbEqhXxZ/dBLQJdH6cIxiojI7EP/QQt+RB3A8oJUy2PZ9Ik9Uf9Fw/pQX/ACoTp6KJv+GP+bDUmby0dE9EWZfozUoincrJKhFcj/wgX+j+ij4f6EUwVCv0NWy5ZbcElPsEytblYTl8ohv5yrP1EnHhCilfoEoaiYhzBaCDf6v4bp9Og2N3L/glEkRIPaS6P9HF+6YuCagkCLPi/wC446+/qKP7/IyhLBIq9xj/AAQ4q/QLKu9ITULF06kf9ch8wZsUvFfbfEfEwFqS6LQHpEWWEPm/Yoo7cOuQQmk4xrkxWLPmJeBo5shKUbDkgU0ldQku/AsBXbJLvJUXkhbih3Ie429ybdgeKyFuVbnFBOe5ZuOSBxblO4o9xNeksKtJpbiZsYw+BInjD0T9ujAVjIyHUwFUt7iwchEhYgEQSH1MTkJNaJkchzQBq0wsSQxikGoKOdAmXyJH+H0YxEFHpCYY2xOIis5LQmEASkn0rHFH9+cWDe7fKX2SMtDI9YsC7uZAJSaQhYf0OU5/08V9oUI2XknzEtwuISwHx9opbRIu0XYU2Dl2CqnMSAlC7CBKWDXiLtz0EoC1Igxh3HgVJCUJWGqDwPAlQjxzuSvZg6GwlQtDyYDwYBfJ8TyNP4aPmD9dYr11JQ5aC3YYmUqeMuLP00TV6eBY2GcCrSYjstFuBwyhOEuXIiZLQ3Z/xyFvIlGRdQYkhhWAsthfoFIgSEhDcJfkheFSUhZ5L/ZmXaDwFXSjzF3DvsPZlTQbnFivSw7jcBB8xZdDJGBtoI+AxjYwPDOqtJHgWDA3DGA8MwRv6i9TLQ/DVjGei9JgZzEYC+nyFRrp3YyHjDVm4XCs4lBTTdlOLxjLIut02v576CjFybZC3MJMmwy76DaDUaG98y0ybB5k0Sabb8UxYabZd+l+u5dwMv6uZ6UXaFDTtPcWJ2cOrKCh4+LF4odo0sLQWX1PifIwFgwEGMDCFhHgnXny0242MBZNh8tDBHzF6mWheO2k2k+zR9Ru/Bg71k6OYuVfaZlyPucjRrpoWNhnBg72lzkZJK2Gt109+4SC228txJFHGWKuBmUF3cxhZhU+CYyWdoh44Y5Z+zyVzJd+Xvued7S7DPYWYqadp7ixWLY4mOwqFbnmfE+Y6CpaSDGA8GCMu58B7dR4Ysapcf8AVo2MEZM+B8jBmCMe4vTSMH6fhJw6iw9WhVqSr7TEro8RYWOQ8b6OzFyrOEFDQ4Ds3SSJO3dHPIPyxJhGZYW0cChWJchZk+Oi0geIdjxRci7uBhOBWP27Z9M3NCuOsWDdhkvtzHgrBsp4sVi4MMdhvaB3AxjmOhgjLufE+RuFgwEHnQ2OQjvwchHeR/1aHgWB8j4ny01hHsFlrL4fhJx767kHqBfsN+jlaedBiPCl5h2bjOB0MpLGRGiK8onrt/wXUcU74SSygujIxgWwoOIwTwBZsX6C6hoHgiiLgpnxFyez+7GYAdcz93MdgmXEswtEx7jR2iizbmZ6EeZlTQYzxZnpWpKlpReiwjBGTGcO48MmXB3gaXCkN+gyXXQWEYdxZdDLq01jsYdzJ+GfuMmkwHn008/4B2ObMapXLFZ6HidNWcCkShxka1XMcWyLymuL/d+q0To8Y70lIDrTdh5BSItvItZ+gXUPEOx4glE3DellS204kT4wHmpjtMCzFw2uJjtEFwd9BhHMddgsG7bmP0MY5lBgj5aPkPDFgfI+Jl3Nx0A0JS74X5OZKvwZIwZtpWnZRY7GJk03t0+4yaLDuP10KaHiW13QYFtQUnoeANhcZDoZaaS5yy325r9kSpRtCMHeLi2iqORYKxulgPETxBJsyOA8oHiBXsEuMvsNv76GJGr+ipp2i5cywWCnUKuw3uLLGwMMdmgr1iwtY9FtpIPQTLkHZHBJeLfCHotvxEHbt+Fh7T4nuMpg0PiYmfVM9upV0OezQoarseE9G3YYFRQ4EQfbFtxa+5ggBuXPh+hZQU02TiKhQ4mTaizliyDSoeKGbyL2K+ksgp4CQC+wqw3IkLyXYqUg3Xc+I0vqHgLBvLmfA4OY0CiGc8z4nzKDBFr5j9THuPDMEZdzZpmHKvKKLneR2Ehn2D/BgeweO2tsR7j4nuMpi0V6mLEa6D6DAocenbtOEVHc5HjPR9JkYGRuMc1ume72fz+iNzMDKSxuKuB0eMdhpRTuPFLWzJLkr4ifoLtsz0lmnPRJJ+rMaIwh9fqMnHuPHaJAszmWibXFjrsMJdxbSMdmhbQGIqWkg89RgxYRj3PifMi7HxL05oSzoPgYdzB6efUPAxdR+mrsJ7j4mBlMOj6TEX4AWQxlqp4gU0nhPR9BtFBgMaLY1txZKPS/XToVcFTiK9LESosLaNA8QQtvISbYspdGhWBZsO4Dlvo848DmfqP6GlyXL+ZjoWlZhdRlKdhjPMV9CLtOY8FIF75melHzH+LAwtJDEIl8H5OiB9h+0XqZrrpYLS/Qx7np0M+i9x8dTYTAenTj8E/MVGBYX0NR6C2m+NAxmeSX3z0Y6OUjs3RQOjiZOJQUN0DQcnkJLnReWnEaO0obOHkljc/aVX7aDzMsVkFDXsMO5ntPYNHYUF31Ds4QY7NGxWRpLCMZ56fmUGIy6h2IkcUeGT9BOdXBfgEFgYdz4HyPRq7Ce4+OpYtD1Gb/ACXeEwisOLI3i/aeO0zrQTsKHo/vYZmVM/C+RIZQ4ivSVHMsLCrMaayDyorEWOwWWfMYvSczwRIkXaS6OfvLDtqf1/B4twEqTMiRwirMlPXVrTgvuMQtdDIw4jwOcSH9BZP9kxtSJTUQoRg72uExc78iEdBuS/8ACd7E2KYTpKkgIV2tOD2QkvdnTVO1JCaR5hFqfkqKIW7h+CNjix0vxUigw76Wni0Dsj8GRXBeFqEiFuH6XMmfKSxskxQSXwfXzgSxUvWeIzuiWaMSTqXLMzDW6RLkwbiJi0cyalOEZnQvYpTSTg+JIkU99yWWoETV7UzAyfkAHEd9pgV1ffsMx1p2fofV5adTvDMwa/uYGBjhCMHKR2boqx1psh6FRWywTcQXRpaSEl3zMQrEXhMgl/szJYcyv3qQvsOexUouUHBNZqGf5NVOFJssm2/KY7SKILMUSVtL9EWXnhM9l8GJYNDZRg1zPH5T0gp9e56mfaf6qkynJaGFoqzmnPTqLvqH6GBhat9AYPr8jZt36djLqH6CRw2exd+RGkikNEPZ9cFVpWfCbyJS5YrlDpgmcQzr1Wk7UMb50lFvGIxlc9OR15cTDU8w4BICOjMKeHo6iGCFncd9zoyyoMZsstk935AWYdTgKvxkVBvF36H1ORozIaHbD6WxX36juXTH6EFDgKzwGDlI7NhSBQ4isJbyFly9FsI8UWJlnF0FAgJLeftIpwR+US17+gddh9h+afEHIhlNlE/4SJsSiYUc/wBFoU0LDrMrjEkAEr/U5z4gkamRSinMjdWcEhH8QcsWU2UTsQssxNJUrckLRVFZFuPgyTmPGnt1DAGCGPcV9h8zBmHQfZOR4M+Nn7Me58CYFErf91yHAzKopp7m25YkSLIiF85FEoacJrza2ydqq3Fu42N4EJqJx1hcbuT/ALtCvtjmXQumBCdc/sYoaSwmxTLLmn7Ezeo9NThiH1LCN8+mDD8SK+sttB0NupV1rd+h4z0aMxHhU0S4b/H7ELjBXHP9FR3ixsirgdHcFeng5ljdDxES3kJMtC2HM9JuFpDyjQKvU9pQt/WdCMvIr1irtMO5k4xzHXbpWZluoUCwczmYA5VdhvczPSjHuU7PxVOo9w3IZD4v0X5YjSH2C9D5/lmVgM9D7D46SGL8tmegy0cDOiqOIsPAPEHDTN8g25X3xnQDoYGTgYOZY2RSBQ4yKxl3LoMUSOwSXZaA8BP0ibjsuWp9eZzGV4IH/wB4eUFe0WFLOLoKFI7C0uY77TY5mOw3BX2mxzKdgsG7jE5jafJueokPedO35/w8V6Lc09n+mEyGXVp4dRMosOhmGPZozCGa/wDIkO23ZpdHGR2MvQ8D6OyMob66wZRMz4x9YsM3y4sKuB0cJFZ4DB4h2XoVd5ulgMFJlhjSiHjxKhJcNUJoVz94kX4Fs2MdkZ6BvIx0ownmKw/kU7BP3LsLI5ldDZhcng1N+4d9umqXY3uZ8TDuPQ9Pu/vseO9HqRfr31tg1rPq1X6dLOLqfEx0bdPH/wAMHjc5FdNY+AeF9F4s2VGPFK/cGAQ9VZFRyRY4FDmWN0VZUXQrFXA6KS50WpB6RaFlGloeKJEyzyWRz95Vug/KHcd2WcXQNBSDcLoGgpHaXlzLFhjtNzmZ7B/Ix2aKvtMOoou2ggy6io2Ddfej4b0e2vr+T0GTqYtL0Geh9+rYxddGJv1nHQz/APA1BUNtNRivS+i2Xqz+7/UsVA6GArPAOhhJnSwch2MRUMxLeRaQ/YGiBm8hJbehpAXhLOBb6sy0Ruc3e7NziKy1JxY67RMuIrG1zG46EecVuWacx47RTdi6dR4NDcrBTQ36xcqB12H1jY8V6L+g2/w8QybmYdP0mPcY9gvUwGMXXRgzeYIemhmPSYaOeqqDMsMDEeBOYav+i6Z+XH65FhlRc4GZTTXFWU01hnA6OJiiwbrLIisRIDTMaUDxEWDX1Ocu45Fs34rLkWYPK8h4NTdg0qh46ypswuXNE6F23zLLyMpTtLy5lu3Qp2mPcfrpV7D7lsfDejd7MR9Rj3GPeL0MnXT7Bepi+unF1PgYjGCPiY6MEM4mDxjsYirTYxKp9DwJZhTRct/hCkMUyXS3+xUcpHZwFRykdnAVHMdnEoMx2Hl6BWAsg0tJDYpC0Dy0tJvN9ulNfW5X8Hjs0LSHmA67CsiwxTmOu0XIyMeox26SsY9zHbpK+wai5jrsPcK+wx7lO06Zj99jxXopzNez/p6TN1Mj2aPZpwPiezTij4mGo+OljFCO8ZxF6fhBWcyqfQ8V6MR3DeDyIg6GArGRQbhYZDo4SWGY6OMisOLwoH/SZyNIeIFJ8hJkWgUWan3ZiyhbcMG6hI7C7MsqKChuxdUNBqbFhDwVg2cWBoNDZh5hUobsMl1KP0Oi686R6p+h3G8NYw6j0aCGI/TW4HxMNGAvXWYhehkU0l+0zK6KxyKLsPDHwOX0PM1b4ZgU164rAqLl5RQVFjiUFWWNqLzHkvAWJizMaYDREWJlu8Y9T68xInyOt/Df9E5SV7CgVjaHXYJRkewx2m4Oy37FO04+ZbR07S76i5PB9JcMIo3QXseR+tyP11kN46d3M/xYnw1uCPibtGAhmYTGegzfhflMOnYUOToQTTaL3SkNimXf/IKDIscDB4h2eAwcJFZ4DBwFYo+5VSWmWgMUiRkmwekXcsKwufvFXYdi3kWLoPCor2FyaVDQFgXYsor2iwbuWaFOzRVyHruY7THuOw3kU7DCeZYNA+iMjxXo9IX4OsR6dezDy6GfTgfHQxgPQZGP/wADgPEWGJgeocW4WlLCSUGBgKzkUGBYZlDcW0FWOxdCo+CKNjWBSYsyGnpKQFiRcpf7Mx4CcrV5RdjSiKdugrL0KuwxkdihovQyCyoqam7Fyr26dhscx12aGQ0HqY9H0uRWW/UhCm6TK9pmMOt5NJ6NNDA+JlpYj0GX4k+LQxKDId6LoU7RYds90kEiH4EVelbTUOQ7LVBjSVjMdFoUFO0SZDSXgrAtMugdFRiT9GZiQnPF4Ehd2XgVgUFnDyiGgJBtMaw67BanQ37Mp2li8SpobsXKvaYSxeL9RJZ3A8P6MjuIJ43XhHpMur8FeQwa2jgL1Mv/AB/orKR2MNGArOZQbpKfqzOeT9CqgqLHAxpZ0nRwksMyhuLoVaJ5iNECiLzM0Mdom4wVgIC+hzlgscY/DHmfeS8hpRDrtEqR2dgp2CSwupQJBu5kKdugrDeRTt0LlzU3ZnLB34JlxPhH3+RkfxP4k34sC9TF/hPnMP4mV6m/U/V+H+JQ5arrXOwYSGJ4U7u/BKOUrZoZSZ0nQ3CwqypscYFRyMlh0XN0fYVdgkseYDRErIWZF1RRBvP9orMnMPkm4BfiRJcl4FYlDdw8oGjtFyMl6jmU7RLF1KCpu7MkKdpiZHtK9ugmXB/gkfF+TxohPK/KJdyh+pm1PCZfzDjm9PH+Gtjgb9Cs5/hZU1ckecJ5YQWE8hqzAVjKCuvlQyMljGkVirKyLISZF4jxAqbSLwKBKkdiqDU+nMWZCdAzwJlxMkSLSHwhV2iFg8CovoSnYKMj3Fe0szMCGg1Nxj3MdpjI8GouZPzPA+h3UeCZcy8jL01nuPR+dLE+Jn+UrMNQ6OGrYdYVCqkncIPrFr9sV6UrOhcUOQ70nWksMxUOxiKjxGwsS5CTItAoUrQvESkuQkz0maPrzFgRTmflHYD4Kz5FheJUUNxggq7NFoFAsKXdmaDrtMZLBysG7vQV7dKY8yIFzvyzx/owTinyJFcS+ZXs0lYw7noM341+SPiZGL8Dsh6D/EHW03QxMkt+xSV63+/kp0Xo4gscBVpKxmUNhjAq0sh7gpplZ4otDF4Cx2Fi0mg3BpHY3P3lO0+08H6g8jwKqTJfAoLlZUUfpoKw1QV7C4WQaAkFWMe5TtMmLqUFTA7kXgQDmHifQ5cLwTK4P1qdhghehl+KZmfEzMX4f5nw/Jw5L8EmKeE7ofiSScuXvZ4AvCHek60jyKDIdljBupLCozHYyKUVKSWk1OBkNECkuRZhrdX2jR2ka4r8HSSTyGg17C3cNKoaO0TIdmhWBZhdEU7BKkdipobtpKdotFw4Uw8wviRLgoU6X0Ig91A0/YEG1DkPjoxfhJkfEz/Fg2CGX4zGArOTKlkm5Q/gVi4RB40slYz0rHAwcCwzKh2MDBwMoyHmI8BYUiuZjBWRYtJaCpK30ZjwZ3N3XgfoF5HlA3BWpLCsChtMexjtELFoFDaQ1QU7DMNKoeOzTycJTtI0cEcpk+DxvoJSe4nrTpqB6TB/iSbNOf4oGOhm9Wx0Y6lRj77Nf6z+0FjtPA61nMh3pUN9FTQVjMoLBYFkVzMYKyEmQ8wGgpEjJaAsEr/RmPKC4LoU4AeEPJeAsGxfYp2lg8xGgpAzpFgWLEOuwyFjTR3OCRjsIF8B4ZyAVeDwPoek8Ve4wHq0cf4Ix67lpz1Rgjij0607GH4FZSo48Uvyn/hjsPGlepgKtKwzGId6WDjJYUGUmdB5ElyXgNArIVjYKy5CSXk0Dfa5xpLxY6e8dix2inaWDSWg7g7NCsDOMkMdou5YvAqVZbAr2FicKdp0g+mfE8J6PrOqPsd9Iq7fw+wGMej7DJac2YfwDitXyHrVhgIRBl0PnEL4Js8u2/cIq6PAm3bodaa6KDiFYzKixwHRwFoZFBeRwioLLHmA0FMh2cM1G/Vy0h5Lcld+WXcjTEoVodhoNBaQ9hV2mUmMUKB2aGou42CrsMpLlQ2fZoXoeE9H0HVPsX9NpjtMjHo4D/AJkjd0M2Y/wLg1fLTnp303Qp+e05+EciDxKpDxPo27TLTscDBwksKjIVnIposNSvacY0l4gLCkVl4UFJF5Dlq/dmJNlw3TbjuFiZMhoO9yLF7FXaWkbI0DeHZeAkG8h6gp2l2ZdR6hBcPGmCr1PAeinieMtIfrowfhjAeo9mh8DP8ACh/lAOWo4lDANpODlP8AoWBiPE+j6TMZDvSobDAwcCyKjKTJQ8mUVRSReQ5TsElyNMRuDhI0ln/Z7RIF2ZSd/V/pWZcNKIx2iTIuaFaLCoqbBynYXLSgddumxroMhx0v9jseEeN9Fepc+tf4WCvYYl9TL8JGa0ZmLSw/Eww1TMd6bwG5NfKkvbYsGqZ4U+gpoqxm0Hek602Bg4Fhh6mmI60XmI0QKyMl4CxMzTY3P2lO0iUxJLdB47RBpLwVgOw0FIF5j1BXtLz5jUGO3RcvGmdmhobFqg6DXs/4eAeP9Fep3l9fyNK/lhK0nq/MAmH4/cNbyFpHhWLJXjnu/gYwVXY8YfUYOBcU0FYzKsd6VDYNRuPGjJGiAkC8jhKhJkWgOgl4rdX2jQFy5Flwva/g0FYkWO0JEi8x5FXaWDSXXYcZeJQKHZeBU2GJTsL6PQjPwfCPD+jjtOp29BNfyguUwPVr24yMf4ncPyUloulK6x/YJo6fs/4ipVdjwmndabAxpLIpoWFWZSZ0sh4MiweYDcDjHmA8BaLFoCQCSfozKinaLHIl6BTtEktgY7SzGmJUrUlzQqHYaBU3GJQWL3BTtL6D79sM/Q8P6LfidSexf0edbItq9qPRo56MvyzOA9FiIY6jF/8Aqz8HGfukWZHoPGabEO9KmkwMHAujBw0E4GQsGQsIyKBYFhVQUmWkZiEln6sy4p2HSz8BORUrQ0l4KB2HiBQKxWAkdheY9QV7Swe4MduleI6OY5X1WyM/Q8H6Po0Yttar8KeCPRp56MvyReH5jIwW4Zf4XyxI/CAcTIyMtKwYobDAdabEdB4FgWTHYXFoGBZyPJaAu5YVQb6XONJqaB/hf6WQrEWDY0gLEi8x6gr2Fw9le0v3jjGkeYDo5lw0HEeRbbJ9FehbofR9JZ9Wh5/APgtLJp9H4Uy1TLQv+MN1oMB0eqX62/goVHJ0PCejTTYZGQrGZmOxkVDsOUDxqNASJDs1NBkUgVFpFEGr9GZcPQvaPkXUj7FSklpCrtLh5LrsEyLQKFdx5NStFtOosGjQvJ6V+D+GOw8KW/QLA7IWdDVo5dPo02s9GtIZaDGRhH+JPBp4lRy0U5Un9K6frPCGjMNKgwLCg4hCrMpFYazLTIeR8ChscigvIvAVC8hwzR9uYkuS8T9lH6/huG0UK7lzUrRc0K5DyKBYFg8aF2Hg1KvQ0OY6J9j/AIY7S5bFKziPBz8V+EYo9BkGPRp5i9NaQz0Gc9cy/Je4lWfrg+4wHR9B4L0fhpYGDYYmDhJiKjgWGNBYFnQ8l4HEPIqFosKCqksGeOt7Skh2Fytnwzi8WZLwVg5LxEWJis0KRMsWiBQ2LihsXFewsXqCgyZ1iWvSPCejhJ28SOZDxkhaPL8BL8BM9D4mWkxnpP8AHHRCS+56/wBMdH1HgvWlbQdG2g6NhgOjcYFA8CxoeC0hqgqbyMIKm8h6gobDmq5+0pLkXmXmtz7GmfIvIbYqLhtinYbw9wU7C0h7Ki0h7gp2lpmcFTaehTsHgfRG5TpaZxR2i3gSfleDALQYvxEy0kMtRnpM5menPW5Ec7jwRM4j4MjEX7Twx2QzkZjsZaTsZFQ7DwZDxoyHgzkaS0HIsaBbkvEwMs1ur7TBvYsv4P0E3EDwjKRpgOiljSG4NmXgOjkXDo5SXiOjZzoutI5dHIzrw9Ip0jwnrSRjrP1r5f4WfQyMWjIy/JCy1menIzEciafeCHn/ADmZmXfoeO0kKMyFYozIV6LIV6DMWBZ0ZQsIyKwFiQrLQEhSZDRESAV/szKwEiR2lfgSsy1JYvASixeCkSLFhuDyWOI0mum0loOA5oeQykidx9Ap2n3ORdtNBKTktPPRYy0WM9BjL8TC02QjkZ6tmWGY/Vh+9fL1N26Hj9OyFWhgKhgYCoYGBMPSsaHjRQLLku4FRWZDS4KC0x7Klln7MxyphHO8E/QPBQ3OBU2DYFTY0FCrLwajJqaIsWgYFi8DkY7wyLmOK9h9zkchzkV4J0cBrGWsZ6D/AABzMhaXIX/hgSg+7Ai6/wCNDE8I8afgY6MTHTiYjo3Q1GQ8aHkeDIeELCksHg4SWFRxjzDTb63ONJwIqbvuvIVC8h5Yq7CwaYFBcPsU7DdMChvoKFWdjSzp+VTRAziweo8Z6Ksc4mXgnXwXha1iYNDPTYy/B2WqZC1S2hx0lRiXxV5EhHBPjTges8IUMR0MNDrWKB2MDLVlpkWFRfSqLTMIKBWcA33ucyHg8sH4ZMvp8ioSpLl4HEPIoUsuZg7haoamJQqG6PLHjQPKGg3Ljtw8EHRbyG8SnQ+i0i468PRYsMS/4LsZanMy/Jg46zgYaYEXFXsSFwVeBnEyHjCvUfQYyKh2MzLQs6FgWdCwZFhTTuMHKR5gYNwxarfq4sy0zI5RZZPBeUMFgKw0DCR2X02k0KsEC6pGMmXGDcZCNixI+jyj9yeWes+pyODTb9Q93qGrWr1oMMtRmZathqOJiI4GAy/cV4CwuUQPUTwp9Rn+EstCg4iagWdCxoeBYMDIaoKSMigWiweNJpHP93GcZeJxOI8O7KOyLOBOA0zG2Hg2O0VCsPAofeVCUXDo5Fxg5mSIH/VSDq3g9R4z0ctH95iiwwG9JhotIeGPLJLQx5cienw1HEw12GjdPFNDqHeieE9H0aWQrCGBYYDyhY0PGh5HjQ8mUjSzBszOChuWqCguWaOt7RYDs1oUT7f8LBo02mBg2cjy4KC5wKaJsDEdipwLipy0ok8UDlIvwes8Z607jqv5f7oYGA9Jh+Ac9GY4mE7HlWPotKGoZadUsrinp6eWjKeM1hgYCo4DQhiy0PI8aMjYy0LCMmoWixoeIeRg2YbE5+0aO0eS4bvPyLCgxHZoFLBuDmZlNI1FQrD6J2KnDQghxV7OUyrwjIeIOOl1Qj8abEwHpsPwDnoz0rGhiVWhqHhG4Nh4ZdnivQ8BrE6Mw13IW8NFxiNwGlCwPI8GRRiwLOhYFkeDC7FxwlQrNVAsIsHiGk30OcdHIsOpo3Z/0uzGCoVnAxLBo07mmnexUbnAqFeixLGJa3AgRNkkZjxBwMT7Dsv4ZGJjpwMdB6OejLTgLJiYG48aMjYyMh4bwX09YsaLwBbxHkwMDLVkLBloWDceBYHkeCq7aXkujkPLgaBaRhpN9DnKDAudZPFlJkKhdjlAr01EOwwzFxg5mehlHowGb/YQIMGfW5a53n9fwZGJgLTYaD0c9GelYFkxMTceNGX4DxHp6xY0ngNM8jxoy0y0LAsjwLA8jxoedMiqFZaBQNyHS0PL0G+tzj0UFzvI86B2aDMaWKhcPsUCvWzs003kKvwkR+gdinYYniPWkyOu2+vfWwEMDEYqhq02lbcBn3ESprhX71GelYFkwMR5HjRloy0eB9PSeBYPQeA02WmWhYFkeBYHkeNGRkLOhYGkYGY0sTgKw9QVRnRt9vnLMwMm0+r/AM0MloRgWNBmWCoXDjN9RXpMSxZyMzhQ4RC5Xq8GQqJfUYDxHo+szOuX7f6WX4AwMBj6MHVjbIX0heYZYJkq0pBOJbrJikWLKg/JCeLbRGbhzRYQlSTi2feuI1ISuQouWmLJgYjybacjYWTA8cDzNDxqfEHEyFgyHgWNDxoy0yMhYFkeNLsVUaHYmBkZFEWelX2ucyKISlF29kMyIKKYzb7A+uA2rdftHAVRk1GJYuhlob+ug9FEOy+jYOxYZRUq8LBCpUWP2g6Bl5/wr2mLPDH0mZ+u/r3MTIWgwMBj6H1Fvj+haaNawENt8IGFKMoBuYTfcxajH3TllEW5zqIio8jCGS0Hlwn0blZid/YWTExMjYyMhYFkwFn71MaXrhI8aPSeG1xYFkwFgeR4MjIWBZ0LGh4MhZkeTYWSiMBuWOkZCkidkN4OxC3kn4wpJq5tVogYg0CYc+GPSoIqqZPboRovirUhq3HJCHwuEiHgFo/0BHPakKK9MDKr63IUz9bkOKEj6fxMx9fQWd/R0GMFIQZSDlckmGFCEorFiU3P/ooBxZndcZoWsTARyJfQVqrtI+RB2GxUcYf0YlkdGn0heT9CHJ/GQh68qQsqzj9Q2/6iRQpO4SHPlFpX+0U5VeoLJ8r/AINq+Z/wSx5kq/IiUup/0X+qG/IiepUA3/CNO+ZsUnH7UHLf70IU9uhcfxHXfNwjH40M/hDIfLxKFcfO64DaoFEZI1fEF/lBJ4wWKSIcLYoImfRf9Pov+kyl9OAoBQC/+wK/6ibCvr/o1/1I/wC5O7L6j/30KxQ1LQ8mxl3EqMjCMtCwK2YlEPPYFxgdqSTEFkTRRvNy0JHpE+HAR+BS78z/ALkK/v6mZMZwUlQHAI47A2ndllXxMgKZ1w3xgggaQkmndRjgDcDa/KKiUJclYFJHNKRvhET4hFOF01hoE1pSuJKCRkqOB8cRU3jC3Fr9iC+4c24jNzjiDjhI3Kt9EjbkLc5gh7nPjlKiVoEBSDi0TaScbjJ0MBWKCUgQ6agiUGYiUayRgSyIFEXEIgDkKBbDoWBZMaHjTZmBlpoiaTUyoh2RJHASgjaBEG5W0pym/giRAFNIsKyX7BHMnDxLA911RgzEcuOJbTzGNoAN7Z95UEc8DIb3pcnyVFgm9nOeJFBasX+7W8exKHMfORtWOnI6aQRhrE7oZhgGq5SHMz5ZOmu6XwwIlWcVCGYqZHvOcijBDfCmJFwRKkEwLEEENizpIRLYKLOiZuwoRogEfBLSlaLemCk4xMsUpqQTTXhoTRSzYSscpSSEky6DSRNRMqzcarRMQOUNK45PnEaMtGGiK0ZaMtKxow0ZaLOhY0PGh50WdCxoqZaaIyHjRloSWUwURkNQu5ZiobJCr1Vt9wM0RJuzlKV7DxLqA3Dl78hu5Jv8KDkAVaK+mbIKLZyERvOMwM0IQw1ZRv24f0xYPvLqUbEl+obRmZUWmZo0Kg7wlw58dhVCOyW2afIpTEk0lHM/+FymtI8Fd9xBgWnBxnnmjLUMBEhjp2zim+5KDBbg35ZOXhm0Stc1hDY7TGmCwtip15FO0qNsOW9zbpyFJJV22eXwRsibuHcTPlDiXMYCctBlc8to4yYkfRCsoQSS7dS3YnHTdFKcDsBigxwwj2WjOToSTXIRuB7c9OD4F6V23UlLG3kgcHmC6bnKnSwhPdlO6Vb79Bai2Y2z+Dv6qEKRHzxxLHfo2FcFbjRfUKUc9w5kjZtb4hN89oHFnIArxvSPhmwvxdpLBEFioZb3wG10simlGxefkNCKW1xkJ+ZGYcjnQ8aMhYFnQsDyPBkZCwLI8aHkeBaFjQ8CwPJR6cjAy0rBkUWnMVIszEwMiiMzMoiwW4S6By0EawdC7G0MjHS1i0DUO7VSWr5MPlgS0W0Gs0QydRusbcjL9EK4lbwXQ331sOI+2QCIwEtdN4w3sRm5oY2oinsul2IAdJUuJ6in/wAFrm3CJe/FvnNiXxkXWxyoi0tzFTDTkQN035myRS/gljgk8Atm42IJSEpSmMjhkOS3e0q2M2HCOrnA99kT+rs8f3SxxUiqENP9BPiR4sOFsYsS8jGm9nt8CcjoI3FllCCcLEwhzxxsIea8x4qjYmCVMlbZy5rrH9IsQfsHAWSHNluLM8KY8hYvGuGniOeh2VH7mKiug46A02KpDceDLSsaHjQ86ZaFjQ8aHnRZ0LA8jwLOqwjIeNORsK2YGI7FEZmegrGJCGMjXFb5sQWrLk4Z6F4Pjm6cTYwt3JU5Z2RxmcCK5HCVpPG+B2HjTmLAhiYjDGejAj5Mp/cF97EK/fXfP9C2DhPfyNelPUyMU0amnD9xrC5K/Q1Ek3IxMdB4M9YsmGjLRloWDceNLybCyPAsDybGWhY0PGh50WdCwPI8GWhY0PGh50WdFzsZaVgyHjTkKkKw1GJkYRlpWTXlvMZ9sHQQc0I08s9/CXXL5FOxNs6TKIFiBMjN2GsUcE/6Kw9GI86jEwMjDTmbIElo3x6KsExLc8dcdy5ERQSTaQUmdRGXy5j2kktkJc2XoETJT5k7wUEdRGVy5iTOksSnzXIiASTaKEz1DGeVh7BUraUJli1tenDf6xkcXSt3XsZITgiFuixgDhJXo6BqQwouVTfI6s2llLFupZVCc8N/sCGU7cJ/pEqQThMqxyQiWs06kJ64JCs81MtIkroRKaCMSuRHSTTqKJ+rHlgqtF/ZDMu92gVWJiUuxGomUpl/QjQVuxSBpQtObY0qryi9nLPL9Cpi5CO7jvJGOJBEmFsNygcOj0ew/tAqcP7aEPqRbsliZ3+wWlsVnZFtyOmakhTeFCbtn4nAxH0b4EsCZFuMjVcod/ZjE1QoMieN4qgzUx2ckelceA64INnu0CIxMSkNQga0yrs3OUag5A1Z7QokFhRP6w8DsPGjLRZmBgO2OkZaFgyG60ZFRBNfFKEbqoFxGVFfvqWi2d0dOB1YLUFWBikp9RPBBnLjE7GenEYeDPTgIYazcckfan+4YvgGYppJR5i0lw22b5+I8Ladwus+kgaHlTfKvjv5k29LbcM4EnAoOc+XgJI4kpJJdKI7ucKKxwyJQeFKexHslBO319wE+4gIguSyS6QWmtpjJKcZCfRQnBD1dBKXNOFsEgpOmLQ3n2M1dqCQ+GRmzh2y3iwb7BweMKAm0ie0vQDES/Z3J7QGg28I/YoxqipU7hKi4aaZaOIj+cTICDWTSddMUSDsq7Ms8vgimCTTwpLL+SyPJK5NPGCwQXidDhxx+wK7aZU5krItghCLJG5/ZSGEKgtPaGfYggoSJiVL+LRZeLMzemWIGoN90WcImUYqVrgoyEgkgYdC268kLWwXZTZ/XETuUSmhtw34FKOF3nGvY0Ysf9TXEe67bBF3yfyLCjTUTmf1kawlaYsEl+hbJ6Gi4H4J9K58h1wQ5COsRY/6T0B3idDuOP2BLbTKnMlZF1yZ02qT/ooH0AESNJrexaCcAOiSJCzoWDIeNGQsCtmGjIwjIwMR29GWmiHYwMjMwMjAxMxVoMSq0NiaA6Xp3bbbJMmdX9o/c/sTyg5XF+P0E1daT9o6x+g+TT/Qb6T+w1lh1tn1v9jhxG/Ne8kLtOcj/TeW7n3HcQAxpIhKf8FJNsXztCyxKehCjYBkJNOXVkm5A8FBmotcMMvEKAGdk9iZu0ZIsu5PAm6U37CcPge+EGqUbCW/MUcBQTPnD3Lsjbmx6xRNRzJUw1C2GBHY11VnDYpjDC2wuCyecGkuf8GB0Biu55nuJEsFhEVTX0RP60pMLdPchqFgoJyJLYTRySoSLktq5HEm9HWGh7awcly4W/McEIKOXWeSYGgIbipqXLSySMgocLNuM/sTys2ssymiQ2ngM0ISY6nDiM+a95I3AoqQ3knuuIoxQW2CbfjBCE6S8gZgnmh+GyhbREGLQ3gAIh0WSHBYjwTHNjzRhbjKiRUSeoSZVFzs5mXchmBGoFffxL0KVvKw1uhqHkoJyJLYv1pQkS4LaiBgYSmY4OyxeCPSB3pEq0POmWjAeTCMtKwPJtr0RkN1pyFgWTHTkLGhgYaiwWELKEDpF2UErRhpyFgWR40ZaFkwFgeTYy1nkeDLSsaHjRkLGh40ZCwLI8aLdrgEW72SBZJmsTWpsLA86LOhYHTHgzKmJg3HjRkLAsjxpyFgWR40ZaMjAwMtF2YmIw1CFllBaHZdDPSoya6OeglJWEWKsgJLEhGJmbCyPBgZGxkPGh5Hgy0LA8jxqLGh41Fg3HjQ8iwLI8aHnRZHjQ8i0GBdH//aAAwDAQACAAMAAAAQ888888888888888888888888888888888888888888888888888888888889v/8A/bjjynPPPPPPPPPPPPPPPP8AsPXzzzzzzzzzzzzzzzzly9733/z/AM8788888884E7QqEoodf/8A+/18/wD7z77rzzzwp/8AruYv9LAsK6/7RYsEcSDk59ABQy2+G6G//wALx3/8dF/PuNzn6OE9+UKBKqPHCd/e56FaTai1vrjClmsnH6PNNKsn1fd+ecJsrHLB+V/+089XHqQKC17Q3pr4IpsoPHwgdMCPKhWonrCd6vr16Vy99z3zwePRAyBANjvvgAtDLgo3qeZPLvKOBvMg8GMPuCuvpqEsugCtgwANggtsauImgiGffzHPPPLDTDJvKrKj3589/wB3kEgQ+8dqyMADrr64heAorz8/vP8A/wD/AP7y6d2r9v776/8A/wDwz/8A+47tQlQQBb7b6gW5qLj/APv33/8A73vOvgoYp/q/r/8A/tf/AP8AwgvBgigCHL5trEVhqtO9+xzzy89PmvqEUFftr/8A/wDr7fneS0L2oOzhBmuughCKi88Wr/3/APzy/vPvhfnPE/v/AP8Afv7e+CixxcDJBBB+2AB2Oq8/7/n33P7/AH+vPqKdf61/+/8A9dfqMpYwZ37MsF764CXgIxnT/wDfTTz/AC9vHq/8l/K1/wCuuuv/ALWgBCofqLBBq++QjM+iuG23/wB37289vvPyPP8A6Nf+uv8A36CyIHZ716hpBB+2QXqdAcu//wD/AN//APDX/e+qsdvvD/8A6/1glqoBIs//AAmm83lMyoYROp6b9dcv9/8AL2T/AKkP1/6//wC/8ILIAAAoOl4GXxT5YALeIjD7ab+f9Pdv+vz7ob7v/wD/AO/6kutoAUfh+E4bKBFLjAEEvr4vv/7/ANsP9/8AD/qeH/zv/wC//wAL6ugUHpK0lVzSz76AAAADxo7/AH/v/PD/AP71+MG/9/8A+v8AaKWCk6Bca7BBn0200ACQyYYCXUq+y2K+z/8A14Ak3D/0PkYeYSVSPtoo4RVK7J4jho0eESr1qJIziNBnusw3sFklJvIL0UvGbj6mQmIBDIFJkAvrDE089/8A97zxywxxw3Tyxw4dbMHqQ8+JTjIFF2waQV6pZIzxBYJL9KL/ADnX37Pb2j3f/wDs9iBlnvlfdHLwXIaVfOtjgmIbpKign3nv+3++8+dn++98LKBNnvvnK/kq1QWtYCniIipu+8uvnjvzv/5t+37Bu3wvvlqAC/7A4R3wqwV5fHCnvOgEMOtpgPLr+rv/AK/+99K8ICmhYAkI3hUBX2qEHBTyp7xjtoC18tZ5IYi1L/e7+5fy58DyZYABzyRGl38cFD3hTaw6wL8ZHymqYi6GlqJ8T3rFd+LbqtpAAz/9w93pYEzaT6gq7Y5qqHUbXggzt2nJ078YnH7DpF+EAhTb5kP1pY+fhzzQT4DapC3qyIDKpap5K56LRyN7wrZJZ6RD4MBXX5I3o1zgpr72j0rNu0IDIrp6IoqgKjibO5Z4VT8D55Whz+trD4X7yTyxDRTW319ewSYAYTaI/pCeoJ4JYRb9CjbWNnuPHeDTjx464KVGPdLNbAxABIJooopgkAARRZYpfQVZqKE5/cKH7yCzj7YkbcTvlr5KeoCZCoKp21QgITrf5egR/wDlF7TnyE8cWW2uS/DJWFIueEeWJDBHRqBDzKIMIWCppFC/0VrQooU8qo8eDXUpJ1xE5SvQg8kAGwm1gP2go8Woo9DXVxDrAMB+804+uD5p2XEI3S4nCrCPqAIWVwDL/cqGsA7gk9TfF8uBWcSOyINaFV9811NB1qWO3C3woWjdC7QOC1A/m11rfNSCUcuoU6kfXDp2iZWCzrdy6W8/DPQi5Kc02K2Brayzhb2GeAugcMqS/JQ/R61SQVGWK8Uq2+/kBSr9VXqXCC+T/BL5P/o88maAuXvHLh4tzVwYVSKK9cyrG+8B5dB/zGGT7fJtcX+cYo8uE8rRJ4lAVZHVLoxUgxW7bm/8Lppk/r/cnj/J9W+6WuaASW3/AIZ160JBFoLxyqV1qXxCmVtV+6df/fVwX6dcODDKMHoun/8Alklwf4yZ3dArKByal2zeJxnutWunUeGOALRb75SJ4Cru82CscnKRECmy/FXxztGLU2jdbNWmkNMW3mzQrzRahpaP/f5FeGO6VyW7VmLNMCoZon+xXk82m2lMqWnp0rypYOpZn/t4GomdwaUXYCkaqtatuT3RZSztUfHlW7UkmloIpZSL7+v/ABKWh5AcDbVt3VAneImuRXfUK7CXB9d+SCTreIBaWjsv/fuqZh3AfRHgBvTFJLHRTjr0x5NNZOdR6QGCoqiAKeLL/X7osi+1oCx5pylAJ5n9BhX2IBoqAS0myWuyGmYgUiFv/wD/AP8AUi80K9OBgOSxK/tF5FKiSKsMIqCSWA//AF7hkq/v1/8A+/8AbWQ1yHQ05uuUpuzVI6/jXGu4Eo+DK8A7/W5W6ru/7/7/AO/y9yXZG4t+dsCNpazvLad4+SkbRqBnCYf1Zoa+sWcc917P0126Xgt7unClsdaCVDvQB9S8vsKOPxqjNDGLHHW/+76761e75xxa0aR40+FRZCgrj0rqP/i1NSeYaT179/8Af9f+P9e8+/ccnndMbx+PJpAC7QIDi4a54K7RTqrbrvpamDZLiz6Db/tem+9dFiIaCLEPZJzG4uz9E2yOeVu4UQScqCTC0XbsePt/uv8AfVrrl3BOsygKaKiWezxXBr/f3/X/AK//APfxp6v/APzE/8QAJxEAAQUAAwADAQEAAQUAAAAAAAEQETFBICEwQFFhcYFQkbHB0fD/2gAIAQMBAT8Q/wCbUVCCqIV7NLIj4JVIERXwZEmJ8KgiUSqUSKcVWHVY8hFFCVJfYiSAkER8GjMUJFEMaSgjsgg7ko0kCJL6ZL7I7hzsxLO2K8UWfJaIsqdMnQqqoQsQsSKiqkSYRJfTJfZEgQQ9DYxVaSfIojSTPBKJZFLTESNVUL0ipFIiRIEEeVBWSOSEeBRyDuGdIkEof4SJfYqEQRUoggVTI5BfChUX0ISxJAppCh/LnRKfR/B/B/B/B/B2wUTol9Ci4Ir6FJUl9Evo/AkSJEuJY6CTO0FD9D9CX2S+z9BHMI6IIIIIIIIIIINCQwQb49cYIFoTBaOxPFeAonovZ2QZMKev2h0CevQp4XxR0Lhji+aDfMJ4LwFE9VanAXyWgrCvirqfBAT1wdXmM4KieKCcKColC+lTBPor4r8GFLi4Iy+dGpjvyF4SvqpkwJ6qVEoXnirFWDB6CPksggvrZReH2QV4gSH6EQhX1Uyxfei2/wDS86FU81fInsQ6Kh0YvoIV9slnmjJwRS3qAFPbBdfgFeEiCKt/BdChkskkkVSRF45bYSHF1k4qiBXhSnLupA64Ii/UgiCMQSn2T0ShKQSUJ7J5AkYLLD/D/Cfw/wAI/CPw7+jv6JYO/o7+hJ+j8T8CfNelTgiorFEdCOkIIIIIIIIIIIIIMkEEEENHKOGuVFOQkEkK+2BPdTfFTqrwCY79ywnuvKCDwqTJ7WErx03xxJ5Ch1X3qeCtpvDODsnnr0MRTOW87+pnDbdUEHhppQWghFiJBqLPfHXKirDIES3JnHXqUZQ0R0QSFsTmtlODDuS3ipsgSSJPOghqnqtlDGz0Vvcng0w0woJQr6KaVMNbTW3y9i+bShRCpphpglmmm8f/AGW574qhFURCR6V+BbLw1kN8f/Lz0woxZTGw0w3ktGJyNMNMNbeN18c4UUqLOOmmGmGmC0JSeDphpjY6lJ9atWmmGm8tMFoxG5xw0w34R0wpxOmGmG8aKYjcN46YaZxsg345wopRHaY+GmGmNYLSNw0zhphvKzv00oVOaYaY+mmGlFMFBhpj6aZzqvB3nj0aWhpj42PhrWSyGGmcNM4aYLhJERA345wo1dGw0x8NfWrsIaYY+mcso1eacMNKKVQuhj4a+topVC6FBDTDRW0x8daNVfLHqVNQ0wQ1tfWwWRpKMMNFbX0x7W2288bTCrglNhoraY2mFRdpKbDRW19Mfbb47x16OGGCGmGCmGitQ7oKYa+vrq5szz0sKCilG0VtFMNeks1QVtfX3kN+etQqLih8ENMENMEZujFRja+8qtYb8cfCrFFKjX1lSOlfDG2QwoY2vvKjFrj3njUYoURsdC819ZZBaKmNr7zKC0bN89KKUClX1kL2xtLTLU9RGqvjja5RBSnFLLeKWplt+ojb8c41Ea68UstfWWOb4KkfASNv1oVICWOl1R+xE/YqFRT9j9j9RL7EexNVRhGVYiQJQlCUEUSD+T+T+T+CNR/JP6FsEvo/A/I/I/I/IUW+UAQgh9CMiKLQpGEp9Ep9HXfQiE8QoEG1OmR84CDP7ZQg4xlg6ZI/0kdp2LMISJRjoCkSTfFwTLEzwdiPYgYKZ0dChHgSS5LKhGn0IFhDmSntqZJB1ElYqKNR+CdicFmqHRAqpJCdH2f/AFnZOiUqTiBexH4T/wC3whjb8v8A/8QAKhEAAgEEAQMDBAMBAQAAAAAAAAFBEBEhMVEgMHFhobGBkcHwQNHx4VD/2gAIAQIBAT8Q/wDbQl2LW6ql2Q7C4lgLJ9RH8ElhP0hA59/4MMfXYbtbZaKs0SdUr9hsMStYRbYwJWuPRZCDBsC4f8HZIz+ZYFLhVAZPqXRbmakwpDv6loWE/SECxQoQV1rBdItvsyKxcWTgHWGWEFC/8IY7EZR5E4IWt2RghLqgb0hUAWKEG0DG6l6ZKojZCMtWh9jWb6WLVIu6qBXBFwxvSEBLUshjEWLfIzkeTadsbLF4QqVgmJXHGWXX1fXoxUazfRAwGi3Q1aBi4LIF/XRCcvRisd1UUGae4xS1/IiHgXZId2qjFkbD3sSgQLGiOUh7Av5RfyjxFtAUS3g8USx2dFbbqb9SoPUoPVPKW9Zb1FvWeUvkw6rwEXasIT3P0ufoZf8A061iG68Ue6IvJd3AABXcGdA/spcv0XLly5c3LWn9VGJBXaj4VNJv7v0Kgk37t7Ni8hLpfQVAYx9e/hXb+7m5DEC2b+69xbhJMJeC4PoRcv1Wk395a9+SEuiNvdzULTwPS+7F43L1fTv4V2/vNc6x73d3K69C1Y5Lk0kbqvs2k3958VF918aCab5HzuOezv4U0m/vPe9I+61hlh/JYt3obe0/BTSbu8gaN3VAtiYBni4PqhxVz0o28C5gW93ybv5YTjoohZeB/KEuB9Jr1WDIhsbim7vjb3OKORZD4KB/QHgHv29Jv74fz7bijkbGsi1V0IQrIGAmSntazb/KEcEDmjZYti4Ia4WozAIT2uzkpv8A5QDgemN5HBaQS1np0Me6EuljTTs+lTS3mbzV6nAarUvL+BAYGrrdQj4EJF23IiDxIckXWZbBWozYVLA0YFkFnej2DX1BNMnP9jCpIm2si3k3FxgZWgrNkHgaRdoWiGzf0/IsrjErCTuxzZ0PWR6yPNFi8l3e6HSQkAzqykXVlmi6vegS4FvZ9i11nsP0IsrP2n6kK+GCuPWZ5zznnPMIcn4anCoxbFasmi4haddHv7XAe4PsAGhsNsF1jYelGx8Bcv0FrPx/Y9805ZNLba0M5obPPe2D31uCCR6RyTRyLZ8C6ZVjGvVQckkG0NxHd3G3VJwKaQOSVSRQQ8Imq/sQzN9EnCOSRiQtsOCCe2uZv0wScDkkglnFJNj4K556Rf26YJOEc02b6OjikkdpW1nRJBJwcnBBI4FJJJsvFEtjWk3IyeiSCRwax5ZRSOievSbeiSCSUckogmnJwSbLwQcQIZefUpZJBJpFsbJGC47lqwYhq2OmaajcJXMljNQjUqIlHJwLTJIJIJNvCmDJkEkdHCOWSkRTYfUYuPQEx39S1NtjMCbrh7JIJ6NPilayMi4wZGTmBGNY+SEcnBySqSQSfAjC9VoJJbL4SOWcI0M+YxekUgkgkcDHFfiqyQSRSESzg5OBSSQSfAq1T1QTSaLB3T5ODk4OTg5pBJBIvgbrwQSRSKQiWQjk4OTg5JR8CoGCSCSCSCUhaZJfFJt8mjwQSRSKR0rZH0I+CCSKQiTglkIlkIlkI5FBZvojOrsX2y+kX2zhGg2GqfocI5ODk4OTg5OKcEnPighD2QjkhEshD2PSJIJIJJMF4USQSQSQSLVIJot5kUkEkUikMk5OBbY9vxScHJwckIlkIkgkgkgkWyynIgnrkgkhmtTIHLOESyFSKRSOiaDg5OCWQiXSSCRaJpJuPZ9JJBJByy+kcshI1G3yayCSCUQzg5OKRTcR/ISiGcHJCJZBJBNJORQXjoZJBJBPRFiRaJNZvL+44RLZCJrBKOTgl1x/Ikhko5IRLIJIJIYoORaoH4kSR0wPZJBfKRyzWNh8tEEo5YoJZFIJRyZludhJBKHJwSyCSCUORQSQN6gR8LokgkinLOES2QaKDajlkIkgkhiglkUhmiqpHolEM4JZBJBwckEi0MlwT4FSSCSOiLEkEpGhm3yN7FEo5ZCJIJRyKCXRqNTpEsgWyGOCWLQtkM4JZBJa0X5nwIgkisE0khs4RLpttBwh7olHLIRI9EockKhqfiJZAtkMcEuhbIYoJIFswbIJPgRFYJIHTlkJEkGoLZh7ShabISJHolCkhUQxQe0oN/gckKiGOCXRJyQiR6ODyAWjfwoiSOiSCSGyEjUbjdr0Ht0ShSyFRDHBLolG/ge0oPbHBJA4JZBJyQSPRAwUaG3hSCazWTlkEmhm7zQkcImh7QtuiUKSBbMWnsKbkcD2QOCWQPZyQSckHtKN/BEkUkjolsgkUum30uFClkKhaZCohjio6+BpNmOCXQ9olkEnJAtnJChsfEiRkE1mkHCFsisWCkZKh7RKh7Qtuh7Qtuk+A1GBPaJUPaJZA9olkEklgRkmxHwqSRWKvgkg4VRMC2C0yFQtMekLYpIVCk+MfANY7/JKFt0PaJY9DgkggSZL5oNiPhUkik1kkggWzQbvJqMaCULbocCRu6IHBcX2L5nwmZG8kU0PZLHogSQOCTTQkj4RBIyB9MC2KaLaTmDjgkTwyB7NJBJJA9fJ8JtRmi+C+S+SCBJFJNZuLZt4IikkdMEi2RWZ8mkkRBwSzUPRIpINXk+GjV4RNIJpAzYuXwXya6ZRt4Iik9WxsR0CI9oSQQScmkgSQQfPNPAg+EmkVik9Gk3pv4LsyRSTSbxGzelEEkkU00QI6B6+JB7EkgQp9HP4HqLqwNvCaRTJTem3ghkdU1kdIxu0ZtCzHwX3VSZAhJkMQRtDNsIiAh0JBBBcoPRFxbRk0YP+osf6h7LK/n/o1ffH3EifcuwX3L76fcu4fcu4HgLayGXU9L7lm4H77n7Ux/52ftR+1H7UPMr9KCzs3A9ccS4dF39/VCKum/cSawavSQTe3I2EvZJv24wMM33G7HpFwxFA0o2qBeXl5eXl9y8vsXlxcXFxcXVnpmkD35FewWndR3LqJheg3UhjAzYuTyXYRnQ9mVv+gTYxgyLMXHlj9+4h+35LlgJ2m2riw1hdOy4+2S0IpY4XLuz0TSKW6I/KGl+f+CsJSLQTSCCTYZlaxi2hhmLPQnJ+gxMwxsizSECcwMwZsXFo7NGbRMNEBiD0jFctKSNDszNaha3RNIpI0uxZPkKxkOciaQMmgLF/Z+R2vf6n9n1FTDL98yxbTv8A6hNZr/c0r/P+iz3jI7C+nP8AhYnk2jTZx+RXnmbyJFn9Ce4+mj+Rocnf5Fc27mFC4kST/MjS5xyWCd8WePqy7Lz9hzb2EmfuHA+f+CEP0rIyKTWKSIgeBsbCIGJHukUmkVnrVmVRfpk//8QAKxAAAQQBAgUEAwEBAQEAAAAAAQARITEQQVEgYXGB8JGhscEwQNHh8VBw/9oACAEBAAE/EP8A6m/F/VfQFAu5TuoxPIn8xZHAtiJ7DNYOFgwYQMOn8OtekbwYoJzJXIwh606bS8Bc61lui7zBdDDaAMvQaAGBMzQpR0RU5k3BYw4taefxBJNkAAASSUIGX0P21jh+b/xHT/8AiFkwvQPdBorutyNZey9yyFCflmyn7YbSHaOOxBmdgx2xjY+kj57wMkHmwwg4IukyCnALULsgx1jVNXwulwRs1VeRUwvK7suWbWCksSQCA7DXkhjGTg+ZYcySdm5/+CbCWysCeQH2EPs8nGCp4Js00+A6sY91dao8or9dGOIghjuz1Y/8IHRvPYF7Swh8Oydge4JvDLzf8ISB777/ANZFFT20B/fpFIJx9LH32f8Agm2fgIAaJgADBADSzFVphLBsCSwY9cqRzHiIjMNxJAEmgCQ5JAY80FnfdJsTuYvB7/QtIyIb2SIYHYWFIPviKMA5gTB7QSw1WaDWzsCegH2EHso4wVPBNmmmQdXR7qy9R5Rd01hk9KCAr0IegXumIge8+xPwTXD19EFbkuCF/wCFIB9AwP8AfhBCCwaZYkUJjzRoJ2zPPl4/43+gAJEk8HVjxNJTkTswOb9AejUSsRCUxIQCZi6Lbqxv2lsjUxMrSlWiS3bBcJirmWcGsuBRxDOBBd6LMQBAFraeiLL0Njsd6uoAKtCHqBe6ikA+galy3smFmSPNpMwOkdW5BcLt5jbvAdnkE0LD9AUemAYBmwaAkhRxoA2/uI85g0+ifInQiOT/AKqx9OeAMMwmmMqJQco6pLJ0WOPwgairiAYgHBcweUNx/IR4kAgIAMZ5TGWoAFzMw0i3BkIU6MkKkBdZpLANES/HbhOkcmvJNsyb56lljArsyHBAQTa9kNJoQJlpDQqo1pp4KQQABmsT0fdlQjEykGmpFBZSGWQs5dykmTM6c3VsAARIvG5JYOg1EIZlIjcq1F5hHlNHtxg0Xh/bU3LIhVRJwyWoJ9dt6sa0D8iKRgTUEDCB4lLgiyn8tODTGwNMtfC+HR0JbKwJ7AbYQ+zydYLfCbNMB0B1dHurJVHBRTJJpTi1udh/RNBhhkIkrIkeoTyXnxqw6V0GEIZ59KZoqs9I+fKhhmkDu9S3T+6hERk2ItTJMr5x+gksWB+AR0MQAsAx0C7Byp3tGmXAJE67UlYvkgzESAkgxB6EYG1MHF7SAbGoS9GlsMfIhZFrP0w7KVDQdACuz80Mh0MRpcp7IitiS3UazpcT3KLAAnAicCKSSEKSSE4FTetf9qJAAJT+YvP17o4D5AAm9kYAkmHLlOjTGwP/AF8pxb2+BYhpDIK6TXaIEhbIu9RuRpwQSNdE3B5sBoVywjVqSUHbRPPiZdS/UihYI58TAe1uhaBLEgKwWSZjRYliDKDPQ7Jh4mSTAjQWqGhJayANEs/MmY8QTS2kDbP3RZtEc+Jh1rdC1gwJD0QDqh25kBcqDHvEmzkRoUeUdEIW0kkiTflCCNEnnxMupfqRKfjZOPKiTQAGUK91JgzPbmCKKfY7F+7pi2GDgSWdgE6AFsIPZ5OLkKJwm5ZT4Dqxj3VtCjii1hGwRnpQCEWhD1AvdNRE99difgmt/FH4IKXEtC6g3uhKGTDb6ujLYNBAUCSURjqAaSCdQ2riBc5kuLEj4MDaINaUDZoBgBxXJ7GRgeDb6/lWvAXCYq7Fp+AMgihRQTa/s5aZmEsdAohDSMzb2esBQ7KEbAYkHTgCGtvcK0fSOjsEZGwA5oguGiBM2IEhkdRCgE3Pcqx5zIulJ8jgYmtF1FNBjOD8BzDqXYWrLfkPRfkuXKsIkaJwd3TAjAjRuXcF6heo4EIoKgoAWgbrQN1RVFaK0f1AHpnB5eYd1ZOJsvMmUw88+v8A1MJBef8A87II4bRjsj5TcpswzEIyRYs/YcQWviOjaxRmATuA2xh9nk6uQ1MEuLtp0B1dHurKFHFF1RLBGelAAX6EPQL3TMFd4difgmd/FH4ILXktCAxASEB0JkhNBGAZrO75+ieG7Ty/uzguxEfPhS8BaOKoqBUhHDgABIdAKAhQKkMhDAWAsAJA4gAECJN0lgCxOgQZRHjsxwc8DrK3/pAgABwGTJn0QGHdAGAwGRQwiM/UolppCSgDdbgCMTCZUlCnNIEddkWSSgMeqcQDWEPs8nV/GpA6Yctp8dzo91dYo5ARdcSwyelBYX6EPQL3TIRXeHYn4JvLxRLewUuJKiDRRsO1hB0JvASVSqVSHRjfdBTdvQb+wUnDnkAkB4JjCNUQXduAXCJDJMQ6HKAuAB0E1gWXdzGEfxWbfIEubSAd9FxbsRQ9VTPbh9RT0zYFL3CmBTElJdg7ErGykLIWQutda2b1cVIwAMI/0EixDQ/iAAA/O+bOWDqRtDfRNuhkYGdQiSFtC0HeaU4pPh12QxcbJuVRZlPRYKL0QUQItgkgUY1sDocDLceAPe0C7nZBx3ZNTjDtR3UdkVdhxC1UDt9xSusGDkJFYhEPfILb5CYGsg66Nk3EV352J+Cb34UfggrcliQkomPaIg0fiAAA0ppSjIi9VVTn6n1w1QjRXYfO8oAJ2rmN83l1kQh3a4DpdcF3BKAEfuoLUCBOQiRablL40AEW98IIdRQJMIDFoY80NcWtxokMkiXAhAKL1Q+dAUZRk0mOgBwaZswg+3sU+8AgINyfVSBgEgLUutblmZ0NWBKCoKBuVCFARsfF2KDVTSFppgSTW77hAgNYQbvQQBhfPNzgw0gEDBOEyKRcBhwsn07Kd7NHWIQYSYlBaukaFLzGmefAEYQ0gMEkE36W1K7rUFy+luiCkAboEsOziIDWDEK3iQDIW4UoKeD5M+MBuAL9Fv5QOhB0NbqCiegOHcZzC0WoE4Ddc6Y7jlAZoyJAxvtBRRtQPrv6ncAlhD7PJzj6eCXMmUyA6sY91dYo5ARdUiwwelBUEgibBc766qIepQVWAdA2jk6l9mqKvCE3I5iSHHfdDMJPrQ/3juhINH6cAAIAFCOi0fWc3S9AnXlzPvwlB4QA5LST0YhAjmFW2f29JuaRUBLgrBvQjyMPsC8jLztowQl0AOcHdND+IHCQHYMvPVoduSAJ0ffnxKRo3HhGQXaILahBp9DBsyc7wFswZl6he4rOakc1K5qVuUjcoCoCwAkAbKJsUAJARAwB2D5SnyTwEAI9yhe2DcbHZolMz3PFoXB/uUGGDmgVmwIDqg0/gWIwT0eu6Bh3xjAsXdv6g7QDGRPoLbnbbdivjgLhloEODYUYyEaLf7Ah56OCCFDoWUBqXJQbWhZhLVCdGkuoi0ewbttaMknoOdulwjQNJjIk7nmA2UBSkiBEDvhLc0/gtpkB1Yx7q6xRyEikQ5EHTs3tkGfoEIQVM3qT9pwboBnoJYdBN78KPwQVuS4IFNCTekHtwtGCMHhE/wAl/wAgkX64AAACDwhktzzCaZSUbC+gpUi7JQVCLGENZa2BYVjESHHGIIhAkLIWYshXRpPgzQU/0UfS7BAemJzKXFTG/wAzEXuS1HfEVUx100OIpHUMl44c2ueFBjgUhGCdppe1KPy85T2AyOiLpNviE6MQCdSTZ4SPsEwQippTko14BA4OXPCbNtOgOrGPdXWKOSC6pNhg9KDgH1AHoF7pgIjvruLeybSsUS3sFbkvCGiSRBIHkR8AAiQPJ4Hmo9Ah1L4N8DCbo4opNWBaFawKmM/XAAQBCSEhqudnVLjNrxq4QJJBA4gCIhNEQ7KwoGxQNiibFE2KBsUTYoh2UzsvW4KQwLCgDl9MpMTu6F7j3prcnQB6C7FZDsr64B7gQoZ7AAeij5ly7gyYHgFkVgRYB2wh9nkRA+NThJZCWnwHVjHupIiikguqRYZPSgwI9QB6Be6DCKb47E/BN78K+BBCeJKCGirYfDAQGhMjoJoFMWGQiuDk3a/6GpgiJn3w9DxFsqR0PmJ7FQY4QHBf4gv8wQxKVPe68y/K8y/Kgi3gteLPlOQMbDfed1Nfw7G4+8Dn9XQJ9Au0EOyNyj6bw0F6gYREUqOpPZb0/JWLGQiiU3sYqRrBYbCHtEEZKK0JG8YR89mgHwmnLWG2lQY5NuQ0Jwa73FN1V7KVxIvLXL26xdt6uBvQkJHweaEj4PNAgV6Y7j0QDxXsuRm5rsaBSe9ShKXup4CR08MJOSVwAhDECC24KaQIKKgDS0Ix1U7LZyRJ74e9Fn/UCeZHUbmOpFGQ/EPGOm5IvREQi8FH3Y9k5h80L6SHOWASfUumDmnDsfgTENFfChWq6eqS/qbC/ZCglCJea1puMKp2n3b8M969+zABKaHwr/gE/wCKTSomQDQ9lqB3qXMann0nYKA1kTcpGr1TSTBw7WNwMIS4bKz44F1pes+poVgxmNUD3+gIAZd1d15EfJobwBqjHw+yDHLU9wvP/peN/SE0eosMO5Ysc6zBdt7mu16Av9nX/XoAteW68T/KnYrIqhIMAEWoMZmdKLUd8lfbB/UV9l/UJEALYJ9TgltZDo3H0gyKgDEiGIIFqJnJwuLOutPzkmUW4XmE9EbAiK/gKIfITLE5/wDScWPgQQpg3LTTyykJhcHU7tATwPaKd7IpwQ8Q/BJqJgdJgdJ7inoOj08okDlP+eMUpZSzltbYXshANqRNCkZMpF0P5lEk4om3FSRBdqXZkOkLUKW4W4WsJuE3Sb5O1J+pO3T0611LqxNTcMDcwzCCg2P29EgB/TveALADTxFLZC0ZWwQ+rfQE3QuWuSuSuStkuWtstGW2WyWyWhcSiilboSaFgFoGA6Ij6xkci648gOxRCNyGfY/Yo6MSGkODAFLeFRwCREM54GeRdEmgYlppE47vzoUMmIIKGTUkxJMSQSBkAwZBMy0A0WiJotNNzXvL1S9UrWUSch5IbCsJYwAHqPmIQ4lDRaAOLWgEndWFBJBCQIhScld/EAG4AjAUYpuWH7CEH61mEi3r7hHINlCuXNfZdUT9YAAAQGpNHAIdBIA5Hn6KzyNsJvVzCKqdS9ZRvpEaFADBvWyC0bXVIQthUMAd1JaShJzVnPAeoT1igblAO6gbk6gUxv8AgjMZoaoV61DhUKhvkADyzb9qFEgJAAAGBKY+Qz5iW70Jg5BsoVi36BHIsH3TR+mAAgGtNaa+AAiPJEA82NCgXvYFh9Te61lrmAuwB6vsNyDMPRABMEmVzQmRzNKAm5nuZEnX/GiicACQLvBNl2FKtqQDskTZhFrbCStilbFKSVsgUbgBECkRCAEJn4uxBdITQEdy/WiAAAAH4JsfsYK9fcRt8IsQLu0dQchdoRuLUqx2P04AAIa014X5mILYA0jHKjP4JT1pdp/cepWz5AUTkIzjVByMPwwyxtEi1KjJLAeA0AgpBRuwGLcuLpveXVxNTCFB2SAdlI7LtC9FhXJKSUEnBJQUxZSpSpGtgQnMpkb8xAkI6S+UvScJAAEBUVUtH6QAA/Qim4HL+x8cwptCeEOou9Umo/SAAICrMBcrFcn0wBaQnYCX2EkHGehcno+vv5uS1Fp2fZ1PuyJU4MNWozO1uDNZfDaOTKhJ8BGpSSkTkkBTFuWZwUQSkDWXWagDUk7hEFES4gdV8xe4V7ktR3UwqYVcrOANH6FoAvBHhAICwB/KT6MWgQPqMJNSCTsF2RbU3zf7v+iAAK15K3cBAowLFJ5EbPsCPWcudxF/uF6Adv8AYsgIRaMwVOYQ6EADBDgICMBSJU5A3IfEaCIqZiAbmgm5ruigbk9IKFsUJFSmmnKNClW7APLNlHgigFjMRN6uV36VANXS5gLEcHvTq0cnfncE1/UmVFf9b9P0AAC1prS5XK7AKcCAIof38wpMeC7rmrQOPOxTCjeD2Cj8j3hB74Rs/mo8Q4RAqACsDJYNon5DAJQU5LEcMMiYJxEQ3NWt0wblAKLIByu1lZv4grewEBEBBw+LlEJaEaH4wABHR+ZAOSdKoPp5HvmUE0s7Xpb7TRZvdTff6QAAkVyuwaOBAFSTi0QZIHUrDr2NqCih3Dlmj0Brr0ld23oLGWRQQO0CHqIwH0m2BYZkDTqARnJcEmImJISupeoUQ7qZxC6oGxREBwhIJJyHgg96Xc8jQdJfKXaUQiQEgJQFo/WEAABQcEYRAjINQW8m6AYOCg0KAli17/SkHyCupEv0AAR1K5XIpfTMFSVYQKHpoY80t6QjPe0hP2CpS7mALmPD0Q8LxphusZ2m9U3DK0YgAIkM7algEEJC9QoG7AIYEVHZRNi7RilImDAdE4B9SvW4BGFlEuJd3+ZiLIKkJIwCByVSVLT/AFCAADlAf0uPwRx3QYD9wKoTl5L6FBDe0g/OACNeFuyRRkAoygLybUO3RwNGw/6z9zCoyRAB4xoQUeLh20w9yHUOTIoSjEOs4kvNzzKkL1CgZAFhRNiuIyKUFMSYFqCkImDBMo7KUj0SCn5R0b8gBHzZInGSAam6aiiwqRkFSo/pAAIKf3AAjc0JFCcwy3bUWMhD+MABGtLldkKrAUcAASE2jzMEb0CFQFqdHrZ5bZIuQhqynhuQk+CcJgwTB2hnMgAoHNJBXFcUQ5lKRMSwKYFMClBSuagHfGWkWayOBTbO2YETYolKvi5Vd+NQCAjWVcrsKlV+iABlGzOnYfZsQXMU7L7KYMhD+MAANaXIYSrEaMKzIQJ5DA0mjs7rnh/ehP2mygoOyJieRh3TkhnJO5/7kxO5REpnxY1GwhSCuKIdl6BSFICTEuSQkhECwSAd1IYsTWXWeEnYfvWCSMQKQ2TsHyl2EolAiBKN3AACBg1lXKzA/naAOJU/iuf9pRE1OeZ6laP0AEQV2QviZRYpGQDYkWP4n2U4ufBPJQ60Fo4BtnUsQgdyJEC8LVRqJCcgkEF0UFIiTFISYlyTAkApXNeoUDdmMwNmN7ShDbAeo137gzEVzUnWHyF7xWQcAQEiBaAmgjJ+sAhGCIrNNY7BXJhG3RS5v9AmD8xQRakuV2CrAUJYrMgFwVBAVU33YotW7sCB+SliBz5t+gB9UYLSkzCHpcLhxCDl4SBcW/ViLFMCSAtSQKSAvUKBuUwrGygbMCUk4K49cBlbVK5IKTlG9WlBAKMHxdmghdgQ9hKEqTSMAyfpAugCAi5NpLUE5/8AKQgfmFCLWl2CGENPCAEsVRQOME9Q8A9CtRweBmBA+aD2LJzJukmI8K50JkmBWJMCQKs5qAd1MYCBswpSTArEmDLYmkdTJ462RsxETYnUKeS6syMgYC5CQmrAQAtPGAGPxoDgB8G6fhH88i0I2tLsFSoUDAyMA0FrGAJCeOaaTAnmBIqOJL8GkQ7tMw06OMhahQ/f3IErRUCQ4S5JiJCeoXUCuKJgLknJYkwKEXqsA0b8ETsMHnAu84IegUyjj8cDYlrhAaN3CAA1FJBwKlR/UkAQAumgO1dl/OAKEJrS5fTggFmQVnBKIi0lAeZJJ4AAcGysab2dAhiE5mYfhBJwBJFj4PXYohB0guKZQkB7cK7IZA6CcHQnIMwSRzUDdiMpsvRYD3tdaZzE15Zlti3ITuwPHLo9EtxJdK4dOsnmpbIRgDbAFWQJAWtutRS7AVLT/SAABd9IQeGjvzwChCa0uX0wKsKQkTiEABFBRcsZGhIUJycFhOfGbQp9KRYYDg5bdj2JA6gg6p6ThDA3WOG6hLFHlbZ+7Aix3GqaHMlRfY0VxGBI3BABnACmR0EAUKw6EzHZDzhTNbC5XJBScWbThGAQkpmjzbj4sOaNt2gDwgw6oUU6SPYCLLT8opjdLISRySBkKJHAAXKzCr9GAALv/C/coJ8penGBj8CohLEuyQqSzhEALFRgKkaYORHpL2JQDZyb1t+SNGGFkuSAG/8AqIjQIA4HyjKRkYBho6elgBMNeE2Pc9w1Q9PDEAVUgIAwS4KRgMJUVEOAaCisEBQDmKLF4rxBbPZqjZwULcy33oQnVG8LveUISxQGgRHxLkbpGhLN2QAgBaBwgBNaXfpKBQBd3IBdXJ62I+j9cYAMq6Uu4QxYlGQrOMAECLmEMmc9xB+4E9Bd67GHsUfgBtADkoUJQAYkEzAkNAD1QlmIGRIOEVgjXRD6iCPPEWQhw0lcZOuw39dSmCOQLGQVySMCIVoPFACThrJBYEi1AG1kHgpHJIDZDg8XIIKwV6v3hIWAkFJCICQAtLgIail2FX5wGCkvD/rB9qIGYf1n7/CBWpaeIQQDbhCAowKCSMRcV3GDncGEKSuV2dnya61mACMoW8xmBgtQDUHRS146FMbQgk7uyqKBUuYODaI81Ov+j1//AAMbYlyTMCpKjwAmscIEql1GopPaSaSRiDQniJHe0ncFMXtIwKw4IewkALQOEBl2FX5sABSZLY+euS/4wYfhArUtKWcIQPpkBYvoqFq4BFqOGEoPQWhYo9SDy2rBG7oRYPJFQeQaI0xNpuQnFrCGQSAHoSfRVYQZACCHvgE7/wBghQkAw+7NdzoM3MGBEEqOQNJXBCQKBghM34L7JhKBvyRHWCdQ/LwFCEBwhgBIKGTkoC0DIEDgK0flAUCkmH2zbz/SFoA9P4QBSpaUszGzhSAXcYAEUoZiEItvEDcY/wCUyiMRZN1BnhGj0398t7hHZB1gF8RMJF6nTghBmYixqSESf2WoQpq/4Dm19R7qCqjkC4KYEJFYVRXWmCdYJ1ikrYmLYi5inUGBIePNCwd/nyAEAoG5JmAQFqKSCqko4QAl35lAApJamz1aKH4BQXcqlp4BDZgKMgrEoSzgElXXgAohVSBLafxmpPGlVkTWFYgDQgwlgAk0A6Eq13N2mrreANJTBgiFaU9BjJo3oeJAua2MyuWE1b0NpLD1wwgf9mA+kLB3UjekjYoARoyAEBaikjAo8IAXYVfhAAexwMLaugv8EBj8ABhNS0pZgoWtLFRwggF2AoQ0I2cGtWBC+h2A/YldqehXq5g1hSBgVIJ5pV0pBS/e4I2Fptjf/g13QxFIGkRLAiFVHggJJoaESNo1sIKmvenRKhIEosIervYFCyZbtYCw74AQOAABAWvcpGEoGQgYLsNH4AU9jgBv5QIMcYwdSuQS0pZgoWro/ADCQWKQwHkAsVih6A8mz8BJacgvr9WomRTMChVYQ0hPxeHBNz0KDoyZfk+emyEORznBUQqo5g2p6KC8s46J0Sj5khYhLmAQYyQ6CsewwlWgb4SFiEhgIDICBjcqE0DgBavyW4wmHm/2JMCKuiKZsb5Wo1Qe1qABe4oUVUPABkATXliWMCQRpghB5oK2LAkCx1yCzEoyJQtMpqGOM4RolnPLARfAXD1M1StNpKHMOYTEw7HknjkSaDflG5gPjbILQYsNQHKNJYTirPkHrmiJkTUkzBCr+6AMHImEuCkKAtJ4II/gTcywOCEVQ84kNYPBGrhcrbAXcMkG1HAnrsEJm/GYQ2xHrDCFmAvSavu5Ch4f+MXJHT6CcKvQCPjW6BgAdEO7iEkBoJ4wXUkkB1TEzBAkakHJLBSkedgHMuSNgIHnUZtAF83s6BzKNeMihqJLFt2AcyFrMnCIkoMlgUaAqMR0mF26OJD2nbFWmmiojYyhIEl4959UdU8HdeSl7GNOghNPK9USOyTQeBq1Eb5VrfATRYA1NohRAmMAY2fRyrsNHEAAl2GG+wzr/ogQTOx0sQkC5iRTu/ZH24zYatQu4s5DaqdL4UxMoPbmoBeAXHQmd0wUlpOIrAgGTQ5DP1QQBbJoF4OsSA2TmUVhpjYGsFrQa9KRKfMKD48A2EsMAEg8MVIDy0POixkPSe+Z9oNt6ak1YtKgaFpnB2xDYA3gg4rYOn0q6U6wG6jYycwJaikPckNG4IqYx4GHLSQEtdcodAIM4DB+xGP+AmDXzdVyDwjEiGHB3dE3CJm6/MMnmIy+A3IgbqyT1A0QRwIYJI/IIBQH5lHm5SDFpaHq2yHARnqFA1WLKIl1cViII3drydjYrkSFUnRIIb2sKgJcpGJUkTIIkliEJDrkhmzY8HsYqLE45HuR/wBI0RLIC1DfCJjG5XLFd2rI/RGnMYR9s0/YJHZ/Fgm3T9pB1CWQjynZjpAESNWpKaAQiTEJ9Yzeujo+uecLKYbmTmonUdaw1G6lLQjMeQOKGB7jDZNik0BtmoJE4t3UjKUiWntOoN0jaJ2CtHFE6kZQAGD9k2UQIQQEiPVwAgSaH6i4Dqix7MAGbN0M+rq3wblvRLHqhPmMxsY4zHKG76p7BJA87PTvQ8DRLXfgIFdgY/0OQFowYhgUBESS4DXm0C6PJu+QIkiwPMuZUaJpwMRspboMfOiLuexLBoJZwiC9xawfRMLCNzCNqWeOdfu6YnYIi5BYRzvDmHOyHdYiGRc1IDYk0I4sz1avg8TyTfwNRkYPQWM7CrsaGuMOLwe79EXwyBVgCHsEG3TKEUJIOnixmESeSnrXB5AajnyF1u0PIDUc+QrQRAssgCYln5k882A3Bmd35tsVSfJah7YgHYedeaoP1rc1fgBaGPEsQTXJEAlXhamSSITyR6tdzyJFzXIMbXU8iQc1UIkJpBIBfQImseBYEIWmnwZQjhkF5Or6oYkPKdHnmd0+eZ3Q8DW4X2hjwnVFeEd1BYVwyeJZ5HwXyQn+JqI9U/xCBR/DAR1P8NEympEIeTs5GQeBCM6jbwaBCoqUU6ZTRvwQAWRPx8i/vJgEWAp6ijoz7FbKdBDtvoB1TginpHODJ7goDFXSwKXQIgABJgk2uifxIUnSIRE6JWBj8gPPKdjoAB4ZDanIJyneUSHQxgyDTtWkJDQHQjuBCHB6r0ZFkEhgAlumUciAiADNB4PNMLhEkuSXCcSRcmyGojQhHeCEQTjAljdqJgyTuhos0OHZ4cSdjzQawY4ZCMGatqN01HklMQLBJUzkEsTMoogxagENezMi1oW6zVShzwANCg2fNjDhgaIdzzQYww02YwAKcHuiJzrRMcXhLBByApk+CGAQpEQNth1av0qn+QrNFzVX3fKGK2sSVCYiUDCmnP8Atasjqi9kJXiTwqD3L+/E2UTZ2FYE3wX/AACMQjBtpIHnyU0iCtUgAxkAogt7XKBSWGBvSUAFnsKDqFNTvJBLXahSYLuothnvXGyPDx90fBnzzQYMqDRPd0PeH6J5D1/muvOsR3JPxQuUQOFtqQqEADPQoUYtwSp80eZEzJDD8/dH4eOy+EHw8DqmxB5apuc8hZZxLKS/IJ6oOh4nVAMe6I+UEzeqU56sj54/mdfWOnBWbgP1PhumsRwoa8fsZDSlCmY5jbEREBeGkoWYtEUNEVKJFNHMQ+ulOykLz2NCpdYh/jTAUuRAalmR1ULKKIk4aE5MosozbE0OkjxKalhQkLprkEjuR2lN0mpIeSm8RkcVqCbpNaQkkrfItpR1S5qsCEklGwpJir6P+EYRdHboHqRHSuYjFK3iagkA5A4BHLjVRARjTEriqioCoiYmJ0haUnZioiHGKaZQUg64EOgI0CGIWkKgLTEdAy0hCDFUFoC0hGwiax3Kca6OaHtqnlEk6jT3IZrIYYLEmMZHssE1BKU0V0aOsfnY6tXjqLQaI3lDgV8pB1glqiUakolpiCCCKSuWgyQgghB6LQ2BDZyQMIAOhBBCEgA5AGIQxBCCMEASDgQAYLXPof8AHAQasDhwBdeQFmGjiASF3EBILsSAtOQF7f8AGMoVR4BJIVRVRwAEcwQUw3NqJB/IXpuhyDAT8/gg4xRDkg+bYKaXOFSigUJ2uUzCykf6P1VLdg8wLwJZdp4LEEamAIHJNARIUDAJBRotLdHBQFqPCKipasOjhlXnC/8AriIRVwhKswFn4EAAXcRMFYFIUAqrA9qvIbLEVXAgpgwNJxAkJABJFCtijZApNzTdPclCkKpDgmkkYbI8IgzIJb0lbEJCCPk1wJQJoQes8nQd0zdvkIOFWAhNTdJBRBsqAiQoC1IWcZAAjTwILlVwga6q/cv7w1F2DSl2Dq6FZxBQCjMrsKzAqKkYrOKCRT2bCKo5EuwKsJw5KkacaUPjpcp7qINz5oQmLTkIuGRl2QxE4sYEt66YQAXRRdjUU7bVyW5UkixAd7O5EbYFCfSSIUhQE1N0kFAYAoQFMR8E0BJmQXKrgA2cRRL1AU9w4xBrpyJsSziQAFGIkdcTWpHDAKQqPwSCXVJGBIURVHEvAZI3Xbf0sqNAIDryhMCqOYNqCIBxQ5aye1iDrTBJG/GQAAKQwkUNCaL+o1FHFQBqQLEaoTRiJg5KjcjgmBSEJHJQCkZEsKBgEjBswNA4CFyq4AXTwrB4RA68DSlmDZxiABQqEs6fgoQAuxFSsxUV4fbghJdgKsJvaqIT/Cc0my2qHa2D+lBYZRCohySJYDSh9YryTN6lHDMVvhJh3QAhAaw8s7c+t7imwbpVh73c8x4JAEDYqBujgkDMAaCJCgKxASIq4AblVwwbUqMD5Xhrkz+7ICuwbMiC7iEIvpwAirhqprcFKeIkIvH7LoyKQkRVJUBQCx0XmShqxjRQz2OXVC0ziacpTMBpORAfWYoCW9SihKesMEkHfFcmZDDuhwXUXH/FMm5D0k1N1MqAwHsJAUgoCUbkkIwYgoShEjB1FPotAyJ14FGC5P8ApFyO/APtf9yLhUtn4MQET6cAIqSzKipVZFZiVZFdgvK7LAxLhgVFayKdN4Ypb4OQNAEyIgCAEAqrIDapCqOZLtARoetEMySN6lYIetMJ5FsgSVkNHA+/tRpH6KlyLuL0STNySGyiFIyAEjkojACHvKQqHBALKrgBcqsHMj1AZeVL/wBMZxVfqCAgEhKYDUqsC5WKIqEcCmKZgdiYEhRCqiizG6wR9kPcgBP3Uf0ggqRCqjg0lMxKjkAOaynbMAxWpCoCW9SihITeTwLZCMD7gSPvzjBiz2IUAjcTApB3QT0IwEcEwYhfQmhDhgbEfBNASRg2IoSjImxDh+EAiXRfuNO3mvQqMiq/QAAAYSmFuxFWBcpHBANaSOKLsioo0JX5oH91QasCrKCZgNPAkQEyDJUrQEaA4kmkHmeIfMUj4sk6dVabDbAP+lq5Kobo4I0YigbEUEJGRBAYhgEwqisyCzggmxDZNATnQkCajXv1cih9MfSCKMDRwASsSr8QsC2Fys4IFyuVzNOGQpJ2hLsJUUcPvAdV2jqQgjQYHtRX40IVICqOQEiRDmDbgMWpiiRrKVsxE4lNYj2RRHi5Cg6VgA8yoclgDZVN8I97gAAwEs3JIwAOCYFZgDQEsVGAacEF2A8bR/0qlXHRT92B6B+ldgVmDr64FCWJV+KiELJrVnFIoqOAaLlEVyeg/haAhIqlcRi5C5Bd/ORCrCVFMGJUclIUAo+UqK3QKHDevazCIOLLR2+UpbhKFQmIaNynNsBNxQEuO6ewmlujgkBSCQBsvUcIgBdg2I+i0BJGYEBeJ4X6UYavaLy8iP3mCzBswNKHJKuKGFdwUnvUeBBZwCi7AqSYnl9s4aSnYCBblHuQPQ7xJ+r3FRSiFVHANSFUcyTAijSVOwDPrFNYRq2gXUOCdYLzdbDRARAGuQuVo2JM3KCnLmVFjIGutQt8auaQFjh+Rk6oMKIQQGBo2ZSXpHyexYg8y+g1eyYKVpHgYzbomnmTTILs2zqoBz2zseOYI0da6hraQFw4fkZGUACDPMaIqL6fndHBYwy1IwNhKMgBRgFArlAVhT6IoCz0AFCDCrxkC/eYGAAuIlzQAJJGgFurChGcToCxTwwgbOActzAQZHQcL2gbD7EosGgOododL5KU1XTDemYdzyDoccUp7hiNDo9Ec/8AbFZMJpHQMcoIkPMsDWU5OqIhDukcwGQ5AY+wg8IhD4FdgqOQJCqzBdgaTgXtGHEVSFiJZRVyPd9CEIAAENDBVhDRMxKjgqKQohxLFlHZGhNQ4laNtRMb8IPUfMQ9Aq+BjXcyiJHAHc7kDSb90OnQpxJBflzQt6EAcvLuLpuaPFvDAAuFlAzCEQAiUKDkFJCa1gCRjH0EeqgKILCp0gDc1w2TAnH+FBWBZ7saH9TqjBR7yGCkcsAsURTCUcAIIPlT9PtVOVJamNwAoQoNMgcDfdJ9k5NCWcJBehnIJvM1Fwhs4segRDfpINxcgJuQRBLrtkGkzEOzUjahTIBZIZETM2lVo1BboOQu7sCtRDQSuDDYAhwe3UaixopgZMWWmWAwbuYF2EFWJZwSPeYFC1dFcpiqOasGJVgL2/DKig4SWlAOQWG6c0C/sK08Co5EJFVhDRMwlRwHpDgr2sWT3AhnJwbprxZYMvKuexvpFNpc+nCeebc/Y7r1zizih2dBtYJE03e1HZDSECZQFDTC4JiZvluvM9Lfsd13d1ovA0iDLOYlfyiE24frL1aizisz0mglkWGcdQNVGJL7OjgOZZWAOCGCmOAALCkhNI4BILnb8X2vM7KfMP4PpWHAbh4NwKLagJB1AlOrasHJw4cxAPVo8PRlQKhjAZDlRYBujuGWMCmD7p4BrAPwGPOBCE5pa4STPJLjcR0CYebU8iMzNzlogS33epaA1pAh9dodWnlEGsau2Z3Qvi7QIDR3VzhQTNW9O2KoA2AVys4QEVKrA1qRwJSFVwUvMRVFHDG8g3+paV2R1XHuXKYFVlJMwlWQ2Ko5E6lxQ8LS2UDfhAluU7ZgEW8WSkErEB/s11BvYP0jQjJcU9pVbk9BkCgEkJgU0EsgBZgCgJIShWMC5QFqJzovB0VFLoH4gdMCxNKWKrIVmZKFVgWKzhNirNLsFSsWtSFdzA8JsowUJeJbG3ujIhUcBIJFUcyTOFJASk+sU1hXG2pgG+KWb16JRHi5E5RgL7ti5tz7/vEM7gRCA3E0J3hIHJPUIUPWKRyT1iSEYMAmgYJUcIBVhQtYlgXeUV7/AAQQs4yAKlCqT6YlnBYsVWYuVSqwGrAq4Apzqq1CXQ5Jddvoj9lYJRDKCZhKOAI04CpiBNsR4Gg4Buug4qXth8pc4EIdjZEbopNSRBvhAy3JK5KpukjgQAA3FRgEAnBQFYSByyAswFWQFqCAGBT5LZJVkGxVcASqTVwEFiFsNmKxXMxYqskuwKlI4IskOTcAHVD5VHrGuhnCABIVRzJM4RJEBOCn0lzixJh3UrQMQk8nUC8xWRYcZcmZ6v45yF4TQpjAHhMGACYG2AELNyewkQb5AkJU3SQlWJQSQgnwL/7IcEmhRkRsVSe8VGJ8C1ZI+isy1mKzgEWKrNXKBwymtgFH+lOQqCo8AhRwCVHANJCqOKAeVqGiMG9DiA4w2Rsb8Z1B8hdpV7whUDd1f2wHouCAkJB2xDxgkzgBwSApFQKOCiKQUApCoUwkApGA8r8TgT5Dq4cQFQlyUZgu65o+nAEWYWcAFZwApCqPBK+T2UuzdFQ5AlcvaBP3WCUTMrlEzCZiVcAkqKNSaxs+Vo+sU0npeXK68XkWyFF7ah0Rp89UDWADBR4UTEeQSeEiYBAGymZlJA4CBhCBgQEuKUZQdrfDugVPOqPT/KoS5KOCSilXEFILOABctWB8GCxachSFo4AF5fZT4Ej7Zt8O4opxrUI9xgKuAIVZCkKo4hpIVRzACVII3tmEz0phSjtiMW82SGVLOIlkNEc2ErUgWUrZmCAhKOyLqMkASclUQ4BI5KobocCkcuAIEkJUhuJ0A4AnmEKThlBUn0V2Crrgu4ClyKVYNeS2ZCjA14KuEAppvMZH5fJSo8AhVgDwlXEFJOxJkV2SRJ2JNGCHhT6RF4jJTKr0TKEdRZeoM0l0kjREUzgTgoCmFNBwTBgEQnBRMAoJIUTAKqGi3E4eHZe2/CjzC9tmFYqiWYViqwLMKsFyKVYGvgJLsSrAHLgFLlMQJkwBiEwO42YH6PYhqqs0kJEzImKIcykKIcgTlahsorFHpGjOkBeKPC8XI+5ReEXojFEMlBkU4o8CSDuvaRwCBS5PQKokBNaIHLFASYSATgqEkMgLlQx4Nl7WnoF+b6xFWBoKzpiswHgINWEUqXxK7hhkq46EpMxDw+rk/dP2T8sNJzn9HbEqyISLTgDwKshFFRyIFSckRTxAlIWGXIfSfKR9UhlJ1z6kCLpU5xYSQxA8JoUzgBuYBI4BIT3lI2KIN8BdkAgJYiAnhdEPzfeLPi1BP0jSjMtiVK7gkHUqsGrgwLMSjFYqs1ZwSAkwD7mXbYoDuwxsGCo4F2BVkUTMlyiHhkiai7EiYxx4RiCGxhSZ8HKI5qxW655l3/irWAyeQLKVyUQYQJJ6ZH3MSngCNxQFIqIUhKlI4oCI8wrfa9rSYHZjrBVlETK2xVZMuwLFUgi7gLLlVmruA1IVXAAJwobwEMeZt7k+iZuBVMVWZSFUeAQaDgaWIwKEyOCNQwUwpSGhNUz5OwGmn4HRJ8hEbYjQFA4CJ4wEpIhTMIvoUQYAuKgIbigKRUQpmAkILxQJI9kGwcfHSLfavB7gqjKBcqM23YLlVgXYKsdiqzViq4ElWBdiHWY4+wDk9wiIl+1ASJmQkWngIq4gpJUVRTFjQZFKQsGXJ2JGwrHiyQTKm0FvipbS6J2UaSE9MigkTCCBUhMCkVUUjKETANZQApigZFRzykAfS9mTq18E/a8zgMg0K5UZpuwWLTwBqsSxUZqQquDlWK7AQ89d/wCymgMBNiXH3JVSqwDwKshImIeCVFHJCpXJRijwUxbE0IKj0hI/INkMqWUnJ/wY+1/0g0OCRtiNAcmIHrCPaUTdgEwolE4omZRI4ASAlherMc68rAx9Lw+ycqvQG+lyq9KG+vxAkLAsWniGBcqMyCNOBcqs1IURHwuOULnonKL4liKrEuSJmpiqODSRRVwyRHDJKDMpyEwpZgR+MyUyi4IzWVPhNZgE7IksKhDZRCiKYRwKZhPYRwCQMJTSeMSQVQMBcjs1+8uZRwPRqbekd9LXpvRB+shFKkqSzgFWLSghdwVXKjgoKsVnBKkYA7tB2i8FCBn4MtWaTFUeARVmSJwSGlHwoekNjFWF6JMGOHpDcW3ysCMgvAICfSfju/tOEA4UbSGoZFKKPqMINlQEPhIygLEgYDRiVBSMLygGFzI9QbGHVP3JHjZF+1MwpiqyEqzV2QXcFC5VcAqMFyowK4BEGO2wEpMFs7A/o/TimWQqMiicEk0HjIkZYwmgKSScU1BGoEeEbIuqwONjf5a8aQY+sUCAmUBPZKYR4KQWUpRMAmFAp4xExVDfIAgVMwPCEQrmV6wPiB/0MDUt/wCo+1dgmZouVWasVGC7gsWKjFr4AruENC74ctSM0buD/deQ245CUTFUciOSJIVRR4A4LeTwU0BEobYmjBHkmygcLSO3+aqyqFoGMlHKKkxPRI+AiEpCTE9IjQLCmVUUhJhUBSFATX/6T9LwsAxEAqShiFjZ4XZhr4JdiqwXKjNWZi5VZqxVZAiKaAQDYMPjZDa2AY2BeG2WxiXKo8EijIomJpYKinyBIrIEOGOA8U0DFSHi5CxVYAtCxruhRH/pz95gKQlZGgKJyRGJYVGGycEKJiRMAmTAThhCTIibv6T/AEvKoHBBwXmbR9YIis4wBXZh1dFYqMhYqMkq4K1YrlEK22/0cu8Ok/BPF7LozCo8YyQ0HhFIOBKQ4Yo4I1cAgTAF5FsgQrBXNBQxqapYkxBSClFVYJIKaMogTIoDETCqqZhIiNFSmZoTd/Q/rJcKAo8xI/rJl3HYSuVSFlYqMguzZcquCRVmhyIPu0EfhTIE8HstGUKjhEkNHgJBRgFgeENpIJAhORQxw8FNAXkOpDLikwJevqD+KcUSZyA4UxDBDgRwYiaB4AuSIE8IESFEwiYUQpiHzut2/vJdBHSSpoYi5UcUErsIbfgMpS5VYNfASsTwmNeUSjSm7n/AAxLyeyxOElJC08IUB4CpHgoQqnIdY5wKauBQIm8C7ErOSIX/AHiv44hiQ1WMJoCFE5IjASJJoTMhFAomAaOAsSIUxdEH0+1ZkNnSBgsSJdwmA4YruOImDlS5VYXKrErgEAWqCyCw2r6gBmH2JhVcEirCSFRwggXAEDhUQCaMMF5IHxcic4oSgtIvcsgEwBRQnFRBgJCTDAAwaIwExInAiUIEkjMAed3wfaGWSmIKgA9TfyUeAauAwMgLkqRRYquCCrFctOC5VcASwB7r/BLJkXasJVgHwyBRiSFRwAFBQIVJyUDCPCMGFAjpX5SaQshjRaAFb6ApxyFHhIQRqsYRIBE4qoYiQcwBqKiBG5wAN2cGESZ5ZoU0JCWcEC5UL4ldilLOMQFYqsFyo4BjUocu6Am0DE+b2WrAaMiVH8IyilnCIg1zSgYEwDBJ+BcixlydR8WOTUTUMVIYTAMRMSBhEzAAoayonFFJJigJ1xcABtHcVxwIB3KrEsVGFiq4oCFlViuVWC5PxJgjiUkFoA8TlgTE8fspwwKsgaDkUQ8QSR8pKRoSaU5CpLScENjBeQbKJwtTEHpDrqw0ZMAlIoYAkJAGMkFNAwGpIiGixmAKJCqGImFFQXJfgPTgB6PK7/opZYPAOUYlyoQTZ+IwjVi04rk3RY9xsHuRmTovc29sBMTx2y0cMoqzBoORKOIAhcKaMCBGrCrGFALyLbEKbAQOJdfgBL6RwYRwKiYQHCmhCxBGRIsYDBiSEUBiTFEwCYigu5vh34Kux5Lxq0ZqxQMFygYlyqwsVWRVxQVYqMVyeAxKJwUxB0ClysTxey0ZkPjEBBIqjgcOKCI4MRORMYZOQoBMebLEaTAU5K03c/8ApjyVYTFgLGcAJFKRMYAkJAwiYVEQIWFRMJZgdmfPvmHNSDpdnhyUDNXKjFdkCxVYWKrIq/DRABItUXQ8gcdlysXsfxiVYDlxQpD/AAhQokgomMIXEahkgTQReAyV1ViVBDQi59QGCkxhEpExgCckDCJBUAYCQUcAYLCmjCWFExwQByO3j3Qywnak6bvt9JgRYF3AYacCxVYWKrBcqOEIrwCpCPXTuT/gVoOER5tGRUZFUfxAkoEFmCKBDgjYQcCF4TJSKt5RAibEXrRCSjAOBTAMBIKaBgJiGxhLkYEaLCiI24QgDwumtKxPJ7YwPYgfDojaJQVAzTRiWKBgWKrFcqFYrvxSVkGjdvPMhgDCxPFbLEVWYUcUlSrAMFxwBpxRwGFMQ2MEDiOC8XZCQEwgipmdSJghuCHiEZGqwjQeQCPABcQAIkhFgDT0oJjInpP4xjwkCH2tQuCiwUYFiowLlRguVGC5VZCrAfBQTiDUgenfyAWhiXYObjhUQ+MSFLOCGjNQOBGq5jGgED8LbEFDI1SEJHAoBSGJoygjYGASk0YSYoAwJCgDASFAwFldlg8unBCDfC0Afa8QoMisVCCWKjBYqMblRguVGQowXVWQYMaWqYb2nOrsHOjEPikyH+EJClKSAl5TkKCCoXkgYCY8XZEsJiD4Us+1thJiVYaYVVgEySJhExIAwJiQMIkIUMBIQ4DITrh+T+8Q9v8AjGs7b0RfpcmPRCPrILsAJYqMLFVguVGFiowWKjCxVZT4G9jNeWwf4zSQnjNv0oUCBBIALoaBggsjYGQBsISoPE2UQlKgkkMO96Jlp/czIENCEqQUwDAC4UTGACRRMDAuQmMBIQoYFicDILwCk++ACmiqi9E/ScmxegH0qsLlExsyFyqwsVGFiowuVGFyqwXLdMM9XrnV71w1WBeM2UU/CQEBUYFnDAGCBciYyAoDghQ8i2QJUmMIdKBdkle3f42ILFFxFwEAjWQhpBsmgIkUTRkB4MDmXJzjHtqQnsuGDc3Z9S5tVNGSqwWKjBcqMLFRguVGC5UYLuAEeW5+qPtMTcfUT74JLz2y6MyafwUqVI/AkUCYwTgjBgJiQAvAdWBWgYnhADvpOT/gZ9YkwooDEnKBgJSJgIOEAQPjAApGkCqeHkAfSmJ7KkIeVQa8tIv9qrNVYLFRkqsLFRguVWC5aMFy04rE9dwHqFMT/qHgQPNbLoQ+EoP40JABQHABQGDGgEakj4MkPqqtARVCbv8AKV1r0AcAEGAYCQU0YSYVRgEyQoDEmI4DEmIoZQaTE3zReXUQ+kcsFJsYLh4aB/tVcQQKMFyqwsVGC5VYrloxLFVmHhFCfpeMwOQck8ZstH6MLBJACgwBcKOhmQWSYm8S5DLm0f8ASRVVUITwAbGIBGjAkFEwMSxGZRgSLkZBgDkUyYAnMJ67+qMfaYv/AFFUhCSFsROI/DzR9ImMAkNjIqyVeFiqyWjFdkrOCHh0O+uBuhe1Xgdlq/CoIKdD4wAGo0DqogRKgQwYASKB8XYpXhCoLmQh4s3PtQBmBCKKCwYsASHrEIWANjBMKoGKYqlzq9wCY3J6iIpJ7fhFi8BTP0nQ8IWQBwyKrCxUYLvxEEVNif8AoSjtmDgInk9lqwqsqj8hKAUCY5iAo+AAgNV4BsmlUEJhGwoj1FRNjCHjJRKRw4EETMA+EkhEwWYHMoD6hTV/6hKuwk0Kxc5kA8OY4iUjQ8sxsxPiaMJd+IClXJJaKOGCZRhhVfnlQiQAKIjAMiOGGmFQMB4bqyJQJExJSj3kKbWEvwQIaMJMRwUzFE/AhKAOC8roD9LyuBVmA3QpCPolA/xKqjOhcS0xgcohcCJGbYLo4BfM7LR046hYX6AAAQQQAjQMHlmyLCUEgpQRCFj3cEPJQ8EbAwFyOAUhXKBxSQB5AYn/AO4+s10Tz+y0YPJp/p+rAVGEIJhZEhSI/A1pozEafANLAQFkNB/mAlACBFCwjpBwQ8CCwY8LuVTmqWCrIdK9bFwhwykPhAjEUxWKJiTEXEgKahhGyFonjtlowcjZwwvxITZd+KBKHIN4WS6kaLAeB2WAhISH+cAAoIDVRGBrJkySDog8HUvdKmjUViI/8uw+8AcBgTFVmQ8oGixImC5UcVJBcqfmPtQMX2tNH7g8CiGwgChn1cCHkdlo/RAEKBFTMERxSAjwO7EtTEtTRaaOwVRwQTAMCYqspLFdwSWBEi5HmC5w/I/agJZi7VgLxAH4CgjYAAdwkBiwQBcyQ61HIq36EIQUEGIaDxXVmrE8jstH6YAoAWA1lCcICIUeF3YJNjBqThOmTsa0IcQFBGxgTFIyQPhEI03xysTeJZ4MAW8CJ8OqqyF2jC2A4hA44ka+h0DGsu5qm5oN2pJ0CRKzpdAIDboWmrgmJJBDgUVzRcyQzCNwAg+YCEgsyzZmAyzNoQhE+AMxqsNs8yhprsGsfJweEgPEQhPRSNFBzLF5DZav0gKQAIj/AACBQB+XqyaEh4UbQrwDBIUJhADuGZ1Drv8AtROYIJmgQfAUAoX4GpAERHGNTkcUgGxKSX0aTGceSXjFn0Mu6Pnz7KRMD4rZaMIe5h5f6JVmLOAg0TQmQGC9jsQwaiBAHwBDAm1JEnYcSQS0kItBrZBEcOwieU6tnQcCJQDAEDcjaHEgHIKnANBkWtEwJa5RIJoRwgB4hBGK2RgqhDKWIHk6LV+gAgAEKldhhxgQCJwQ4zmTJBl2ZoOqvCn3RcPjQXyvCz3QcpHQgxnEFqUKdFLhiAMljFvWn1V5RAghrBckLVIDwnyweAsII89L5cD/ABGQW+p/iZGCbJAnPuPhXeJ03okwZXhsvOEdFdrf9Ne/Dr5M6pGGgA6lA59ot8AoBxDc0TfvDmZzsRCdkWBuYjNCO2qmgckH520Q29DQ0DQQokZ8lAmg4E3uhueDshmkO0dx+wukICRPY1XruicU6DzSYJKAJeBKL/wEUi2QVeuD3qkR3qKYbP8AFQVY7DMhipwdeYVe1VB9uSMRwxV7cTe5Wg9JLmm5b2KAxWJHz+POgCkABATPhKLOIuCBfbuis2gRO51tH8BM6dImI/g9FUIcgUf8NY/w1iqemIHC4vqSHUvg2DZnA4T3NA+D5Q8Z9qWOLLZ9l4b+E1sJgm4bb8AkAPhgQs7nmaJ3yU++E8Bj4C/sBEUWu41Yl8tUaXRwk2p3DpKM8BlJR4kohPV1Ii3CB8Z6rxDO6pzt3zFBBC5QhjHLDuWQkPRr6o0ZXPAIXgd7LyO9k0Cp/RZlMCh5o9kZE3sv0vIH2XkT7JmHAUAgP4i5W+KA2ynLhP2QcQ2CDngV1yI/g9MUakg9YMgFpjv2TZKa0m4TUCtUTXE3iakm5TWlvlqy3615aotYW4WtLfJqSJugWpE1ImpGVqC3SChq4yAgjxu2ogNBgNAWgLYKDBD+IBARYABeLwDCEOD2m4LSFoiNAjLJaSQeZMQZaQmOwI+tNzp2sHpOiNPDqzn4gw+QAYrJ6Jq5tiUCMu6GEKJUw2+qSbNAkzOXRto2t0DTN5CFIE8oGTdLIu7qiEtJIywNROZDgoMU6Yk4A9IE1cMCBsAgSylSJQZHhORFysAoD80XFXk0YwID8ybQp8S8bqLhfkzKTK0YDhmFPRbVaEtkqotCU8wWiKqJ4JP4sARsDSMYXFuCl2QRBkSXRCH3KHjdQQHuEFBCdiAA4gk2j3BBsICCMRkEhk44iPqKCj2wVhTZSA025st8hz1cQAoD94AAklYAFLAFAjjISQFsZhulNrJ1KEyeB5iIw5xX8RBeVfINmS1mYBa6lCHcGajn2Up4ZtSIN5B2pGwDhxJXokW0kNEG0aUPkqyGDBQWBKDuZaMJW1CXIU416gxnadtKaL3eapT1Fi7ilsm3QCP3AkRKJIAglDJyk2SRAYLUsISRAELBiAxkfImEkbahouCOGEFp9VxWCBwbANAZBiQ4TZ5DumoQlcUoYh9yAuJpSjymAAyXzlkESSjOUy3KUFhIbIoZciQTDaw7qYuc6iS6okZMmE4DASFCILJI8HQGQNmGKJ3rQjOATMmxQdL4ADEyFgC4HRBV2VGOIRdwCO5Cbtdx1gZzDHQojghA3DmyCQ2YsokekMSiD0SLzEI7vkMQwo3AI3xAm59xg1Mkx6FoKWQSucApAIkEO2R6QLsOHA06kJoZmXvQ9GlNaWO/eARoyAihgl0gw1xQ72ppDCCD7wD8go+mMxwg8HTjWWLL6VdnIlrlEHS2IatnGg1J9wFiwcqCSSNiGo0vAUiDASIDVJpWiuwQBIhenLv/AOSACAAgQogBAgBHiBQAJo9FeoTWX0Qeg44JQXEwgPbSswNHUI7LZZgMVGpDq1EISDZhwER1Y9QKMCiLbq4xALOGMkeqdWTnt2YaQGb7UQUnf/cx9bRU+isVbyGBOYztu5AST0XH7ggEtw2szPcEQR6ulvtdQIcZNAAGJEJYuKDmg4T9DI4SwEVzCP37KUbM4OXPRkP0W8OwepGHqO6SI4Ds13gIG1+CJs+zADEvAYg4vqeuPhw8O9FMDFskKUMW59BF5FwK4tPsQSYB7sapkG0RU13m4WiGSAPs7II3wH8EzBiTAu+q1GNWF8C5mcMQ6DAKJsEDVrvyCMAz/ZQAbDQuKFoMFC4rHO4mQMIRy2xSDM1BIE2RI7og0osE5195AAL6sj+0AIAWEEh+gEEgCgBhKgUkEDDCch9UAQgIgQLBkwBLQebN2kqZUsLiPYAST0QsSCISxvgFCHibGTAAg8zQOAf5GKokz33exdz6MGiQT84qEI84+6X2C81S7CCmt/ookQHchCnyAj6P5yS3Fms2AA3Mi/1KShQZIcIob8ASR/8AAEAEpAgQEAjTTGA0bp/d7ICc7NN6fV91TC0q8Puezr5Op/KfdORNSBQ2IosAmG1RmMJ6BXGB7or8ISlR4A0uRDeLlgcdyQUk2AigOWCWokBzIyGgEIEuZQaIt8DM5UEbXM6NuGkFcjfH2EWghgTpOZyoIJOoRHNEFoCRqHa0TExFyoEfAPoG0bDpwjAJtf5QA9CEQmEpKHfUIYBDg7zEiOQ2XaE90P48GTZiW6AjVQRe4Xto1zAS5P46kRgE1Fcon2fEdUEm/lAT1JuPTBGFNyKO6E7oquoEPuUxJkDA9wib+PhEvI+qOsIkx4sDIwXWlqndyDMO66u0+CA7lVTUo/UEW72Ll0O6LLNnYDuij7CGiwSwZihoWyEKCAPJTigR/RzczY4IohJVFFlwPu4uDA2KLr8GESLIEOsV0UD0HBqF9U3kOTfRBtigRK3sNW6OhVYQ+5QYwuGLBG2dB8Ux/wCtdQJ96G7tGrCS1I6h3ETTyE3Assy5AmVBhR5E2xZZ0yOHqoYA3Ic3qRNZ8UB3KqmrR+4Um51zodK/S3PKF7J2TKHiCepq7omA7gQA8wzA+EAPhQEfFEw0e9BciEJ6QQyFLIhFlBsUGABDokt2gJoElwHEe4IkHongoRxM3K35qkOw8kNPcXAgECOEwf4FC1COxB+Ag3lZddHcCVpDBSqXEhzUBDxYQRMPyVCQDRnOSOYDUDyBLJwaYNCxxwTg4vEF7RE01LmAMQGEML1HbcJgbIjZMejAGkAYCYA0YmAvV5NyQ1QWwGeRAYswLoMR32SvYCT2RaAb4pBXYvZzLoWheU6Hf6homfugcdCwcIHtR49ADyEOQDwDptCfk9PGYtAHgdBGhbdCSAWRvzKFnh86BmQ7zF9CKiT5ZB/UAk6WfknsIB4YMsIuzF7coVBvRHHuC4AdkewlIzgwCg4luSF0wgRFuY1AuaUR3XhQAvSIeDHt2TkuggExQV2MlDDY2YcMYFNvvaLGMzAUIREHXogUCkSCfUEE6FMOMzmDyBngA8ShKAfBhGDnSglA7/CAQAMzgMT1CiVna4KLQQoKKG7CYYYJLAe0L9mwFAiizgU2/LAASpABwSSwRefgIRu2dFbkDLI6JfqSdgnE5pGNDaDCfBQmu5QVgFnkBLyHBqPoiD3TMtwM4b3BIe424RmAlmHoQQKs2ZGiIYAIZBq7OwCeQGNDLI4eqggTUByehDsSRTg3BhuhIjRgKEAIg69EDwUiQT6ggnQqagYEIZfMB+pB2J0C21Ga2htfsBGWDVifxgAQBcKAfCIj44CgcQQA+BAbQAjYCJbKKBQT8K6M089FNMMPwUa9kCr3J3mxSCEGT6dJBKgCyCMHPp0j0LRnNwXb9AKk0F4KMNHL8zS+ubpvLs2zookaU2cdunPohgrWDQsF7DvKCpFxkUxHph+ZQQ8ZqEJzy77BkBaZQQggETAQxw7SUAQuRcAJg7gmzHuiQCCofcaoJYPyJ1RhyuMbzJOtoQeRtgnvYly+pynZQM/EwUoc3qk9pohRG3bDg6BFVxyMFligDAFMn2YPLoBDuAtKT8LmUUIUtLdShRFdAiAwDAYejmvmOQ6uWvUrkK5RO99SDIYRCndxBEH3IQq0uJQxaIxHJB2nbAOa8OJKFtkxoRN4PM1kzBUsNFhcEEFiChCwEpW1wAEkFoYjknpEhhsj6EDyJh36E816EjjH10SNUjANWkyxmCCNOSbuII5KNsF3sd3htBKEhDRS/M0ibiJi4yWpFrpMPhpweBxtFGRYMnxkuWY2fe2IdBKTCgvKQVCLCn3QfWCnoVuzRT8060hlc/ahoVoYV25YJEOWw550iz2vDrcLuM6yrBYTrealrlEEn80sIr1UQSWAhomPiMFuSHtO2Ac14cSU2LRDRhuBxOzShDY1WJvDO9z0Xr7XEu8Mz0XXN/8Atn2Zu/FAF+CAQf0ACYDBDgMg8BGAECgf/GQYKCgAAAEAmnmAIehQNR0UB2GCGVdC+wvsOLb8EUAYQ4TfrgAgFBQAPAEwcMCBQHCwA4AyCBQeAggf/IAoEAAAACCRIMAUJhf/2Q==;" vertex="1" parent="1">
          <mxGeometry x="164" y="50" width="500" height="663.45" as="geometry" />
        </mxCell>
      </root>
    </mxGraphModel>
  </diagram>
</mxfile>
